G04*
G04 #@! TF.GenerationSoftware,Altium Limited,Altium Designer,21.3.2 (30)*
G04*
G04 Layer_Physical_Order=1*
G04 Layer_Color=255*
%FSTAX24Y24*%
%MOIN*%
G70*
G04*
G04 #@! TF.SameCoordinates,B3B2999D-E210-4126-8252-5E02B47327B5*
G04*
G04*
G04 #@! TF.FilePolarity,Positive*
G04*
G01*
G75*
%ADD16C,0.0100*%
%ADD21O,0.0236X0.0807*%
G04:AMPARAMS|DCode=22|XSize=63mil|YSize=41.3mil|CornerRadius=10.3mil|HoleSize=0mil|Usage=FLASHONLY|Rotation=0.000|XOffset=0mil|YOffset=0mil|HoleType=Round|Shape=RoundedRectangle|*
%AMROUNDEDRECTD22*
21,1,0.0630,0.0207,0,0,0.0*
21,1,0.0423,0.0413,0,0,0.0*
1,1,0.0207,0.0212,-0.0103*
1,1,0.0207,-0.0212,-0.0103*
1,1,0.0207,-0.0212,0.0103*
1,1,0.0207,0.0212,0.0103*
%
%ADD22ROUNDEDRECTD22*%
G04:AMPARAMS|DCode=23|XSize=240.2mil|YSize=248mil|CornerRadius=60mil|HoleSize=0mil|Usage=FLASHONLY|Rotation=90.000|XOffset=0mil|YOffset=0mil|HoleType=Round|Shape=RoundedRectangle|*
%AMROUNDEDRECTD23*
21,1,0.2402,0.1280,0,0,90.0*
21,1,0.1201,0.2480,0,0,90.0*
1,1,0.1201,0.0640,0.0600*
1,1,0.1201,0.0640,-0.0600*
1,1,0.1201,-0.0640,-0.0600*
1,1,0.1201,-0.0640,0.0600*
%
%ADD23ROUNDEDRECTD23*%
G04:AMPARAMS|DCode=24|XSize=59.1mil|YSize=110.2mil|CornerRadius=14.8mil|HoleSize=0mil|Usage=FLASHONLY|Rotation=90.000|XOffset=0mil|YOffset=0mil|HoleType=Round|Shape=RoundedRectangle|*
%AMROUNDEDRECTD24*
21,1,0.0591,0.0807,0,0,90.0*
21,1,0.0295,0.1102,0,0,90.0*
1,1,0.0295,0.0404,0.0148*
1,1,0.0295,0.0404,-0.0148*
1,1,0.0295,-0.0404,-0.0148*
1,1,0.0295,-0.0404,0.0148*
%
%ADD24ROUNDEDRECTD24*%
G04:AMPARAMS|DCode=25|XSize=78.7mil|YSize=67.3mil|CornerRadius=16.8mil|HoleSize=0mil|Usage=FLASHONLY|Rotation=0.000|XOffset=0mil|YOffset=0mil|HoleType=Round|Shape=RoundedRectangle|*
%AMROUNDEDRECTD25*
21,1,0.0787,0.0337,0,0,0.0*
21,1,0.0451,0.0673,0,0,0.0*
1,1,0.0337,0.0225,-0.0168*
1,1,0.0337,-0.0225,-0.0168*
1,1,0.0337,-0.0225,0.0168*
1,1,0.0337,0.0225,0.0168*
%
%ADD25ROUNDEDRECTD25*%
G04:AMPARAMS|DCode=26|XSize=31.5mil|YSize=39.4mil|CornerRadius=7.9mil|HoleSize=0mil|Usage=FLASHONLY|Rotation=90.000|XOffset=0mil|YOffset=0mil|HoleType=Round|Shape=RoundedRectangle|*
%AMROUNDEDRECTD26*
21,1,0.0315,0.0236,0,0,90.0*
21,1,0.0157,0.0394,0,0,90.0*
1,1,0.0157,0.0118,0.0079*
1,1,0.0157,0.0118,-0.0079*
1,1,0.0157,-0.0118,-0.0079*
1,1,0.0157,-0.0118,0.0079*
%
%ADD26ROUNDEDRECTD26*%
G04:AMPARAMS|DCode=27|XSize=31.5mil|YSize=35.4mil|CornerRadius=7.9mil|HoleSize=0mil|Usage=FLASHONLY|Rotation=90.000|XOffset=0mil|YOffset=0mil|HoleType=Round|Shape=RoundedRectangle|*
%AMROUNDEDRECTD27*
21,1,0.0315,0.0197,0,0,90.0*
21,1,0.0157,0.0354,0,0,90.0*
1,1,0.0157,0.0098,0.0079*
1,1,0.0157,0.0098,-0.0079*
1,1,0.0157,-0.0098,-0.0079*
1,1,0.0157,-0.0098,0.0079*
%
%ADD27ROUNDEDRECTD27*%
G04:AMPARAMS|DCode=28|XSize=55.1mil|YSize=63mil|CornerRadius=13.8mil|HoleSize=0mil|Usage=FLASHONLY|Rotation=90.000|XOffset=0mil|YOffset=0mil|HoleType=Round|Shape=RoundedRectangle|*
%AMROUNDEDRECTD28*
21,1,0.0551,0.0354,0,0,90.0*
21,1,0.0276,0.0630,0,0,90.0*
1,1,0.0276,0.0177,0.0138*
1,1,0.0276,0.0177,-0.0138*
1,1,0.0276,-0.0177,-0.0138*
1,1,0.0276,-0.0177,0.0138*
%
%ADD28ROUNDEDRECTD28*%
%ADD29R,0.0472X0.0472*%
%ADD30R,0.0630X0.0591*%
G04:AMPARAMS|DCode=31|XSize=126mil|YSize=63mil|CornerRadius=15.7mil|HoleSize=0mil|Usage=FLASHONLY|Rotation=270.000|XOffset=0mil|YOffset=0mil|HoleType=Round|Shape=RoundedRectangle|*
%AMROUNDEDRECTD31*
21,1,0.1260,0.0315,0,0,270.0*
21,1,0.0945,0.0630,0,0,270.0*
1,1,0.0315,-0.0157,-0.0472*
1,1,0.0315,-0.0157,0.0472*
1,1,0.0315,0.0157,0.0472*
1,1,0.0315,0.0157,-0.0472*
%
%ADD31ROUNDEDRECTD31*%
%ADD56C,0.0150*%
%ADD57C,0.1000*%
%ADD58C,0.0060*%
%ADD59C,0.0591*%
G04:AMPARAMS|DCode=60|XSize=59.1mil|YSize=59.1mil|CornerRadius=14.8mil|HoleSize=0mil|Usage=FLASHONLY|Rotation=270.000|XOffset=0mil|YOffset=0mil|HoleType=Round|Shape=RoundedRectangle|*
%AMROUNDEDRECTD60*
21,1,0.0591,0.0295,0,0,270.0*
21,1,0.0295,0.0591,0,0,270.0*
1,1,0.0295,-0.0148,-0.0148*
1,1,0.0295,-0.0148,0.0148*
1,1,0.0295,0.0148,0.0148*
1,1,0.0295,0.0148,-0.0148*
%
%ADD60ROUNDEDRECTD60*%
%ADD61C,0.0748*%
%ADD62R,0.0748X0.0748*%
%ADD63R,0.0594X0.0594*%
%ADD64C,0.0594*%
%ADD65C,0.0984*%
%ADD66O,0.0600X0.0800*%
%ADD67R,0.0600X0.0800*%
%ADD68C,0.0900*%
%ADD69C,0.1200*%
%ADD70C,0.0197*%
G36*
X05655Y0383D02*
X05625Y038D01*
X055889D01*
Y0384D01*
X055834Y038534D01*
X054884Y039484D01*
X05475Y039539D01*
X050963D01*
X050909Y03967D01*
X050727Y039745D01*
X050373D01*
X050191Y03967D01*
X050137Y039539D01*
X049668D01*
X049592Y039724D01*
X049386Y039809D01*
X04935D01*
Y040039D01*
X049295Y040173D01*
X048234Y041234D01*
X0481Y041289D01*
X0375D01*
X037366Y041234D01*
X036959Y040826D01*
X036953Y040813D01*
X036694D01*
X036505Y040735D01*
X036444Y040587D01*
X035086D01*
Y040722D01*
X035005Y04092D01*
X034807Y041001D01*
X034493D01*
X034295Y04092D01*
X034214Y040722D01*
Y040577D01*
X032331D01*
X032124Y040784D01*
X031795D01*
X031563Y040552D01*
Y040223D01*
X031795Y039991D01*
X032124D01*
X032331Y040198D01*
X034214D01*
Y039778D01*
X034295Y03958D01*
X034493Y039499D01*
X034807D01*
X035005Y03958D01*
X035086Y039778D01*
Y040208D01*
X036444D01*
X036505Y04006D01*
X036694Y039982D01*
X037502D01*
X037691Y04006D01*
X03777Y04025D01*
Y040545D01*
X037691Y040735D01*
X037537Y040799D01*
X037525Y040858D01*
X037578Y040911D01*
X048022D01*
X048972Y039961D01*
Y039809D01*
X048936D01*
X04873Y039724D01*
X048645Y039518D01*
Y039182D01*
X04873Y038976D01*
X048936Y038891D01*
X049386D01*
X049592Y038976D01*
X049668Y039161D01*
X050137D01*
X050191Y03903D01*
X050373Y038955D01*
X050727D01*
X050909Y03903D01*
X050963Y039161D01*
X054672D01*
X055511Y038322D01*
Y038D01*
X050985D01*
Y03807D01*
X050909Y038252D01*
X050727Y038328D01*
X050373D01*
X050191Y038252D01*
X050126Y038095D01*
X049833D01*
X049718Y038047D01*
X049645Y037975D01*
X049603Y038003D01*
X049677Y038182D01*
Y038518D01*
X049592Y038724D01*
X049386Y038809D01*
X048936D01*
X04873Y038724D01*
X048645Y038518D01*
Y038182D01*
X04873Y037976D01*
X048936Y037891D01*
X048999D01*
Y037378D01*
X04883Y03721D01*
X048788Y037238D01*
Y037387D01*
X048731Y037524D01*
X048595Y03758D01*
X048398D01*
X048261Y037524D01*
X048222Y037429D01*
X04765D01*
X047617Y037509D01*
X047462Y037573D01*
X047038D01*
X046883Y037509D01*
X046843Y037412D01*
X046691D01*
X046651Y037509D01*
X046495Y037573D01*
X046072D01*
X045916Y037509D01*
X045852Y037353D01*
Y037147D01*
X045916Y036991D01*
X046072Y036927D01*
X046495D01*
X046651Y036991D01*
X046691Y037088D01*
X046843D01*
X046883Y036991D01*
X047038Y036927D01*
X047462D01*
X047617Y036991D01*
X047664Y037105D01*
X04816D01*
X048161Y037102D01*
X048175Y037055D01*
X047765Y036645D01*
X047657D01*
X047617Y036741D01*
X047462Y036806D01*
X047038D01*
X046883Y036741D01*
X046818Y036586D01*
Y036379D01*
X046883Y036223D01*
X047038Y036159D01*
X047462D01*
X047617Y036223D01*
X047657Y03632D01*
X047832D01*
X047947Y036367D01*
X048158Y036579D01*
X048204Y036559D01*
Y036481D01*
X048261Y036344D01*
X048398Y036288D01*
X048446D01*
Y03656D01*
X048496D01*
Y03661D01*
X048788D01*
Y036639D01*
X048747Y036738D01*
X048781Y036788D01*
X0488D01*
X048915Y036835D01*
X049044Y036964D01*
X04909Y036945D01*
Y036855D01*
X049147Y036719D01*
X049284Y036662D01*
X0494D01*
Y03615D01*
X04875Y0355D01*
X044512D01*
Y036159D01*
X044562D01*
X044717Y036223D01*
X044782Y036379D01*
Y036586D01*
X044717Y036741D01*
X044562Y036806D01*
X044138D01*
X043983Y036741D01*
X043918Y036586D01*
Y036379D01*
X043983Y036223D01*
X044138Y036159D01*
X044188D01*
Y0355D01*
X043839D01*
Y036809D01*
X043784Y036943D01*
X043753Y036973D01*
X043773Y037019D01*
X043971D01*
X043983Y036991D01*
X044138Y036927D01*
X044562D01*
X044717Y036991D01*
X044782Y037147D01*
Y037353D01*
X044717Y037509D01*
X044562Y037573D01*
X044539D01*
Y037934D01*
X04463D01*
Y038607D01*
X043957D01*
Y037934D01*
X044161D01*
Y037573D01*
X044138D01*
X043983Y037509D01*
X043937Y037398D01*
X043332D01*
X043332Y037398D01*
X043168D01*
X043168Y037398D01*
X037129D01*
X037117Y037427D01*
X036962Y037491D01*
X036939D01*
Y038187D01*
X037502D01*
X037691Y038265D01*
X03777Y038455D01*
Y03875D01*
X037691Y03894D01*
X037502Y039018D01*
X036694D01*
X036505Y03894D01*
X036426Y03875D01*
Y038739D01*
X035086D01*
Y038875D01*
X035005Y039072D01*
X034807Y039153D01*
X034493D01*
X034295Y039072D01*
X034214Y038875D01*
Y03793D01*
X034295Y037733D01*
X034493Y037651D01*
X034807D01*
X035005Y037733D01*
X035086Y03793D01*
Y038361D01*
X036465D01*
X036505Y038265D01*
X036561Y038242D01*
Y037491D01*
X036538D01*
X036383Y037427D01*
X036318Y037271D01*
Y037064D01*
X036383Y036909D01*
X036538Y036844D01*
X036962D01*
X037117Y036909D01*
X037163Y037019D01*
X04315D01*
X043168Y037002D01*
X043189D01*
X043461Y03673D01*
Y0355D01*
X043312D01*
Y035682D01*
X043348Y035718D01*
Y035882D01*
X043232Y035998D01*
X043068D01*
X042952Y035882D01*
Y035718D01*
X042988Y035682D01*
Y0355D01*
X042312D01*
Y035732D01*
X042348Y035768D01*
Y035932D01*
X042232Y036048D01*
X042068D01*
X041952Y035932D01*
Y035768D01*
X041988Y035732D01*
Y0355D01*
X041812D01*
Y035732D01*
X041848Y035768D01*
Y035932D01*
X041732Y036048D01*
X041568D01*
X041452Y035932D01*
Y035768D01*
X041488Y035732D01*
Y0355D01*
X041312D01*
Y035732D01*
X041348Y035768D01*
Y035932D01*
X041232Y036048D01*
X041068D01*
X040952Y035932D01*
Y035768D01*
X040988Y035732D01*
Y0355D01*
X040812D01*
Y036183D01*
X041067Y036438D01*
X042032D01*
X042068Y036402D01*
X042232D01*
X042348Y036518D01*
Y036682D01*
X042232Y036798D01*
X042068D01*
X042032Y036762D01*
X041D01*
X040885Y036715D01*
X040535Y036365D01*
X040488Y03625D01*
Y0355D01*
X040312D01*
Y035732D01*
X040348Y035768D01*
Y035932D01*
X040232Y036048D01*
X040068D01*
X039952Y035932D01*
Y035768D01*
X039988Y035732D01*
Y0355D01*
X039812D01*
Y035732D01*
X039848Y035768D01*
Y035932D01*
X039732Y036048D01*
X039568D01*
X039452Y035932D01*
Y035768D01*
X039488Y035732D01*
Y0355D01*
X0253D01*
X02505Y03575D01*
Y0431D01*
X05655D01*
Y0383D01*
D02*
G37*
%LPC*%
G36*
X034807Y04297D02*
X0347D01*
Y042269D01*
X035086D01*
Y042691D01*
X035005Y042888D01*
X034807Y04297D01*
D02*
G37*
G36*
X0346D02*
X034493D01*
X034295Y042888D01*
X034214Y042691D01*
Y042269D01*
X0346D01*
Y04297D01*
D02*
G37*
G36*
X045462Y042617D02*
Y042155D01*
X045845D01*
Y042205D01*
X045718Y042511D01*
X045462Y042617D01*
D02*
G37*
G36*
X047462D02*
Y042155D01*
X047845D01*
Y042205D01*
X047718Y042511D01*
X047462Y042617D01*
D02*
G37*
G36*
X053812Y042605D02*
X053462D01*
Y042155D01*
X053812D01*
Y042605D01*
D02*
G37*
G36*
X049462Y042617D02*
Y042155D01*
X049845D01*
Y042205D01*
X049718Y042511D01*
X049462Y042617D01*
D02*
G37*
G36*
X044462D02*
Y042155D01*
X044845D01*
Y042205D01*
X044718Y042511D01*
X044462Y042617D01*
D02*
G37*
G36*
X046462D02*
Y042155D01*
X046845D01*
Y042205D01*
X046718Y042511D01*
X046462Y042617D01*
D02*
G37*
G36*
X038462D02*
Y042155D01*
X038845D01*
Y042205D01*
X038718Y042511D01*
X038462Y042617D01*
D02*
G37*
G36*
X053362Y042605D02*
X053012D01*
Y042155D01*
X053362D01*
Y042605D01*
D02*
G37*
G36*
X045362Y042617D02*
X045106Y042511D01*
X044979Y042205D01*
Y042155D01*
X045362D01*
Y042617D01*
D02*
G37*
G36*
X047362D02*
X047106Y042511D01*
X046979Y042205D01*
Y042155D01*
X047362D01*
Y042617D01*
D02*
G37*
G36*
X044362D02*
X044106Y042511D01*
X043979Y042205D01*
Y042155D01*
X044362D01*
Y042617D01*
D02*
G37*
G36*
X049362D02*
X049106Y042511D01*
X048979Y042205D01*
Y042155D01*
X049362D01*
Y042617D01*
D02*
G37*
G36*
X046362D02*
X046106Y042511D01*
X045979Y042205D01*
Y042155D01*
X046362D01*
Y042617D01*
D02*
G37*
G36*
X038362D02*
X038106Y042511D01*
X037979Y042205D01*
Y042155D01*
X038362D01*
Y042617D01*
D02*
G37*
G36*
X053812Y042055D02*
X053462D01*
Y041605D01*
X053812D01*
Y042055D01*
D02*
G37*
G36*
X053362D02*
X053012D01*
Y041605D01*
X053362D01*
Y042055D01*
D02*
G37*
G36*
X049362D02*
X048979D01*
Y042005D01*
X049106Y041699D01*
X049362Y041592D01*
Y042055D01*
D02*
G37*
G36*
X047362D02*
X046979D01*
Y042005D01*
X047106Y041699D01*
X047362Y041592D01*
Y042055D01*
D02*
G37*
G36*
X046362D02*
X045979D01*
Y042005D01*
X046106Y041699D01*
X046362Y041592D01*
Y042055D01*
D02*
G37*
G36*
X045362D02*
X044979D01*
Y042005D01*
X045106Y041699D01*
X045362Y041592D01*
Y042055D01*
D02*
G37*
G36*
X044362D02*
X043979D01*
Y042005D01*
X044106Y041699D01*
X044362Y041592D01*
Y042055D01*
D02*
G37*
G36*
X038362D02*
X037979D01*
Y042005D01*
X038106Y041699D01*
X038362Y041592D01*
Y042055D01*
D02*
G37*
G36*
X049845D02*
X049462D01*
Y041592D01*
X049718Y041699D01*
X049845Y042005D01*
Y042055D01*
D02*
G37*
G36*
X047845D02*
X047462D01*
Y041592D01*
X047718Y041699D01*
X047845Y042005D01*
Y042055D01*
D02*
G37*
G36*
X046845D02*
X046462D01*
Y041592D01*
X046718Y041699D01*
X046845Y042005D01*
Y042055D01*
D02*
G37*
G36*
X045845D02*
X045462D01*
Y041592D01*
X045718Y041699D01*
X045845Y042005D01*
Y042055D01*
D02*
G37*
G36*
X044845D02*
X044462D01*
Y041592D01*
X044718Y041699D01*
X044845Y042005D01*
Y042055D01*
D02*
G37*
G36*
X038845D02*
X038462D01*
Y041592D01*
X038718Y041699D01*
X038845Y042005D01*
Y042055D01*
D02*
G37*
G36*
X052412Y042638D02*
X052106Y042511D01*
X051979Y042205D01*
Y042005D01*
X052106Y041699D01*
X052412Y041572D01*
X052718Y041699D01*
X052845Y042005D01*
Y042205D01*
X052718Y042511D01*
X052412Y042638D01*
D02*
G37*
G36*
X051412D02*
X051106Y042511D01*
X050979Y042205D01*
Y042005D01*
X051106Y041699D01*
X051412Y041572D01*
X051718Y041699D01*
X051845Y042005D01*
Y042205D01*
X051718Y042511D01*
X051412Y042638D01*
D02*
G37*
G36*
X050412D02*
X050106Y042511D01*
X049979Y042205D01*
Y042005D01*
X050106Y041699D01*
X050412Y041572D01*
X050718Y041699D01*
X050845Y042005D01*
Y042205D01*
X050718Y042511D01*
X050412Y042638D01*
D02*
G37*
G36*
X048412D02*
X048106Y042511D01*
X047979Y042205D01*
Y042005D01*
X048106Y041699D01*
X048412Y041572D01*
X048718Y041699D01*
X048845Y042005D01*
Y042205D01*
X048718Y042511D01*
X048412Y042638D01*
D02*
G37*
G36*
X043412D02*
X043106Y042511D01*
X042979Y042205D01*
Y042005D01*
X043106Y041699D01*
X043412Y041572D01*
X043718Y041699D01*
X043845Y042005D01*
Y042205D01*
X043718Y042511D01*
X043412Y042638D01*
D02*
G37*
G36*
X042412D02*
X042106Y042511D01*
X041979Y042205D01*
Y042005D01*
X042106Y041699D01*
X042412Y041572D01*
X042718Y041699D01*
X042845Y042005D01*
Y042205D01*
X042718Y042511D01*
X042412Y042638D01*
D02*
G37*
G36*
X041412D02*
X041106Y042511D01*
X040979Y042205D01*
Y042005D01*
X041106Y041699D01*
X041412Y041572D01*
X041718Y041699D01*
X041845Y042005D01*
Y042205D01*
X041718Y042511D01*
X041412Y042638D01*
D02*
G37*
G36*
X040412D02*
X040106Y042511D01*
X039979Y042205D01*
Y042005D01*
X040106Y041699D01*
X040412Y041572D01*
X040718Y041699D01*
X040845Y042005D01*
Y042205D01*
X040718Y042511D01*
X040412Y042638D01*
D02*
G37*
G36*
X039412D02*
X039106Y042511D01*
X038979Y042205D01*
Y042005D01*
X039106Y041699D01*
X039412Y041572D01*
X039718Y041699D01*
X039845Y042005D01*
Y042205D01*
X039718Y042511D01*
X039412Y042638D01*
D02*
G37*
G36*
X055823Y042697D02*
X055332D01*
X054985Y04235D01*
Y041859D01*
X055332Y041513D01*
X055823D01*
X05617Y041859D01*
Y04235D01*
X055823Y042697D01*
D02*
G37*
G36*
X026295D02*
X025805D01*
X025458Y04235D01*
Y041859D01*
X025805Y041513D01*
X026295D01*
X026642Y041859D01*
Y04235D01*
X026295Y042697D01*
D02*
G37*
G36*
X035086Y042168D02*
X0347D01*
Y041467D01*
X034807D01*
X035005Y041549D01*
X035086Y041746D01*
Y042168D01*
D02*
G37*
G36*
X0346D02*
X034214D01*
Y041746D01*
X034295Y041549D01*
X034493Y041467D01*
X0346D01*
Y042168D01*
D02*
G37*
G36*
X026061Y040784D02*
X025946D01*
Y040437D01*
X026293D01*
Y040552D01*
X026061Y040784D01*
D02*
G37*
G36*
X025846D02*
X025732D01*
X0255Y040552D01*
Y040437D01*
X025846D01*
Y040784D01*
D02*
G37*
G36*
X026293Y040337D02*
X025946D01*
Y039991D01*
X026061D01*
X026293Y040223D01*
Y040337D01*
D02*
G37*
G36*
X025846D02*
X0255D01*
Y040223D01*
X025732Y039991D01*
X025846D01*
Y040337D01*
D02*
G37*
G36*
X040395Y040858D02*
X039806D01*
Y03955D01*
X041153D01*
Y0401D01*
X040931Y040636D01*
X040395Y040858D01*
D02*
G37*
G36*
X039706D02*
X039116D01*
X03858Y040636D01*
X038358Y0401D01*
Y03955D01*
X039706D01*
Y040858D01*
D02*
G37*
G36*
X043982Y040448D02*
X043818D01*
X043702Y040332D01*
Y040168D01*
X043738Y040132D01*
Y039945D01*
X043485D01*
Y039155D01*
X044315D01*
Y039945D01*
X044062D01*
Y040132D01*
X044098Y040168D01*
Y040332D01*
X043982Y040448D01*
D02*
G37*
G36*
X045764Y039809D02*
X045314D01*
X045108Y039724D01*
X045023Y039518D01*
Y039498D01*
X044944Y039465D01*
X044735Y039256D01*
X044688Y039141D01*
Y037717D01*
X044735Y037602D01*
X044914Y037423D01*
X044885Y037353D01*
Y037147D01*
X044949Y036991D01*
X045105Y036927D01*
X045528D01*
X045684Y036991D01*
X045748Y037147D01*
Y037353D01*
X045684Y037509D01*
X045528Y037573D01*
X045209D01*
X045199Y037597D01*
X045012Y037784D01*
Y038077D01*
X045062Y038087D01*
X045108Y037976D01*
X045314Y037891D01*
X045489D01*
Y03835D01*
Y038809D01*
X045314D01*
X045108Y038724D01*
X045062Y038613D01*
X045012Y038623D01*
Y039032D01*
X045026Y039043D01*
X045087Y039028D01*
X045108Y038976D01*
X045314Y038891D01*
X045764D01*
X04597Y038976D01*
X046055Y039182D01*
Y039518D01*
X04597Y039724D01*
X045764Y039809D01*
D02*
G37*
G36*
Y038809D02*
X045589D01*
Y0384D01*
X046055D01*
Y038518D01*
X04597Y038724D01*
X045764Y038809D01*
D02*
G37*
G36*
X043843Y038607D02*
X043556D01*
Y03832D01*
X043843D01*
Y038607D01*
D02*
G37*
G36*
X043456D02*
X04317D01*
Y03832D01*
X043456D01*
Y038607D01*
D02*
G37*
G36*
X041153Y03945D02*
X039806D01*
Y038142D01*
X040395D01*
X040931Y038364D01*
X041153Y0389D01*
Y03945D01*
D02*
G37*
G36*
X039706D02*
X038358D01*
Y0389D01*
X03858Y038364D01*
X039116Y038142D01*
X039706D01*
Y03945D01*
D02*
G37*
G36*
X043843Y03822D02*
X043556D01*
Y037934D01*
X043843D01*
Y03822D01*
D02*
G37*
G36*
X043456D02*
X04317D01*
Y037934D01*
X043456D01*
Y03822D01*
D02*
G37*
G36*
X046055Y0383D02*
X045589D01*
Y037891D01*
X045764D01*
X04597Y037976D01*
X046055Y038182D01*
Y0383D01*
D02*
G37*
G36*
X042682Y037898D02*
X042518D01*
X042482Y037862D01*
X040768D01*
X040732Y037898D01*
X040568D01*
X040452Y037782D01*
Y037618D01*
X040568Y037502D01*
X040732D01*
X040768Y037538D01*
X042482D01*
X042518Y037502D01*
X042682D01*
X042798Y037618D01*
Y037782D01*
X042682Y037898D01*
D02*
G37*
G36*
X046495Y036806D02*
X046333D01*
Y036532D01*
X046715D01*
Y036586D01*
X046651Y036741D01*
X046495Y036806D01*
D02*
G37*
G36*
X046233D02*
X046072D01*
X045916Y036741D01*
X045852Y036586D01*
Y036532D01*
X046233D01*
Y036806D01*
D02*
G37*
G36*
X034807Y037185D02*
X0347D01*
Y036484D01*
X035086D01*
Y036906D01*
X035005Y037103D01*
X034807Y037185D01*
D02*
G37*
G36*
X0346D02*
X034493D01*
X034295Y037103D01*
X034214Y036906D01*
Y036484D01*
X0346D01*
Y037185D01*
D02*
G37*
G36*
X036962Y036723D02*
X0368D01*
Y03645D01*
X037182D01*
Y036503D01*
X037117Y036659D01*
X036962Y036723D01*
D02*
G37*
G36*
X0367D02*
X036538D01*
X036383Y036659D01*
X036318Y036503D01*
Y03645D01*
X0367D01*
Y036723D01*
D02*
G37*
G36*
X048788Y03651D02*
X048546D01*
Y036288D01*
X048595D01*
X048731Y036344D01*
X048788Y036481D01*
Y03651D01*
D02*
G37*
G36*
X046715Y036432D02*
X046333D01*
Y036159D01*
X046495D01*
X046651Y036223D01*
X046715Y036379D01*
Y036432D01*
D02*
G37*
G36*
X046233D02*
X045852D01*
Y036379D01*
X045916Y036223D01*
X046072Y036159D01*
X046233D01*
Y036432D01*
D02*
G37*
G36*
X037182Y03635D02*
X0368D01*
Y036077D01*
X036962D01*
X037117Y036141D01*
X037182Y036297D01*
Y03635D01*
D02*
G37*
G36*
X0367D02*
X036318D01*
Y036297D01*
X036383Y036141D01*
X036538Y036077D01*
X0367D01*
Y03635D01*
D02*
G37*
G36*
X046366Y035982D02*
X046333D01*
Y035833D01*
X046482D01*
Y035866D01*
X046366Y035982D01*
D02*
G37*
G36*
X046233D02*
X046201D01*
X046085Y035866D01*
Y035833D01*
X046233D01*
Y035982D01*
D02*
G37*
G36*
X035086Y036384D02*
X0347D01*
Y035683D01*
X034807D01*
X035005Y035764D01*
X035086Y035961D01*
Y036384D01*
D02*
G37*
G36*
X0346D02*
X034214D01*
Y035961D01*
X034295Y035764D01*
X034493Y035683D01*
X0346D01*
Y036384D01*
D02*
G37*
G36*
X045528Y036806D02*
X045105D01*
X044949Y036741D01*
X044885Y036586D01*
Y036379D01*
X044949Y036223D01*
X045105Y036159D01*
X045138D01*
Y035918D01*
X045102Y035882D01*
Y035718D01*
X045218Y035602D01*
X045382D01*
X045498Y035718D01*
Y035882D01*
X045462Y035918D01*
Y036159D01*
X045528D01*
X045684Y036223D01*
X045748Y036379D01*
Y036586D01*
X045684Y036741D01*
X045528Y036806D01*
D02*
G37*
G36*
X046482Y035733D02*
X046333D01*
Y035585D01*
X046366D01*
X046482Y035701D01*
Y035733D01*
D02*
G37*
G36*
X046233D02*
X046085D01*
Y035701D01*
X046201Y035585D01*
X046233D01*
Y035733D01*
D02*
G37*
%LPD*%
D16*
X02465Y0203D02*
X05685D01*
X02465Y04355D02*
X05685D01*
Y0203D02*
Y04355D01*
X02465Y0203D02*
Y04355D01*
X0489Y02195D02*
X0539D01*
X043263D02*
X0489D01*
X038263D02*
X043263D01*
X0324D02*
X038263D01*
X0274D02*
X0324D01*
X055188Y023238D02*
X055788D01*
X0539Y02195D02*
X055188Y023238D01*
X055788D02*
X05585Y0233D01*
X046283Y035783D02*
Y036482D01*
X044567Y027116D02*
X045216D01*
X04165Y027884D02*
Y02835D01*
Y028816D01*
X04215Y0305D02*
Y0312D01*
X04265Y0305D02*
Y0312D01*
X04065Y0305D02*
Y0312D01*
X0391Y03325D02*
X0426D01*
X04365Y0305D02*
Y0312D01*
X04485Y037717D02*
Y039141D01*
X045059Y03935D02*
X045539D01*
X04485Y039141D02*
X045059Y03935D01*
X043263Y02195D02*
X044567Y023254D01*
Y027116D01*
X04065Y0377D02*
X0426D01*
X04215Y034822D02*
Y03585D01*
X04315Y034822D02*
Y0358D01*
X04165Y034822D02*
Y03585D01*
X041Y0366D02*
X04215D01*
X04315Y0305D02*
Y0312D01*
X0439Y03955D02*
Y04025D01*
X04065Y03625D02*
X041Y0366D01*
X04065Y034822D02*
Y03625D01*
X04115Y034822D02*
Y03585D01*
X03965Y034822D02*
Y03585D01*
X0453Y0358D02*
Y036466D01*
X04435Y03525D02*
Y036482D01*
X0453Y036466D02*
X045317Y036482D01*
X050616Y037933D02*
X0509Y037648D01*
X049833Y037933D02*
X050616D01*
X0509Y03495D02*
Y037648D01*
X04015Y034822D02*
Y03585D01*
X047832Y036482D02*
X0483Y03695D01*
X04725Y036482D02*
X047832D01*
X0483Y03695D02*
X0488D01*
X04965Y03775D02*
X049833Y037933D01*
X04965Y037182D02*
Y03775D01*
X049524Y037032D02*
X049531Y037039D01*
Y037063D01*
X0495Y037032D02*
X049524D01*
X049531Y037063D02*
X04965Y037182D01*
X0488Y03695D02*
X049161Y037311D01*
Y03835D01*
X049402Y036934D02*
X0495Y037032D01*
X048455Y037267D02*
X048496Y037308D01*
X047267Y037267D02*
X048455D01*
X04725Y03725D02*
X047267Y037267D01*
X046283Y03725D02*
X04725D01*
X045085Y037403D02*
X045237Y03725D01*
X04485Y037717D02*
X045085Y037482D01*
X045237Y03725D02*
X045317D01*
X045085Y037403D02*
Y037482D01*
X044567Y02835D02*
Y028816D01*
Y027884D02*
Y02835D01*
X043594D02*
Y028816D01*
Y027884D02*
Y02835D01*
X042619D02*
Y028813D01*
Y027887D02*
Y02835D01*
Y028813D02*
X042622Y028816D01*
X042617Y027884D02*
X042619Y027887D01*
X043594Y027116D02*
X044567D01*
X042617D02*
X043594D01*
X04165D02*
X042617D01*
X038263Y02395D02*
X043263D01*
X0489D02*
X0539D01*
X0274D02*
X0324D01*
X0582Y04355D02*
X0584Y04295D01*
X058D02*
X0582Y04355D01*
X058Y0209D02*
X0582Y0203D01*
X0584Y0209D01*
X0582Y033874D02*
Y04355D01*
Y0203D02*
Y029656D01*
X0581Y04355D02*
X0583D01*
X05805Y0203D02*
X0583D01*
X0246Y04485D02*
X0252Y04505D01*
X0246Y04485D02*
X0252Y04465D01*
X0563D02*
X0569Y04485D01*
X0563Y04505D02*
X0569Y04485D01*
X0246D02*
X038481D01*
X042699D02*
X0569D01*
X0246Y04415D02*
Y04495D01*
X0569Y0438D02*
Y04495D01*
D21*
X03915Y0312D02*
D03*
X03965D02*
D03*
X04015D02*
D03*
X04065D02*
D03*
X04115D02*
D03*
X04165D02*
D03*
X04215D02*
D03*
X04265D02*
D03*
X04315D02*
D03*
X04365D02*
D03*
X03915Y034822D02*
D03*
X03965D02*
D03*
X04015D02*
D03*
X04065D02*
D03*
X04115D02*
D03*
X04165D02*
D03*
X04215D02*
D03*
X04265D02*
D03*
X04315D02*
D03*
X04365D02*
D03*
D22*
X042617Y027116D02*
D03*
Y027884D02*
D03*
X044567Y027116D02*
D03*
Y027884D02*
D03*
X043594Y027116D02*
D03*
Y027884D02*
D03*
X042622Y029584D02*
D03*
Y028816D02*
D03*
X044567Y029584D02*
D03*
Y028816D02*
D03*
X043594Y029584D02*
D03*
Y028816D02*
D03*
X04165Y029584D02*
D03*
Y028816D02*
D03*
X045317Y03725D02*
D03*
Y036482D02*
D03*
X046283D02*
D03*
Y03725D02*
D03*
X04725Y036482D02*
D03*
Y03725D02*
D03*
X04435Y036482D02*
D03*
Y03725D02*
D03*
X04165Y027116D02*
D03*
Y027884D02*
D03*
X03675Y0364D02*
D03*
Y037168D02*
D03*
D23*
X039756Y0395D02*
D03*
D24*
X037098Y038602D02*
D03*
Y040398D02*
D03*
D25*
X049161Y03835D02*
D03*
Y03935D02*
D03*
X045539Y03835D02*
D03*
Y03935D02*
D03*
D26*
X049402Y036934D02*
D03*
D27*
X048496Y037308D02*
D03*
Y03656D02*
D03*
D28*
X05055Y037933D02*
D03*
Y03935D02*
D03*
D29*
X043506Y03827D02*
D03*
X044294D02*
D03*
D30*
X0439Y03955D02*
D03*
D31*
X03465Y038402D02*
D03*
Y036434D02*
D03*
Y04025D02*
D03*
Y042218D02*
D03*
D56*
X036791Y037209D02*
X044209D01*
X043254Y037204D02*
X04365Y036809D01*
X049161Y03935D02*
Y040039D01*
X05055Y03935D02*
X05475D01*
X0481Y0411D02*
X049161Y040039D01*
X049104Y03935D02*
X05055D01*
X0375Y0411D02*
X0481D01*
X037093Y040693D02*
X0375Y0411D01*
X037093Y040398D02*
Y040693D01*
Y040398D02*
X037098D01*
X034523D02*
X037093D01*
X034513Y040387D02*
X034523Y040398D01*
X036965Y038602D02*
X037098D01*
X03675Y038388D02*
X036965Y038602D01*
X03675Y037168D02*
Y038388D01*
X044209Y037209D02*
X04435Y03735D01*
X034798Y03855D02*
X037046D01*
X03465Y038402D02*
X034798Y03855D01*
X037046D02*
X037098Y038602D01*
X03675Y037168D02*
X036791Y037209D01*
X0557Y03495D02*
Y0384D01*
X05475Y03935D02*
X0557Y0384D01*
X044567Y029584D02*
Y034383D01*
X044128Y034822D02*
X044567Y034383D01*
X04365Y034822D02*
X044128D01*
X04365D02*
Y036809D01*
X04435Y03735D02*
Y038214D01*
X044294Y03827D02*
X04435Y038214D01*
X043594Y029584D02*
X044567D01*
X042622D02*
X043594D01*
X04165D02*
X042622D01*
X031959Y040387D02*
X034513D01*
D57*
X0533Y0281D02*
X054Y0274D01*
X0533Y0281D02*
Y03595D01*
X0509Y0274D02*
Y03015D01*
X029912Y028813D02*
X0303Y028425D01*
Y02645D02*
Y028425D01*
X02755Y02645D02*
Y028419D01*
X027944Y028813D01*
D58*
X05796Y030215D02*
Y029816D01*
X05826D01*
X05816Y030016D01*
Y030116D01*
X05826Y030215D01*
X05846D01*
X05856Y030116D01*
Y029916D01*
X05846Y029816D01*
Y030415D02*
X05856Y030515D01*
Y030715D01*
X05846Y030815D01*
X05806D01*
X05796Y030715D01*
Y030515D01*
X05806Y030415D01*
X05816D01*
X05826Y030515D01*
Y030815D01*
X05856Y031015D02*
X05846D01*
Y031115D01*
X05856D01*
Y031015D01*
X05806Y031515D02*
X05796Y031615D01*
Y031815D01*
X05806Y031915D01*
X05846D01*
X05856Y031815D01*
Y031615D01*
X05846Y031515D01*
X05806D01*
X05796Y032515D02*
X05806Y032315D01*
X05826Y032115D01*
X05846D01*
X05856Y032215D01*
Y032415D01*
X05846Y032515D01*
X05836D01*
X05826Y032415D01*
Y032115D01*
X05856Y032715D02*
X05816D01*
Y032815D01*
X05826Y032915D01*
X05856D01*
X05826D01*
X05816Y033015D01*
X05826Y033115D01*
X05856D01*
Y033314D02*
X05816D01*
Y033414D01*
X05826Y033514D01*
X05856D01*
X05826D01*
X05816Y033614D01*
X05826Y033714D01*
X05856D01*
X038641Y04499D02*
X038741Y04509D01*
X038941D01*
X039041Y04499D01*
Y04489D01*
X038941Y04479D01*
X039041Y04469D01*
Y04459D01*
X038941Y04449D01*
X038741D01*
X038641Y04459D01*
Y04469D01*
X038741Y04479D01*
X038641Y04489D01*
Y04499D01*
X038741Y04479D02*
X038941D01*
X03964Y04449D02*
X03924D01*
X03964Y04489D01*
Y04499D01*
X03954Y04509D01*
X03934D01*
X03924Y04499D01*
X03984Y04449D02*
Y04459D01*
X03994D01*
Y04449D01*
X03984D01*
X04034Y04499D02*
X04044Y04509D01*
X04064D01*
X04074Y04499D01*
Y04459D01*
X04064Y04449D01*
X04044D01*
X04034Y04459D01*
Y04499D01*
X04124Y04449D02*
Y04509D01*
X04094Y04479D01*
X04134D01*
X04154Y04449D02*
Y04489D01*
X04164D01*
X04174Y04479D01*
Y04449D01*
Y04479D01*
X04184Y04489D01*
X04194Y04479D01*
Y04449D01*
X04214D02*
Y04489D01*
X042239D01*
X042339Y04479D01*
Y04449D01*
Y04479D01*
X042439Y04489D01*
X042539Y04479D01*
Y04449D01*
D59*
X05585Y0233D02*
D03*
D60*
Y0243D02*
D03*
D61*
X02555Y02645D02*
D03*
X0303D02*
D03*
X054Y0274D02*
D03*
X0489D02*
D03*
D62*
X02755Y02645D02*
D03*
X0323D02*
D03*
X056Y0274D02*
D03*
X0509D02*
D03*
D63*
X027944Y028813D02*
D03*
D64*
X029912D02*
D03*
X025896Y040387D02*
D03*
X031959D02*
D03*
D65*
X055578Y042105D02*
D03*
X02605D02*
D03*
X055554Y02145D02*
D03*
X026026D02*
D03*
D66*
X038412Y042105D02*
D03*
X039412D02*
D03*
X040412D02*
D03*
X041412D02*
D03*
X042412D02*
D03*
X043412D02*
D03*
X044412D02*
D03*
X045412D02*
D03*
X046412D02*
D03*
X047412D02*
D03*
X048412D02*
D03*
X049412D02*
D03*
X050412D02*
D03*
X051412D02*
D03*
X052412D02*
D03*
D67*
X053412D02*
D03*
D68*
X038263Y02195D02*
D03*
X0489D02*
D03*
X0324D02*
D03*
X043263D02*
D03*
X0539D02*
D03*
X0274D02*
D03*
X0324Y02395D02*
D03*
X0274D02*
D03*
X043263D02*
D03*
X038263D02*
D03*
X0539D02*
D03*
X0489D02*
D03*
D69*
X0557Y03495D02*
D03*
X0509Y03015D02*
D03*
X0533Y03595D02*
D03*
X0509Y03495D02*
D03*
D70*
X046283Y035783D02*
D03*
X045216Y027116D02*
D03*
X04165Y02835D02*
D03*
X04065Y0305D02*
D03*
X04215D02*
D03*
X04265D02*
D03*
X0426Y03325D02*
D03*
X04365Y0305D02*
D03*
X0391Y03325D02*
D03*
X04325Y0372D02*
D03*
X0426Y0377D02*
D03*
X04065D02*
D03*
X04215Y03585D02*
D03*
X04315Y0358D02*
D03*
X04165Y03585D02*
D03*
X04215Y0366D02*
D03*
X04315Y0305D02*
D03*
X0439Y04025D02*
D03*
X04115Y03585D02*
D03*
X03965D02*
D03*
X0453Y0358D02*
D03*
X04435Y03525D02*
D03*
X04015Y03585D02*
D03*
X044567Y02835D02*
D03*
X043594D02*
D03*
X042619D02*
D03*
M02*
