G04*
G04 #@! TF.GenerationSoftware,Altium Limited,Altium Designer,21.3.2 (30)*
G04*
G04 Layer_Color=16711935*
%FSTAX24Y24*%
%MOIN*%
G70*
G04*
G04 #@! TF.SameCoordinates,B3B2999D-E210-4126-8252-5E02B47327B5*
G04*
G04*
G04 #@! TF.FilePolarity,Negative*
G04*
G01*
G75*
%ADD43C,0.0671*%
G04:AMPARAMS|DCode=44|XSize=67.1mil|YSize=67.1mil|CornerRadius=18.8mil|HoleSize=0mil|Usage=FLASHONLY|Rotation=270.000|XOffset=0mil|YOffset=0mil|HoleType=Round|Shape=RoundedRectangle|*
%AMROUNDEDRECTD44*
21,1,0.0671,0.0295,0,0,270.0*
21,1,0.0295,0.0671,0,0,270.0*
1,1,0.0375,-0.0148,-0.0148*
1,1,0.0375,-0.0148,0.0148*
1,1,0.0375,0.0148,0.0148*
1,1,0.0375,0.0148,-0.0148*
%
%ADD44ROUNDEDRECTD44*%
%ADD45C,0.0828*%
%ADD46R,0.0828X0.0828*%
%ADD47R,0.0674X0.0674*%
%ADD48C,0.0674*%
%ADD49C,0.1064*%
%ADD50O,0.0680X0.0880*%
%ADD51R,0.0680X0.0880*%
%ADD52C,0.0980*%
%ADD53C,0.1280*%
%ADD54C,0.0080*%
%ADD55C,0.0277*%
D43*
X05585Y0233D02*
D03*
D44*
Y0243D02*
D03*
D45*
X02555Y02645D02*
D03*
X0303D02*
D03*
X054Y0274D02*
D03*
X0489D02*
D03*
D46*
X02755Y02645D02*
D03*
X0323D02*
D03*
X056Y0274D02*
D03*
X0509D02*
D03*
D47*
X027944Y028813D02*
D03*
D48*
X029912D02*
D03*
X025896Y040387D02*
D03*
X031959D02*
D03*
D49*
X055578Y042105D02*
D03*
X02605D02*
D03*
X055554Y02145D02*
D03*
X026026D02*
D03*
D50*
X038412Y042105D02*
D03*
X039412D02*
D03*
X040412D02*
D03*
X041412D02*
D03*
X042412D02*
D03*
X043412D02*
D03*
X044412D02*
D03*
X045412D02*
D03*
X046412D02*
D03*
X047412D02*
D03*
X048412D02*
D03*
X049412D02*
D03*
X050412D02*
D03*
X051412D02*
D03*
X052412D02*
D03*
D51*
X053412D02*
D03*
D52*
X038263Y02195D02*
D03*
X0489D02*
D03*
X0324D02*
D03*
X043263D02*
D03*
X0539D02*
D03*
X0274D02*
D03*
X0324Y02395D02*
D03*
X0274D02*
D03*
X043263D02*
D03*
X038263D02*
D03*
X0539D02*
D03*
X0489D02*
D03*
D53*
X0557Y03495D02*
D03*
X0509Y03015D02*
D03*
X0533Y03595D02*
D03*
X0509Y03495D02*
D03*
D54*
X0557Y03015D02*
D03*
D55*
X046283Y035783D02*
D03*
X045216Y027116D02*
D03*
X04165Y02835D02*
D03*
X04065Y0305D02*
D03*
X04215D02*
D03*
X04265D02*
D03*
X0426Y03325D02*
D03*
X04365Y0305D02*
D03*
X0391Y03325D02*
D03*
X04325Y0372D02*
D03*
X0426Y0377D02*
D03*
X04065D02*
D03*
X04215Y03585D02*
D03*
X04315Y0358D02*
D03*
X04165Y03585D02*
D03*
X04215Y0366D02*
D03*
X04315Y0305D02*
D03*
X0439Y04025D02*
D03*
X04115Y03585D02*
D03*
X03965D02*
D03*
X0453Y0358D02*
D03*
X04435Y03525D02*
D03*
X04015Y03585D02*
D03*
X044567Y02835D02*
D03*
X043594D02*
D03*
X042619D02*
D03*
M02*
