G04*
G04 #@! TF.GenerationSoftware,Altium Limited,Altium Designer,21.3.2 (30)*
G04*
G04 Layer_Color=2752767*
%FSTAX24Y24*%
%MOIN*%
G70*
G04*
G04 #@! TF.SameCoordinates,B3B2999D-E210-4126-8252-5E02B47327B5*
G04*
G04*
G04 #@! TF.FilePolarity,Positive*
G04*
G01*
G75*
%ADD73C,0.0020*%
%ADD74C,0.0027*%
D73*
X05577Y02322D02*
Y02338D01*
X05593D01*
Y02322D01*
X05577D01*
Y02422D02*
Y02438D01*
X05593D01*
Y02422D01*
X05577D01*
X027944Y028733D02*
X027864Y028893D01*
X028024D01*
X027944Y028733D01*
X029912D02*
X029832Y028893D01*
X029992D01*
X029912Y028733D01*
X025896Y040307D02*
X025816Y040467D01*
X025976D01*
X025896Y040307D01*
X031959D02*
X031879Y040467D01*
X032039D01*
X031959Y040307D01*
X055578Y042025D02*
X055618Y042065D01*
X055658D01*
X055618Y042105D01*
X055658Y042145D01*
X055618D01*
X055578Y042185D01*
X055538Y042145D01*
X055498D01*
X055538Y042105D01*
X055498Y042065D01*
X055538D01*
X055578Y042025D01*
X02605D02*
X02609Y042065D01*
X02613D01*
X02609Y042105D01*
X02613Y042145D01*
X02609D01*
X02605Y042185D01*
X02601Y042145D01*
X02597D01*
X02601Y042105D01*
X02597Y042065D01*
X02601D01*
X02605Y042025D01*
X038332D02*
X038372Y042105D01*
X038332Y042185D01*
X038412Y042145D01*
X038492Y042185D01*
X038452Y042105D01*
X038492Y042025D01*
X038412Y042065D01*
X038332Y042025D01*
X039332D02*
X039372Y042105D01*
X039332Y042185D01*
X039412Y042145D01*
X039492Y042185D01*
X039452Y042105D01*
X039492Y042025D01*
X039412Y042065D01*
X039332Y042025D01*
X040332D02*
X040372Y042105D01*
X040332Y042185D01*
X040412Y042145D01*
X040492Y042185D01*
X040452Y042105D01*
X040492Y042025D01*
X040412Y042065D01*
X040332Y042025D01*
X041332D02*
X041372Y042105D01*
X041332Y042185D01*
X041412Y042145D01*
X041492Y042185D01*
X041452Y042105D01*
X041492Y042025D01*
X041412Y042065D01*
X041332Y042025D01*
X042332D02*
X042372Y042105D01*
X042332Y042185D01*
X042412Y042145D01*
X042492Y042185D01*
X042452Y042105D01*
X042492Y042025D01*
X042412Y042065D01*
X042332Y042025D01*
X043332D02*
X043372Y042105D01*
X043332Y042185D01*
X043412Y042145D01*
X043492Y042185D01*
X043452Y042105D01*
X043492Y042025D01*
X043412Y042065D01*
X043332Y042025D01*
X044332D02*
X044372Y042105D01*
X044332Y042185D01*
X044412Y042145D01*
X044492Y042185D01*
X044452Y042105D01*
X044492Y042025D01*
X044412Y042065D01*
X044332Y042025D01*
X045332D02*
X045372Y042105D01*
X045332Y042185D01*
X045412Y042145D01*
X045492Y042185D01*
X045452Y042105D01*
X045492Y042025D01*
X045412Y042065D01*
X045332Y042025D01*
X046332D02*
X046372Y042105D01*
X046332Y042185D01*
X046412Y042145D01*
X046492Y042185D01*
X046452Y042105D01*
X046492Y042025D01*
X046412Y042065D01*
X046332Y042025D01*
X047332D02*
X047372Y042105D01*
X047332Y042185D01*
X047412Y042145D01*
X047492Y042185D01*
X047452Y042105D01*
X047492Y042025D01*
X047412Y042065D01*
X047332Y042025D01*
X048332D02*
X048372Y042105D01*
X048332Y042185D01*
X048412Y042145D01*
X048492Y042185D01*
X048452Y042105D01*
X048492Y042025D01*
X048412Y042065D01*
X048332Y042025D01*
X049332D02*
X049372Y042105D01*
X049332Y042185D01*
X049412Y042145D01*
X049492Y042185D01*
X049452Y042105D01*
X049492Y042025D01*
X049412Y042065D01*
X049332Y042025D01*
X050332D02*
X050372Y042105D01*
X050332Y042185D01*
X050412Y042145D01*
X050492Y042185D01*
X050452Y042105D01*
X050492Y042025D01*
X050412Y042065D01*
X050332Y042025D01*
X051332D02*
X051372Y042105D01*
X051332Y042185D01*
X051412Y042145D01*
X051492Y042185D01*
X051452Y042105D01*
X051492Y042025D01*
X051412Y042065D01*
X051332Y042025D01*
X052332D02*
X052372Y042105D01*
X052332Y042185D01*
X052412Y042145D01*
X052492Y042185D01*
X052452Y042105D01*
X052492Y042025D01*
X052412Y042065D01*
X052332Y042025D01*
X053332D02*
X053372Y042105D01*
X053332Y042185D01*
X053412Y042145D01*
X053492Y042185D01*
X053452Y042105D01*
X053492Y042025D01*
X053412Y042065D01*
X053332Y042025D01*
X038223Y02191D02*
Y02187D01*
X038303D01*
Y02191D01*
X038343D01*
Y02199D01*
X038303D01*
Y02203D01*
X038223D01*
Y02199D01*
X038183D01*
Y02191D01*
X038223D01*
X04886D02*
Y02187D01*
X04894D01*
Y02191D01*
X04898D01*
Y02199D01*
X04894D01*
Y02203D01*
X04886D01*
Y02199D01*
X04882D01*
Y02191D01*
X04886D01*
X03236D02*
Y02187D01*
X03244D01*
Y02191D01*
X03248D01*
Y02199D01*
X03244D01*
Y02203D01*
X03236D01*
Y02199D01*
X03232D01*
Y02191D01*
X03236D01*
X043223D02*
Y02187D01*
X043303D01*
Y02191D01*
X043343D01*
Y02199D01*
X043303D01*
Y02203D01*
X043223D01*
Y02199D01*
X043183D01*
Y02191D01*
X043223D01*
X05386D02*
Y02187D01*
X05394D01*
Y02191D01*
X05398D01*
Y02199D01*
X05394D01*
Y02203D01*
X05386D01*
Y02199D01*
X05382D01*
Y02191D01*
X05386D01*
X02736D02*
Y02187D01*
X02744D01*
Y02191D01*
X02748D01*
Y02199D01*
X02744D01*
Y02203D01*
X02736D01*
Y02199D01*
X02732D01*
Y02191D01*
X02736D01*
X03236Y02391D02*
Y02387D01*
X03244D01*
Y02391D01*
X03248D01*
Y02399D01*
X03244D01*
Y02403D01*
X03236D01*
Y02399D01*
X03232D01*
Y02391D01*
X03236D01*
X02736D02*
Y02387D01*
X02744D01*
Y02391D01*
X02748D01*
Y02399D01*
X02744D01*
Y02403D01*
X02736D01*
Y02399D01*
X02732D01*
Y02391D01*
X02736D01*
X043223D02*
Y02387D01*
X043303D01*
Y02391D01*
X043343D01*
Y02399D01*
X043303D01*
Y02403D01*
X043223D01*
Y02399D01*
X043183D01*
Y02391D01*
X043223D01*
X038223D02*
Y02387D01*
X038303D01*
Y02391D01*
X038343D01*
Y02399D01*
X038303D01*
Y02403D01*
X038223D01*
Y02399D01*
X038183D01*
Y02391D01*
X038223D01*
X05386D02*
Y02387D01*
X05394D01*
Y02391D01*
X05398D01*
Y02399D01*
X05394D01*
Y02403D01*
X05386D01*
Y02399D01*
X05382D01*
Y02391D01*
X05386D01*
X04886D02*
Y02387D01*
X04894D01*
Y02391D01*
X04898D01*
Y02399D01*
X04894D01*
Y02403D01*
X04886D01*
Y02399D01*
X04882D01*
Y02391D01*
X04886D01*
X05562Y03487D02*
X05566D01*
X0557Y03491D01*
X05574Y03487D01*
X05578D01*
Y03491D01*
X05574Y03495D01*
X05578Y03499D01*
Y03503D01*
X05574D01*
X0557Y03499D01*
X05566Y03503D01*
X05562D01*
Y03499D01*
X05566Y03495D01*
X05562Y03491D01*
Y03487D01*
X05082Y03007D02*
X05086D01*
X0509Y03011D01*
X05094Y03007D01*
X05098D01*
Y03011D01*
X05094Y03015D01*
X05098Y03019D01*
Y03023D01*
X05094D01*
X0509Y03019D01*
X05086Y03023D01*
X05082D01*
Y03019D01*
X05086Y03015D01*
X05082Y03011D01*
Y03007D01*
X05322Y03587D02*
X05326D01*
X0533Y03591D01*
X05334Y03587D01*
X05338D01*
Y03591D01*
X05334Y03595D01*
X05338Y03599D01*
Y03603D01*
X05334D01*
X0533Y03599D01*
X05326Y03603D01*
X05322D01*
Y03599D01*
X05326Y03595D01*
X05322Y03591D01*
Y03587D01*
X05082Y03487D02*
X05086D01*
X0509Y03491D01*
X05094Y03487D01*
X05098D01*
Y03491D01*
X05094Y03495D01*
X05098Y03499D01*
Y03503D01*
X05094D01*
X0509Y03499D01*
X05086Y03503D01*
X05082D01*
Y03499D01*
X05086Y03495D01*
X05082Y03491D01*
Y03487D01*
X055554Y02137D02*
X055594Y02141D01*
X055634D01*
X055594Y02145D01*
X055634Y02149D01*
X055594D01*
X055554Y02153D01*
X055514Y02149D01*
X055474D01*
X055514Y02145D01*
X055474Y02141D01*
X055514D01*
X055554Y02137D01*
X026026D02*
X026066Y02141D01*
X026106D01*
X026066Y02145D01*
X026106Y02149D01*
X026066D01*
X026026Y02153D01*
X025986Y02149D01*
X025946D01*
X025986Y02145D01*
X025946Y02141D01*
X025986D01*
X026026Y02137D01*
X046203Y035783D02*
X046283Y035863D01*
X046363Y035783D01*
X046283Y035703D01*
X046203Y035783D01*
X045136Y027116D02*
X045216Y027196D01*
X045296Y027116D01*
X045216Y027036D01*
X045136Y027116D01*
X04157Y02835D02*
X04165Y02843D01*
X04173Y02835D01*
X04165Y02827D01*
X04157Y02835D01*
X04057Y0305D02*
X04065Y03058D01*
X04073Y0305D01*
X04065Y03042D01*
X04057Y0305D01*
X04207D02*
X04215Y03058D01*
X04223Y0305D01*
X04215Y03042D01*
X04207Y0305D01*
X04257D02*
X04265Y03058D01*
X04273Y0305D01*
X04265Y03042D01*
X04257Y0305D01*
X04252Y03325D02*
X0426Y03333D01*
X04268Y03325D01*
X0426Y03317D01*
X04252Y03325D01*
X04357Y0305D02*
X04365Y03058D01*
X04373Y0305D01*
X04365Y03042D01*
X04357Y0305D01*
X03902Y03325D02*
X0391Y03333D01*
X03918Y03325D01*
X0391Y03317D01*
X03902Y03325D01*
X04317Y0372D02*
X04325Y03728D01*
X04333Y0372D01*
X04325Y03712D01*
X04317Y0372D01*
X04252Y0377D02*
X0426Y03778D01*
X04268Y0377D01*
X0426Y03762D01*
X04252Y0377D01*
X04057D02*
X04065Y03778D01*
X04073Y0377D01*
X04065Y03762D01*
X04057Y0377D01*
X04207Y03585D02*
X04215Y03593D01*
X04223Y03585D01*
X04215Y03577D01*
X04207Y03585D01*
X04307Y0358D02*
X04315Y03588D01*
X04323Y0358D01*
X04315Y03572D01*
X04307Y0358D01*
X04157Y03585D02*
X04165Y03593D01*
X04173Y03585D01*
X04165Y03577D01*
X04157Y03585D01*
X04207Y0366D02*
X04215Y03668D01*
X04223Y0366D01*
X04215Y03652D01*
X04207Y0366D01*
X04307Y0305D02*
X04315Y03058D01*
X04323Y0305D01*
X04315Y03042D01*
X04307Y0305D01*
X04382Y04025D02*
X0439Y04033D01*
X04398Y04025D01*
X0439Y04017D01*
X04382Y04025D01*
X04107Y03585D02*
X04115Y03593D01*
X04123Y03585D01*
X04115Y03577D01*
X04107Y03585D01*
X03957D02*
X03965Y03593D01*
X03973Y03585D01*
X03965Y03577D01*
X03957Y03585D01*
X04522Y0358D02*
X0453Y03588D01*
X04538Y0358D01*
X0453Y03572D01*
X04522Y0358D01*
X04427Y03525D02*
X04435Y03533D01*
X04443Y03525D01*
X04435Y03517D01*
X04427Y03525D01*
X04007Y03585D02*
X04015Y03593D01*
X04023Y03585D01*
X04015Y03577D01*
X04007Y03585D01*
X044487Y02835D02*
X044567Y02843D01*
X044647Y02835D01*
X044567Y02827D01*
X044487Y02835D01*
X043514D02*
X043594Y02843D01*
X043674Y02835D01*
X043594Y02827D01*
X043514Y02835D01*
X042539D02*
X042619Y02843D01*
X042699Y02835D01*
X042619Y02827D01*
X042539Y02835D01*
D74*
X02563Y02645D02*
G03*
X02563Y02645I-00008J0D01*
G01*
X02763D02*
G03*
X02763Y02645I-00008J0D01*
G01*
X03038D02*
G03*
X03038Y02645I-00008J0D01*
G01*
X03238D02*
G03*
X03238Y02645I-00008J0D01*
G01*
X05408Y0274D02*
G03*
X05408Y0274I-00008J0D01*
G01*
X05608D02*
G03*
X05608Y0274I-00008J0D01*
G01*
X04898D02*
G03*
X04898Y0274I-00008J0D01*
G01*
X05098D02*
G03*
X05098Y0274I-00008J0D01*
G01*
M02*
