G04*
G04 #@! TF.GenerationSoftware,Altium Limited,Altium Designer,21.3.2 (30)*
G04*
G04 Layer_Color=16711935*
%FSTAX24Y24*%
%MOIN*%
G70*
G04*
G04 #@! TF.SameCoordinates,B3B2999D-E210-4126-8252-5E02B47327B5*
G04*
G04*
G04 #@! TF.FilePolarity,Positive*
G04*
G01*
G75*
%ADD11C,0.0079*%
%ADD17C,0.0050*%
%ADD18C,0.0039*%
D11*
X027904Y027336D02*
G03*
X027904Y027336I-000039J0D01*
G01*
D17*
X032865Y027907D02*
Y041293D01*
X024991D02*
X032865D01*
X024991Y027907D02*
Y041293D01*
Y027907D02*
X032865D01*
D18*
X043762Y034133D02*
G03*
X043762Y034133I-000197J0D01*
G01*
X04441Y038487D02*
G03*
X044283Y039576I-00051J000492D01*
G01*
X044039D02*
G03*
X043761Y039576I-000139J-00014D01*
G01*
X044025Y038979D02*
G03*
X043775Y038979I-000125J0D01*
G01*
D02*
G03*
X044025Y038979I000125J0D01*
G01*
X043517Y039576D02*
G03*
X04339Y038487I000383J-000596D01*
G01*
X024991Y025844D02*
X028109D01*
X024991D02*
Y027056D01*
X028109D01*
Y025844D02*
Y027056D01*
X029741Y025844D02*
X032859D01*
X029741D02*
Y027056D01*
X032859D01*
Y025844D02*
Y027056D01*
X053441Y026794D02*
X056559D01*
X053441D02*
Y028006D01*
X056559D01*
Y026794D02*
Y028006D01*
X048341Y026794D02*
X051459D01*
X048341D02*
Y028006D01*
X051459D01*
Y026794D02*
Y028006D01*
X03888Y031535D02*
Y034487D01*
X04392Y031535D02*
Y034487D01*
X03888Y031535D02*
X04392D01*
X03888Y034487D02*
X04392D01*
X042331Y027067D02*
Y027933D01*
Y027067D02*
X042902D01*
X042331Y027933D02*
X042902D01*
Y027067D02*
Y027933D01*
X044281Y027067D02*
Y027933D01*
Y027067D02*
X044852D01*
X044281Y027933D02*
X044852D01*
Y027067D02*
Y027933D01*
X043309Y027067D02*
Y027933D01*
Y027067D02*
X04388D01*
X043309Y027933D02*
X04388D01*
Y027067D02*
Y027933D01*
X042888Y028787D02*
Y029613D01*
X042356Y028787D02*
Y029613D01*
X042888D01*
X042356Y028787D02*
X042888D01*
X044832D02*
Y029613D01*
X044301Y028787D02*
Y029613D01*
X044832D01*
X044301Y028787D02*
X044832D01*
X04386D02*
Y029613D01*
X043329Y028787D02*
Y029613D01*
X04386D01*
X043329Y028787D02*
X04386D01*
X041916D02*
Y029613D01*
X041384Y028787D02*
Y029613D01*
X041916D01*
X041384Y028787D02*
X041916D01*
X038043Y04078D02*
X040794D01*
X038043Y03822D02*
X040794D01*
Y04078D01*
X038043Y03822D02*
Y04078D01*
X045051Y03728D02*
X045582D01*
X045051Y036453D02*
X045582D01*
Y03728D01*
X045051Y036453D02*
Y03728D01*
X046018Y036453D02*
Y03728D01*
X046549Y036453D02*
Y03728D01*
X046018Y036453D02*
X046549D01*
X046018Y03728D02*
X046549D01*
X046984Y036453D02*
Y03728D01*
X047516Y036453D02*
Y03728D01*
X046984Y036453D02*
X047516D01*
X046984Y03728D02*
X047516D01*
X048673Y036344D02*
Y037525D01*
Y036344D02*
X049225D01*
X048673Y037525D02*
X049225D01*
Y036344D02*
Y037525D01*
X044084Y036453D02*
Y03728D01*
X044616Y036453D02*
Y03728D01*
X044084Y036453D02*
X044616D01*
X044084Y03728D02*
X044616D01*
X043309Y039688D02*
X043605D01*
X044195D02*
X044491D01*
X044609Y03957D01*
X044187Y039576D02*
Y039747D01*
X043548Y038349D02*
Y038487D01*
Y038349D02*
X044252D01*
X044039Y039576D02*
X044283D01*
X043735Y039688D02*
X044065D01*
X044609Y038192D02*
Y03957D01*
X044067Y039747D02*
X044187D01*
X043613Y039576D02*
Y039747D01*
X044067Y039688D02*
Y039747D01*
X043191Y03957D02*
X043309Y039688D01*
X044252Y038487D02*
X04441D01*
X044252Y038349D02*
Y038487D01*
X043613Y039747D02*
X043733D01*
Y039688D02*
Y039747D01*
X04339Y038487D02*
X043548D01*
X043517Y039576D02*
X043761D01*
X043191Y038192D02*
X044609D01*
X043191Y038192D02*
Y03957D01*
X041365Y027067D02*
Y027933D01*
Y027067D02*
X041935D01*
X041365Y027933D02*
X041935D01*
Y027067D02*
Y027933D01*
X036465Y036351D02*
Y037217D01*
Y036351D02*
X037035D01*
X036465Y037217D02*
X037035D01*
Y036351D02*
Y037217D01*
M02*
