M48
;Layer_Color=9474304
;FILE_FORMAT=2:4
INCH,LZ
;TYPE=PLATED
T1F00S00C0.0157
T2F00S00C0.0354
T3F00S00C0.0380
T4F00S00C0.0394
T5F00S00C0.0450
T6F00S00C0.0550
T7F00S00C0.0551
T8F00S00C0.0984
%
T01
X04165Y02835
X042619
X043594
X044567
X045216Y027116
X04365Y0305
X04315
X04265
X04215
X04065
X0391Y03325
X03965Y03585
X04015
X04115
X04165
X04215
Y0366
X0426Y0377
X04325Y0372
X04315Y0358
X04435Y03525
X0453Y0358
X046283Y035783
X0426Y03325
X04065Y0377
X0439Y04025
T02
X05585Y0233
Y0243
T03
X038412Y042105
X039412
X040412
X041412
X042412
X043412
X044412
X045412
X046412
X047412
X048412
X049412
X050412
X051412
X052412
X053412
T04
X027944Y028813
X029912
X025896Y040387
X031959
T05
X0509Y03015
Y03495
X0533Y03595
X0557Y03495
T06
X0489Y02195
Y02395
X0539
Y02195
X043263
Y02395
X038263
Y02195
X0324
Y02395
X0274
Y02195
T07
X0489Y0274
X0509
X054
X056
X0323Y02645
X0303
X02755
X02555
T08
X055554Y02145
X026026
X02605Y042105
X055578
M30
