G04*
G04 #@! TF.GenerationSoftware,Altium Limited,Altium Designer,21.3.2 (30)*
G04*
G04 Layer_Color=65535*
%FSTAX24Y24*%
%MOIN*%
G70*
G04*
G04 #@! TF.SameCoordinates,B3B2999D-E210-4126-8252-5E02B47327B5*
G04*
G04*
G04 #@! TF.FilePolarity,Positive*
G04*
G01*
G75*
%ADD10C,0.0197*%
%ADD11C,0.0079*%
%ADD12C,0.0236*%
%ADD13C,0.0098*%
%ADD14C,0.0200*%
%ADD15C,0.0070*%
%ADD16C,0.0100*%
%ADD17C,0.0050*%
%ADD18C,0.0039*%
%ADD19C,0.0080*%
%ADD20R,0.0670X0.0220*%
G36*
X056779Y023012D02*
X056741Y022996D01*
X056491D01*
X056452Y023012D01*
X056437Y02305D01*
Y02455D01*
X056452Y024588D01*
X056491Y024604D01*
X056741D01*
X056779Y024588D01*
X056795Y02455D01*
Y02305D01*
X056779Y023012D01*
D02*
G37*
D10*
X027648Y025489D02*
G03*
X027648Y025489I-000098J0D01*
G01*
X032398D02*
G03*
X032398Y025489I-000098J0D01*
G01*
X056098Y026439D02*
G03*
X056098Y026439I-000098J0D01*
G01*
X050998D02*
G03*
X050998Y026439I-000098J0D01*
G01*
D11*
X027904Y027336D02*
G03*
X027904Y027336I-000039J0D01*
G01*
X024991Y025844D02*
X028109D01*
X024991D02*
Y027056D01*
X028109D01*
Y025844D02*
Y027056D01*
X029741Y025844D02*
X032859D01*
X029741D02*
Y027056D01*
X032859D01*
Y025844D02*
Y027056D01*
X053441Y026794D02*
X056559D01*
X053441D02*
Y028006D01*
X056559D01*
Y026794D02*
Y028006D01*
X048341Y026794D02*
X051459D01*
X048341D02*
Y028006D01*
X051459D01*
Y026794D02*
Y028006D01*
X03888Y031761D02*
Y034261D01*
X04392Y031761D02*
Y034261D01*
X03888Y031761D02*
X04392D01*
X03888Y034261D02*
X04392D01*
X046498Y03976D02*
X048196D01*
X048202Y03793D02*
Y03976D01*
X046498Y03793D02*
Y03976D01*
Y03793D02*
X048202D01*
X048752Y037525D02*
X049225D01*
Y03721D02*
Y037525D01*
X048752Y036344D02*
X049225D01*
Y036658D01*
X0501Y037541D02*
X051D01*
Y039741D01*
X0501D02*
X051D01*
X0501Y037541D02*
Y039741D01*
X044609Y038664D02*
Y03957D01*
X044491Y039688D02*
X044609Y03957D01*
X044372Y039688D02*
X044491D01*
X043309Y039688D02*
X043428D01*
X043191Y03957D02*
X043309Y039688D01*
X043191Y038664D02*
Y03957D01*
D12*
X043644Y033867D02*
G03*
X043644Y033867I-000118J0D01*
G01*
D13*
X044034Y034822D02*
G03*
X044034Y034822I-000049J0D01*
G01*
X037147Y040801D02*
G03*
X037147Y040801I-000049J0D01*
G01*
X043556Y037818D02*
G03*
X043556Y037818I-000049J0D01*
G01*
D14*
X046916Y03943D02*
G03*
X046916Y03943I-0001J0D01*
G01*
D15*
X052628Y030608D02*
G03*
X052628Y030608I-000178J0D01*
G01*
X054138Y030598D02*
G03*
X054138Y030598I-000178J0D01*
G01*
X053478Y032708D02*
G03*
X053478Y032708I-000178J0D01*
G01*
X05271Y03466D02*
G03*
X05387Y03465I000585J000575D01*
G01*
X05329Y03291D02*
Y03524D01*
X05015Y02895D02*
X05645D01*
X05015Y03635D02*
X05645D01*
X05015Y02895D02*
Y03635D01*
X05645Y02895D02*
Y03635D01*
X05428Y03016D02*
X05504D01*
X05402Y03042D02*
X05428Y03016D01*
X05152D02*
X05218D01*
X05245Y03043D01*
X0533Y03108D02*
Y03251D01*
Y03108D02*
X05369Y03069D01*
X05157Y03467D02*
X0527D01*
X05388Y03466D02*
X05502D01*
D16*
X054511Y02232D02*
Y025284D01*
X056756Y022316D02*
Y025284D01*
X054511Y022316D02*
X056756D01*
X054511Y025284D02*
X056756D01*
X038043Y03822D02*
Y04078D01*
X038555D01*
X038043Y03822D02*
X038555D01*
X035093Y038747D02*
X035339D01*
X035093Y036089D02*
X035952D01*
Y038134D01*
X035339Y038747D02*
X035952Y038134D01*
X033961Y038747D02*
X034207D01*
X033348Y036089D02*
X034207D01*
X033348D02*
Y038134D01*
X033961Y038747D01*
X033961Y039906D02*
X034207D01*
X033348Y042563D02*
X034207D01*
X033348Y040519D02*
Y042563D01*
Y040519D02*
X033961Y039906D01*
X035093D02*
X035339D01*
X035093Y042563D02*
X035952D01*
Y040519D02*
Y042563D01*
X035339Y039906D02*
X035952Y040519D01*
X055Y02595D02*
X0549Y02605D01*
X0547D01*
X0546Y02595D01*
Y02585D01*
X0547Y02575D01*
X0549D01*
X055Y02565D01*
Y02555D01*
X0549Y02545D01*
X0547D01*
X0546Y02555D01*
X0553Y02595D02*
Y02585D01*
X0552D01*
X0554D01*
X0553D01*
Y02555D01*
X0554Y02545D01*
X0558Y02585D02*
X056D01*
X0561Y02575D01*
Y02545D01*
X0558D01*
X0557Y02555D01*
X0558Y02565D01*
X0561D01*
X0563Y02585D02*
Y02545D01*
Y02565D01*
X0564Y02575D01*
X0565Y02585D01*
X0566D01*
X057Y02595D02*
Y02585D01*
X0569D01*
X0571D01*
X057D01*
Y02555D01*
X0571Y02545D01*
X02505Y0272D02*
Y0276D01*
X02525Y0278D01*
X02545Y0276D01*
Y0272D01*
Y0275D01*
X02505D01*
X02605Y0277D02*
X02595Y0278D01*
X02575D01*
X02565Y0277D01*
Y0273D01*
X02575Y0272D01*
X02595D01*
X02605Y0273D01*
X02645Y0272D02*
X02625Y0274D01*
Y0276D01*
X02645Y0278D01*
X02675D02*
Y0272D01*
X02715D01*
X02735D02*
X02755Y0274D01*
Y0276D01*
X02735Y0278D01*
X0299Y0272D02*
Y0276D01*
X0301Y0278D01*
X0303Y0276D01*
Y0272D01*
Y0275D01*
X0299D01*
X0309Y0277D02*
X0308Y0278D01*
X0306D01*
X0305Y0277D01*
Y0273D01*
X0306Y0272D01*
X0308D01*
X0309Y0273D01*
X0313Y0272D02*
X0311Y0274D01*
Y0276D01*
X0313Y0278D01*
X0316Y0272D02*
Y0278D01*
X032Y0272D01*
Y0278D01*
X0322Y0272D02*
X0324Y0274D01*
Y0276D01*
X0322Y0278D01*
X0533Y028D02*
Y0286D01*
X0535Y0284D01*
X0537Y0286D01*
Y028D01*
X0542Y0286D02*
X054D01*
X0539Y0285D01*
Y0281D01*
X054Y028D01*
X0542D01*
X0543Y0281D01*
Y0285D01*
X0542Y0286D01*
X0545D02*
X0549D01*
X0547D01*
Y028D01*
X0554Y0286D02*
X0552D01*
X0551Y0285D01*
Y0281D01*
X0552Y028D01*
X0554D01*
X0555Y0281D01*
Y0285D01*
X0554Y0286D01*
X0557Y028D02*
Y0286D01*
X056D01*
X0561Y0285D01*
Y0283D01*
X056Y0282D01*
X0557D01*
X0559D02*
X0561Y028D01*
X048001Y02805D02*
Y02865D01*
X048201Y02845D01*
X048401Y02865D01*
Y02805D01*
X0489Y02865D02*
X0487D01*
X048601Y02855D01*
Y02815D01*
X0487Y02805D01*
X0489D01*
X049Y02815D01*
Y02855D01*
X0489Y02865D01*
X0492D02*
X0496D01*
X0494D01*
Y02805D01*
X0501Y02865D02*
X0499D01*
X0498Y02855D01*
Y02815D01*
X0499Y02805D01*
X0501D01*
X0502Y02815D01*
Y02855D01*
X0501Y02865D01*
X0504Y02805D02*
Y02865D01*
X0507D01*
X0508Y02855D01*
Y02835D01*
X0507Y02825D01*
X0504D01*
X0506D02*
X0508Y02805D01*
X0512D02*
X051Y02825D01*
Y02845D01*
X0512Y02865D01*
X0515Y02805D02*
Y02865D01*
X051899Y02805D01*
Y02865D01*
X052099Y02805D02*
X052299Y02825D01*
Y02845D01*
X052099Y02865D01*
X0383Y03615D02*
Y03565D01*
X0384Y03555D01*
X0386D01*
X0387Y03565D01*
Y03615D01*
X0389Y03555D02*
X0391D01*
X039D01*
Y03615D01*
X0389Y03605D01*
X04521Y0407D02*
Y0402D01*
X04531Y0401D01*
X04551D01*
X04561Y0402D01*
Y0407D01*
X04581Y0406D02*
X04591Y0407D01*
X04611D01*
X04621Y0406D01*
Y0405D01*
X04611Y0404D01*
X04601D01*
X04611D01*
X04621Y0403D01*
Y0402D01*
X04611Y0401D01*
X04591D01*
X04581Y0402D01*
X044567Y035316D02*
Y035916D01*
X044867D01*
X044967Y035816D01*
Y035616D01*
X044867Y035516D01*
X044567D01*
X044767D02*
X044967Y035316D01*
X045167Y035916D02*
X045567D01*
Y035816D01*
X045167Y035416D01*
Y035316D01*
X045842D02*
Y035916D01*
X046142D01*
X046242Y035816D01*
Y035616D01*
X046142Y035516D01*
X045842D01*
X046042D02*
X046242Y035316D01*
X046442Y035816D02*
X046542Y035916D01*
X046742D01*
X046841Y035816D01*
Y035716D01*
X046742Y035616D01*
X046841Y035516D01*
Y035416D01*
X046742Y035316D01*
X046542D01*
X046442Y035416D01*
Y035516D01*
X046542Y035616D01*
X046442Y035716D01*
Y035816D01*
X046542Y035616D02*
X046742D01*
X047117Y035316D02*
Y035916D01*
X047417D01*
X047517Y035816D01*
Y035616D01*
X047417Y035516D01*
X047117D01*
X047317D02*
X047517Y035316D01*
X048116D02*
X047717D01*
X048116Y035716D01*
Y035816D01*
X048017Y035916D01*
X047817D01*
X047717Y035816D01*
X04915Y0354D02*
Y0358D01*
X04905Y0359D01*
X04885D01*
X04875Y0358D01*
Y0354D01*
X04885Y0353D01*
X04905D01*
X04895Y0355D02*
X04915Y0353D01*
X04905D02*
X04915Y0354D01*
X04935Y0353D02*
X04955D01*
X04945D01*
Y0359D01*
X04935Y0358D01*
X05016Y04068D02*
Y04008D01*
X05046D01*
X05056Y04018D01*
Y04058D01*
X05046Y04068D01*
X05016D01*
X05076Y04008D02*
X05096D01*
X05086D01*
Y04068D01*
X05076Y04058D01*
X04275Y0369D02*
Y0375D01*
X04305D01*
X04315Y0374D01*
Y0372D01*
X04305Y0371D01*
X04275D01*
X04295D02*
X04315Y0369D01*
X04335D02*
X04355D01*
X04345D01*
Y0375D01*
X04335Y0374D01*
X04324Y04019D02*
Y04079D01*
X04354D01*
X04364Y04069D01*
Y04049D01*
X04354Y04039D01*
X04324D01*
X04344D02*
X04364Y04019D01*
X04384Y04079D02*
X04424D01*
X04404D01*
Y04019D01*
X03375Y0355D02*
X03365Y0356D01*
X03345D01*
X03335Y0355D01*
Y0351D01*
X03345Y035D01*
X03365D01*
X03375Y0351D01*
X03435Y035D02*
X03395D01*
X03435Y0354D01*
Y0355D01*
X03425Y0356D01*
X03405D01*
X03395Y0355D01*
X03685Y0426D02*
X03675Y0427D01*
X03655D01*
X03645Y0426D01*
Y0422D01*
X03655Y0421D01*
X03675D01*
X03685Y0422D01*
X03705Y0421D02*
X03725D01*
X03715D01*
Y0427D01*
X03705Y0426D01*
X05022Y03689D02*
Y03749D01*
X05052D01*
X05062Y03739D01*
Y03719D01*
X05052Y03709D01*
X05022D01*
X05042D02*
X05062Y03689D01*
X05082Y03749D02*
Y03689D01*
X05122D01*
D17*
X032865Y027907D02*
Y041293D01*
X024991D02*
X032865D01*
X024991Y027907D02*
Y041293D01*
Y027907D02*
X032865D01*
X042258Y028511D02*
X042986D01*
X042258Y029889D02*
X042986D01*
X042258Y028511D02*
Y029889D01*
X042986Y028511D02*
Y029889D01*
X044202Y028511D02*
X044931D01*
X044202Y029889D02*
X044931D01*
X044202Y028511D02*
Y029889D01*
X044931Y028511D02*
Y029889D01*
X04323Y028511D02*
X043959D01*
X04323Y029889D02*
X043959D01*
X04323Y028511D02*
Y029889D01*
X043959Y028511D02*
Y029889D01*
X041286Y028511D02*
X042014D01*
X041286Y029889D02*
X042014D01*
X041286Y028511D02*
Y029889D01*
X042014Y028511D02*
Y029889D01*
X044952Y036177D02*
Y037555D01*
X045681Y036177D02*
Y037555D01*
X044952Y036177D02*
X045681D01*
X044952Y037555D02*
X045681D01*
X045919D02*
X046648D01*
X045919Y036177D02*
X046648D01*
Y037555D01*
X045919Y036177D02*
Y037555D01*
X046886D02*
X047614D01*
X046886Y036177D02*
X047614D01*
Y037555D01*
X046886Y036177D02*
Y037555D01*
X043986D02*
X044714D01*
X043986Y036177D02*
X044714D01*
Y037555D01*
X043986Y036177D02*
Y037555D01*
D18*
X042252Y026811D02*
Y028189D01*
X042981Y026811D02*
Y028189D01*
X042252Y026811D02*
X042981D01*
X042252Y028189D02*
X042981D01*
X042367Y0275D02*
X042867D01*
X044202Y026811D02*
Y028189D01*
X044931Y026811D02*
Y028189D01*
X044202Y026811D02*
X044931D01*
X044202Y028189D02*
X044931D01*
X044317Y0275D02*
X044817D01*
X04323Y026811D02*
Y028189D01*
X043959Y026811D02*
Y028189D01*
X04323Y026811D02*
X043959D01*
X04323Y028189D02*
X043959D01*
X043344Y0275D02*
X043844D01*
X041286Y026811D02*
Y028189D01*
X042014Y026811D02*
Y028189D01*
X041286Y026811D02*
X042014D01*
X041286Y028189D02*
X042014D01*
X0414Y0275D02*
X0419D01*
X036386Y036095D02*
Y037473D01*
X037114Y036095D02*
Y037473D01*
X036386Y036095D02*
X037114D01*
X036386Y037473D02*
X037114D01*
X0365Y036784D02*
X037D01*
D19*
X04867Y036819D02*
Y037066D01*
X03357Y037418D02*
X03563D01*
X03367Y041234D02*
X03573D01*
D20*
X050545Y03885D02*
D03*
M02*
