G04*
G04 #@! TF.GenerationSoftware,Altium Limited,Altium Designer,21.3.2 (30)*
G04*
G04 Layer_Color=255*
%FSTAX24Y24*%
%MOIN*%
G70*
G04*
G04 #@! TF.SameCoordinates,B3B2999D-E210-4126-8252-5E02B47327B5*
G04*
G04*
G04 #@! TF.FilePolarity,Positive*
G04*
G01*
G75*
%ADD59C,0.0591*%
G04:AMPARAMS|DCode=60|XSize=59.1mil|YSize=59.1mil|CornerRadius=14.8mil|HoleSize=0mil|Usage=FLASHONLY|Rotation=270.000|XOffset=0mil|YOffset=0mil|HoleType=Round|Shape=RoundedRectangle|*
%AMROUNDEDRECTD60*
21,1,0.0591,0.0295,0,0,270.0*
21,1,0.0295,0.0591,0,0,270.0*
1,1,0.0295,-0.0148,-0.0148*
1,1,0.0295,-0.0148,0.0148*
1,1,0.0295,0.0148,0.0148*
1,1,0.0295,0.0148,-0.0148*
%
%ADD60ROUNDEDRECTD60*%
%ADD61C,0.0748*%
%ADD62R,0.0748X0.0748*%
%ADD63R,0.0594X0.0594*%
%ADD64C,0.0594*%
%ADD65C,0.0984*%
%ADD66O,0.0600X0.0800*%
%ADD67R,0.0600X0.0800*%
%ADD68C,0.0900*%
%ADD69C,0.1200*%
D59*
X05585Y0233D02*
D03*
D60*
Y0243D02*
D03*
D61*
X02555Y02645D02*
D03*
X0303D02*
D03*
X054Y0274D02*
D03*
X0489D02*
D03*
D62*
X02755Y02645D02*
D03*
X0323D02*
D03*
X056Y0274D02*
D03*
X0509D02*
D03*
D63*
X027944Y028813D02*
D03*
D64*
X029912D02*
D03*
X025896Y040387D02*
D03*
X031959D02*
D03*
D65*
X055578Y042105D02*
D03*
X02605D02*
D03*
X055554Y02145D02*
D03*
X026026D02*
D03*
D66*
X038412Y042105D02*
D03*
X039412D02*
D03*
X040412D02*
D03*
X041412D02*
D03*
X042412D02*
D03*
X043412D02*
D03*
X044412D02*
D03*
X045412D02*
D03*
X046412D02*
D03*
X047412D02*
D03*
X048412D02*
D03*
X049412D02*
D03*
X050412D02*
D03*
X051412D02*
D03*
X052412D02*
D03*
D67*
X053412D02*
D03*
D68*
X038263Y02195D02*
D03*
X0489D02*
D03*
X0324D02*
D03*
X043263D02*
D03*
X0539D02*
D03*
X0274D02*
D03*
X0324Y02395D02*
D03*
X0274D02*
D03*
X043263D02*
D03*
X038263D02*
D03*
X0539D02*
D03*
X0489D02*
D03*
D69*
X0557Y03495D02*
D03*
X0509Y03015D02*
D03*
X0533Y03595D02*
D03*
X0509Y03495D02*
D03*
M02*
