G04*
G04 #@! TF.GenerationSoftware,Altium Limited,Altium Designer,21.3.2 (30)*
G04*
G04 Layer_Color=32896*
%FSTAX24Y24*%
%MOIN*%
G70*
G04*
G04 #@! TF.SameCoordinates,B3B2999D-E210-4126-8252-5E02B47327B5*
G04*
G04*
G04 #@! TF.FilePolarity,Positive*
G04*
G01*
G75*
%ADD16C,0.0100*%
%ADD19C,0.0080*%
D16*
X031288Y02296D02*
G03*
X031288Y02296I-001378J0D01*
G01*
X042151D02*
G03*
X042151Y02296I-001378J0D01*
G01*
X052788D02*
G03*
X052788Y02296I-001378J0D01*
G01*
X056562Y028916D02*
Y043089D01*
X025066Y028916D02*
X056562D01*
X025066D02*
Y043089D01*
X056562D01*
X0562Y0411D02*
Y0405D01*
X0558D01*
X0552Y041D02*
X0553Y0411D01*
X0555D01*
X0556Y041D01*
Y0406D01*
X0555Y0405D01*
X0553D01*
X0552Y0406D01*
X055Y0411D02*
Y0405D01*
X0547D01*
X0546Y0406D01*
Y041D01*
X0547Y0411D01*
X055D01*
X0316Y025D02*
X0317Y0251D01*
X0319D01*
X032Y025D01*
Y0249D01*
X0319Y0248D01*
X0317D01*
X0316Y0247D01*
Y0246D01*
X0317Y0245D01*
X0319D01*
X032Y0246D01*
X0314Y0251D02*
Y0245D01*
X0312Y0247D01*
X031Y0245D01*
Y0251D01*
X0308Y025D02*
X0307Y0251D01*
X0305D01*
X0304Y025D01*
Y0249D01*
X0305Y0248D01*
X0306D01*
X0305D01*
X0304Y0247D01*
Y0246D01*
X0305Y0245D01*
X0307D01*
X0308Y0246D01*
X04245Y025D02*
X04255Y0251D01*
X04275D01*
X04285Y025D01*
Y0249D01*
X04275Y0248D01*
X04255D01*
X04245Y0247D01*
Y0246D01*
X04255Y0245D01*
X04275D01*
X04285Y0246D01*
X04225Y0251D02*
Y0245D01*
X04205Y0247D01*
X04185Y0245D01*
Y0251D01*
X04125Y0245D02*
X04165D01*
X04125Y0249D01*
Y025D01*
X04135Y0251D01*
X04155D01*
X04165Y025D01*
X05305D02*
X05315Y0251D01*
X05335D01*
X05345Y025D01*
Y0249D01*
X05335Y0248D01*
X05315D01*
X05305Y0247D01*
Y0246D01*
X05315Y0245D01*
X05335D01*
X05345Y0246D01*
X05285Y0251D02*
Y0245D01*
X05265Y0247D01*
X05245Y0245D01*
Y0251D01*
X05225Y0245D02*
X05205D01*
X05215D01*
Y0251D01*
X05225Y025D01*
D19*
X02754Y02533D02*
X03227D01*
Y02059D02*
Y02533D01*
X02754Y02059D02*
X03227D01*
X02754D02*
Y02533D01*
X038403D02*
X043133D01*
Y02059D02*
Y02533D01*
X038403Y02059D02*
X043133D01*
X038403D02*
Y02533D01*
X04904D02*
X05377D01*
Y02059D02*
Y02533D01*
X04904Y02059D02*
X05377D01*
X04904D02*
Y02533D01*
M02*
