G04*
G04 #@! TF.GenerationSoftware,Altium Limited,Altium Designer,21.3.2 (30)*
G04*
G04 Layer_Color=128*
%FSTAX24Y24*%
%MOIN*%
G70*
G04*
G04 #@! TF.SameCoordinates,DBE85665-E0BB-432C-AE5E-D4A4B8DC2BF9*
G04*
G04*
G04 #@! TF.FilePolarity,Positive*
G04*
G01*
G75*
%ADD72C,0.0020*%
D72*
X01892Y0398D02*
X02018D01*
X01955Y03917D02*
Y04043D01*
X021455Y04D02*
X021845D01*
X02165Y039805D02*
Y040195D01*
X021455Y039D02*
X021845D01*
X02165Y038805D02*
Y039195D01*
X021455Y038D02*
X021845D01*
X02165Y037805D02*
Y038195D01*
X021455Y037D02*
X021845D01*
X02165Y036805D02*
Y037195D01*
X021455Y036D02*
X021845D01*
X02165Y035805D02*
Y036195D01*
X021455Y035D02*
X021845D01*
X02165Y034805D02*
Y035195D01*
X021455Y034D02*
X021845D01*
X02165Y033805D02*
Y034195D01*
X01892Y0135D02*
X02018D01*
X01955Y01287D02*
Y01413D01*
X05512Y0135D02*
X05638D01*
X05575Y01287D02*
Y01413D01*
X05512Y0398D02*
X05638D01*
X05575Y03917D02*
Y04043D01*
X031025Y01365D02*
X031375D01*
X0312Y013475D02*
Y013825D01*
X032025Y01365D02*
X032375D01*
X0322Y013475D02*
Y013825D01*
X033075Y01365D02*
X033425D01*
X03325Y013475D02*
Y013825D01*
X034025Y01365D02*
X034375D01*
X0342Y013475D02*
Y013825D01*
X035025Y01365D02*
X035375D01*
X0352Y013475D02*
Y013825D01*
X036025Y01365D02*
X036375D01*
X0362Y013475D02*
Y013825D01*
X029975Y01365D02*
X030325D01*
X03015Y013475D02*
Y013825D01*
X029025Y01365D02*
X029375D01*
X0292Y013475D02*
Y013825D01*
X028025Y01365D02*
X028375D01*
X0282Y013475D02*
Y013825D01*
X027025Y01365D02*
X027375D01*
X0272Y013475D02*
Y013825D01*
X023025Y01365D02*
X023375D01*
X0232Y013475D02*
Y013825D01*
X024025Y01365D02*
X024375D01*
X0242Y013475D02*
Y013825D01*
X025025Y01365D02*
X025375D01*
X0252Y013475D02*
Y013825D01*
X026025Y01365D02*
X026375D01*
X0262Y013475D02*
Y013825D01*
X022025Y01365D02*
X022375D01*
X0222Y013475D02*
Y013825D01*
X031025Y02265D02*
X031375D01*
X0312Y022475D02*
Y022825D01*
X032025Y02265D02*
X032375D01*
X0322Y022475D02*
Y022825D01*
X033025Y02265D02*
X033375D01*
X0332Y022475D02*
Y022825D01*
X034025Y02265D02*
X034375D01*
X0342Y022475D02*
Y022825D01*
X035025Y02265D02*
X035375D01*
X0352Y022475D02*
Y022825D01*
X036025Y02265D02*
X036375D01*
X0362Y022475D02*
Y022825D01*
X030075Y02265D02*
X030425D01*
X03025Y022475D02*
Y022825D01*
X029025Y02265D02*
X029375D01*
X0292Y022475D02*
Y022825D01*
X028025Y02265D02*
X028375D01*
X0282Y022475D02*
Y022825D01*
X026975Y02265D02*
X027325D01*
X02715Y022475D02*
Y022825D01*
X023025Y02265D02*
X023375D01*
X0232Y022475D02*
Y022825D01*
X024025Y02265D02*
X024375D01*
X0242Y022475D02*
Y022825D01*
X025025Y02265D02*
X025375D01*
X0252Y022475D02*
Y022825D01*
X026025Y02265D02*
X026375D01*
X0262Y022475D02*
Y022825D01*
X022025Y02265D02*
X022375D01*
X0222Y022475D02*
Y022825D01*
X0532Y02225D02*
X0538D01*
X0535Y02195D02*
Y02255D01*
X0532Y02425D02*
X0538D01*
X0535Y02395D02*
Y02455D01*
X040855Y02505D02*
X041245D01*
X04105Y024855D02*
Y025245D01*
X041855Y02505D02*
X042245D01*
X04205Y024855D02*
Y025245D01*
X038553Y0252D02*
X038947D01*
X03875Y025003D02*
Y025397D01*
X038553Y0312D02*
X038947D01*
X03875Y031003D02*
Y031397D01*
X037553Y0252D02*
X037947D01*
X03775Y025003D02*
Y025397D01*
X037553Y0312D02*
X037947D01*
X03775Y031003D02*
Y031397D01*
X036553Y0252D02*
X036947D01*
X03675Y025003D02*
Y025397D01*
X036553Y0312D02*
X036947D01*
X03675Y031003D02*
Y031397D01*
X035553Y0252D02*
X035947D01*
X03575Y025003D02*
Y025397D01*
X035553Y0312D02*
X035947D01*
X03575Y031003D02*
Y031397D01*
X034553Y0252D02*
X034947D01*
X03475Y025003D02*
Y025397D01*
X034553Y0312D02*
X034947D01*
X03475Y031003D02*
Y031397D01*
X033553Y0252D02*
X033947D01*
X03375Y025003D02*
Y025397D01*
X033553Y0312D02*
X033947D01*
X03375Y031003D02*
Y031397D01*
X032553Y0252D02*
X032947D01*
X03275Y025003D02*
Y025397D01*
X032553Y0312D02*
X032947D01*
X03275Y031003D02*
Y031397D01*
X031553Y0252D02*
X031947D01*
X03175Y025003D02*
Y025397D01*
X031553Y0312D02*
X031947D01*
X03175Y031003D02*
Y031397D01*
X030553Y0252D02*
X030947D01*
X03075Y025003D02*
Y025397D01*
X030553Y0312D02*
X030947D01*
X03075Y031003D02*
Y031397D01*
X029553Y0252D02*
X029947D01*
X02975Y025003D02*
Y025397D01*
X029553Y0312D02*
X029947D01*
X02975Y031003D02*
Y031397D01*
X028553Y0252D02*
X028947D01*
X02875Y025003D02*
Y025397D01*
X028553Y0312D02*
X028947D01*
X02875Y031003D02*
Y031397D01*
X027553Y0252D02*
X027947D01*
X02775Y025003D02*
Y025397D01*
X027553Y0312D02*
X027947D01*
X02775Y031003D02*
Y031397D01*
X026553Y0252D02*
X026947D01*
X02675Y025003D02*
Y025397D01*
X026553Y0312D02*
X026947D01*
X02675Y031003D02*
Y031397D01*
X025553Y0252D02*
X025947D01*
X02575Y025003D02*
Y025397D01*
X025553Y0312D02*
X025947D01*
X02575Y031003D02*
Y031397D01*
X024553Y0252D02*
X024947D01*
X02475Y025003D02*
Y025397D01*
X024553Y0312D02*
X024947D01*
X02475Y031003D02*
Y031397D01*
X023553Y0252D02*
X023947D01*
X02375Y025003D02*
Y025397D01*
X023553Y0312D02*
X023947D01*
X02375Y031003D02*
Y031397D01*
X022553Y0252D02*
X022947D01*
X02275Y025003D02*
Y025397D01*
X022553Y0312D02*
X022947D01*
X02275Y031003D02*
Y031397D01*
X021553Y0252D02*
X021947D01*
X02175Y025003D02*
Y025397D01*
X021553Y0312D02*
X021947D01*
X02175Y031003D02*
Y031397D01*
X020553Y0252D02*
X020947D01*
X02075Y025003D02*
Y025397D01*
X020553Y0312D02*
X020947D01*
X02075Y031003D02*
Y031397D01*
X019553Y0252D02*
X019947D01*
X01975Y025003D02*
Y025397D01*
X019553Y0312D02*
X019947D01*
X01975Y031003D02*
Y031397D01*
X049903Y01535D02*
X050297D01*
X0501Y015153D02*
Y015547D01*
X048903Y01535D02*
X049297D01*
X0491Y015153D02*
Y015547D01*
X047903Y01535D02*
X048297D01*
X0481Y015153D02*
Y015547D01*
X046903Y01535D02*
X047297D01*
X0471Y015153D02*
Y015547D01*
X053105Y02955D02*
X053695D01*
X0534Y029255D02*
Y029845D01*
X053105Y02755D02*
X053695D01*
X0534Y027255D02*
Y027845D01*
X053105Y03155D02*
X053695D01*
X0534Y031255D02*
Y031845D01*
X044375Y03195D02*
X044825D01*
X0446Y031725D02*
Y032175D01*
X049175Y02715D02*
X049625D01*
X0494Y026925D02*
Y027375D01*
X043375Y02955D02*
X043825D01*
X0436Y029325D02*
Y029775D01*
X049175Y03195D02*
X049625D01*
X0494Y031725D02*
Y032175D01*
X044375Y02715D02*
X044825D01*
X0446Y026925D02*
Y027375D01*
X04195Y01463D02*
X04233D01*
X04214Y01444D02*
Y01482D01*
X04196Y01285D02*
X04234D01*
X04215Y01266D02*
Y01304D01*
X04446Y01286D02*
X04484D01*
X04465Y01267D02*
Y01305D01*
X04445Y01463D02*
X04483D01*
X04464Y01444D02*
Y01482D01*
X043855Y02215D02*
X044245D01*
X04405Y021955D02*
Y022345D01*
X043855Y02315D02*
X044245D01*
X04405Y022955D02*
Y023345D01*
X043855Y02415D02*
X044245D01*
X04405Y023955D02*
Y024345D01*
X042175Y02105D02*
X042325D01*
X04225Y020975D02*
Y021125D01*
X043025Y0178D02*
X043175D01*
X0431Y017725D02*
Y017875D01*
X029875Y0196D02*
X030025D01*
X02995Y019525D02*
Y019675D01*
X029921Y018146D02*
X030071D01*
X029996Y018071D02*
Y018221D01*
X038675Y0187D02*
X038825D01*
X03875Y018625D02*
Y018775D01*
X024575Y01575D02*
X024725D01*
X02465Y015675D02*
Y015825D01*
X029925Y01635D02*
X030075D01*
X03Y016275D02*
Y016425D01*
M02*
