M48
;Layer_Color=9474304
;FILE_FORMAT=2:4
INCH,LZ
;TYPE=PLATED
T1F00S00C0.0150
T2F00S00C0.0350
T3F00S00C0.0380
T4F00S00C0.0390
T5F00S00C0.0394
T6F00S00C0.0450
T7F00S00C0.0591
T8F00S00C0.0600
T9F00S00C0.1260
%
T01
X03875Y0187
X0431Y0178
X04225Y02105
X02995Y0196
X029996Y018146
X03Y01635
X02465Y01575
T02
X0222Y01365
X0232
X0242
X0252
X0262
X0272
X0282
X0292
X03015
X0312
X0322
X03325
X0342
X0352
X0362
Y02265
X0352
X0342
X0332
X0322
X0312
X03025
X0292
X0282
X02715
X0262
X0252
X0242
X0232
X0222
T03
X04215Y01285
X04214Y01463
X04464
X04465Y01286
T04
X04105Y02505
X04205
X04405Y02415
Y02315
Y02215
X02165Y034
Y035
Y036
Y037
Y038
Y039
Y04
T05
X0471Y01535
X0481
X0491
X0501
X03875Y0252
X03775
X03675
X03575
X03475
X03375
X03275
X03175
Y0312
X03275
X03375
X03475
X03575
X03675
X03775
X03875
X03075
X02975
X02875
X02775
X02675
X02575
X02475
X02375
X02275
X02175
X02075
X01975
Y0252
X02075
X02175
X02275
X02375
X02475
X02575
X02675
X02775
X02875
X02975
X03075
T06
X0494Y02715
X0446
X0436Y02955
X0446Y03195
X0494
T07
X0534Y02755
Y02955
Y03155
T08
X0535Y02225
Y02425
T09
X01955Y0135
X05575
X01955Y0398
X05575
M30
