G04*
G04 #@! TF.GenerationSoftware,Altium Limited,Altium Designer,21.3.2 (30)*
G04*
G04 Layer_Physical_Order=1*
G04 Layer_Color=255*
%FSTAX24Y24*%
%MOIN*%
G70*
G04*
G04 #@! TF.SameCoordinates,DBE85665-E0BB-432C-AE5E-D4A4B8DC2BF9*
G04*
G04*
G04 #@! TF.FilePolarity,Positive*
G04*
G01*
G75*
%ADD10C,0.0100*%
%ADD11C,0.0200*%
G04:AMPARAMS|DCode=21|XSize=63mil|YSize=41.3mil|CornerRadius=10.3mil|HoleSize=0mil|Usage=FLASHONLY|Rotation=0.000|XOffset=0mil|YOffset=0mil|HoleType=Round|Shape=RoundedRectangle|*
%AMROUNDEDRECTD21*
21,1,0.0630,0.0207,0,0,0.0*
21,1,0.0423,0.0413,0,0,0.0*
1,1,0.0207,0.0212,-0.0103*
1,1,0.0207,-0.0212,-0.0103*
1,1,0.0207,-0.0212,0.0103*
1,1,0.0207,0.0212,0.0103*
%
%ADD21ROUNDEDRECTD21*%
G04:AMPARAMS|DCode=22|XSize=31.5mil|YSize=39.4mil|CornerRadius=7.9mil|HoleSize=0mil|Usage=FLASHONLY|Rotation=180.000|XOffset=0mil|YOffset=0mil|HoleType=Round|Shape=RoundedRectangle|*
%AMROUNDEDRECTD22*
21,1,0.0315,0.0236,0,0,180.0*
21,1,0.0157,0.0394,0,0,180.0*
1,1,0.0157,-0.0079,0.0118*
1,1,0.0157,0.0079,0.0118*
1,1,0.0157,0.0079,-0.0118*
1,1,0.0157,-0.0079,-0.0118*
%
%ADD22ROUNDEDRECTD22*%
G04:AMPARAMS|DCode=23|XSize=31.5mil|YSize=35.4mil|CornerRadius=7.9mil|HoleSize=0mil|Usage=FLASHONLY|Rotation=180.000|XOffset=0mil|YOffset=0mil|HoleType=Round|Shape=RoundedRectangle|*
%AMROUNDEDRECTD23*
21,1,0.0315,0.0197,0,0,180.0*
21,1,0.0157,0.0354,0,0,180.0*
1,1,0.0157,-0.0079,0.0098*
1,1,0.0157,0.0079,0.0098*
1,1,0.0157,0.0079,-0.0098*
1,1,0.0157,-0.0079,-0.0098*
%
%ADD23ROUNDEDRECTD23*%
G04:AMPARAMS|DCode=24|XSize=63mil|YSize=41.3mil|CornerRadius=10.3mil|HoleSize=0mil|Usage=FLASHONLY|Rotation=270.000|XOffset=0mil|YOffset=0mil|HoleType=Round|Shape=RoundedRectangle|*
%AMROUNDEDRECTD24*
21,1,0.0630,0.0207,0,0,270.0*
21,1,0.0423,0.0413,0,0,270.0*
1,1,0.0207,-0.0103,-0.0212*
1,1,0.0207,-0.0103,0.0212*
1,1,0.0207,0.0103,0.0212*
1,1,0.0207,0.0103,-0.0212*
%
%ADD24ROUNDEDRECTD24*%
G04:AMPARAMS|DCode=25|XSize=55.1mil|YSize=63mil|CornerRadius=13.8mil|HoleSize=0mil|Usage=FLASHONLY|Rotation=90.000|XOffset=0mil|YOffset=0mil|HoleType=Round|Shape=RoundedRectangle|*
%AMROUNDEDRECTD25*
21,1,0.0551,0.0354,0,0,90.0*
21,1,0.0276,0.0630,0,0,90.0*
1,1,0.0276,0.0177,0.0138*
1,1,0.0276,0.0177,-0.0138*
1,1,0.0276,-0.0177,-0.0138*
1,1,0.0276,-0.0177,0.0138*
%
%ADD25ROUNDEDRECTD25*%
G04:AMPARAMS|DCode=26|XSize=78.7mil|YSize=67.3mil|CornerRadius=16.8mil|HoleSize=0mil|Usage=FLASHONLY|Rotation=0.000|XOffset=0mil|YOffset=0mil|HoleType=Round|Shape=RoundedRectangle|*
%AMROUNDEDRECTD26*
21,1,0.0787,0.0337,0,0,0.0*
21,1,0.0451,0.0673,0,0,0.0*
1,1,0.0337,0.0225,-0.0168*
1,1,0.0337,-0.0225,-0.0168*
1,1,0.0337,-0.0225,0.0168*
1,1,0.0337,0.0225,0.0168*
%
%ADD26ROUNDEDRECTD26*%
G04:AMPARAMS|DCode=46|XSize=86.6mil|YSize=86.6mil|CornerRadius=21.7mil|HoleSize=0mil|Usage=FLASHONLY|Rotation=90.000|XOffset=0mil|YOffset=0mil|HoleType=Round|Shape=RoundedRectangle|*
%AMROUNDEDRECTD46*
21,1,0.0866,0.0433,0,0,90.0*
21,1,0.0433,0.0866,0,0,90.0*
1,1,0.0433,0.0217,0.0217*
1,1,0.0433,0.0217,-0.0217*
1,1,0.0433,-0.0217,-0.0217*
1,1,0.0433,-0.0217,0.0217*
%
%ADD46ROUNDEDRECTD46*%
%ADD47C,0.0866*%
%ADD51C,0.1260*%
%ADD52R,0.0600X0.0600*%
%ADD53C,0.0600*%
%ADD54C,0.0690*%
%ADD55R,0.0690X0.0690*%
%ADD56R,0.1200X0.1100*%
%ADD57O,0.1200X0.1100*%
G04:AMPARAMS|DCode=58|XSize=60mil|YSize=60mil|CornerRadius=15mil|HoleSize=0mil|Usage=FLASHONLY|Rotation=180.000|XOffset=0mil|YOffset=0mil|HoleType=Round|Shape=RoundedRectangle|*
%AMROUNDEDRECTD58*
21,1,0.0600,0.0300,0,0,180.0*
21,1,0.0300,0.0600,0,0,180.0*
1,1,0.0300,-0.0150,0.0150*
1,1,0.0300,0.0150,0.0150*
1,1,0.0300,0.0150,-0.0150*
1,1,0.0300,-0.0150,-0.0150*
%
%ADD58ROUNDEDRECTD58*%
%ADD59C,0.0669*%
%ADD60R,0.0669X0.0669*%
G04:AMPARAMS|DCode=61|XSize=63mil|YSize=63mil|CornerRadius=15.7mil|HoleSize=0mil|Usage=FLASHONLY|Rotation=180.000|XOffset=0mil|YOffset=0mil|HoleType=Round|Shape=RoundedRectangle|*
%AMROUNDEDRECTD61*
21,1,0.0630,0.0315,0,0,180.0*
21,1,0.0315,0.0630,0,0,180.0*
1,1,0.0315,-0.0157,0.0157*
1,1,0.0315,0.0157,0.0157*
1,1,0.0315,0.0157,-0.0157*
1,1,0.0315,-0.0157,-0.0157*
%
%ADD61ROUNDEDRECTD61*%
%ADD62C,0.0630*%
%ADD63C,0.1200*%
%ADD64O,0.0750X0.0650*%
%ADD65C,0.0300*%
G36*
X01945Y040947D02*
X04015D01*
Y032454D01*
X034934D01*
X034454Y032934D01*
Y03565D01*
X034438Y035728D01*
X034394Y035794D01*
X034394Y035794D01*
X031044Y039144D01*
X030978Y039188D01*
X0309Y039204D01*
X021994D01*
X02197Y039246D01*
X021896Y03932D01*
X021804Y039373D01*
X021703Y0394D01*
X021597D01*
X021496Y039373D01*
X021404Y03932D01*
X02133Y039246D01*
X021277Y039154D01*
X02125Y039053D01*
Y038947D01*
X021277Y038846D01*
X02133Y038754D01*
X021404Y03868D01*
X021496Y038627D01*
X021597Y0386D01*
X021703D01*
X021804Y038627D01*
X021896Y03868D01*
X02197Y038754D01*
X021994Y038796D01*
X030816D01*
X034046Y035566D01*
Y03285D01*
X034062Y032772D01*
X034106Y032706D01*
X034706Y032106D01*
X034772Y032062D01*
X03485Y032046D01*
X04015D01*
Y031638D01*
X040056Y031544D01*
X040012Y031478D01*
X039996Y0314D01*
Y027984D01*
X039316Y027304D01*
X03735D01*
X037272Y027288D01*
X037206Y027244D01*
X036606Y026644D01*
X036562Y026578D01*
X036546Y0265D01*
Y025584D01*
X036483Y025548D01*
X036402Y025467D01*
X036345Y025368D01*
X036315Y025257D01*
Y025143D01*
X036345Y025032D01*
X036402Y024933D01*
X036483Y024852D01*
X036582Y024795D01*
X036693Y024765D01*
X036807D01*
X036918Y024795D01*
X037017Y024852D01*
X037098Y024933D01*
X037155Y025032D01*
X037185Y025143D01*
Y025257D01*
X037155Y025368D01*
X037098Y025467D01*
X037017Y025548D01*
X036954Y025584D01*
Y026416D01*
X037434Y026896D01*
X04015D01*
Y023453D01*
X035663D01*
X035403Y023713D01*
Y024867D01*
X035449Y024886D01*
X035483Y024852D01*
X035582Y024795D01*
X035693Y024765D01*
X035807D01*
X035918Y024795D01*
X036017Y024852D01*
X036098Y024933D01*
X036155Y025032D01*
X036185Y025143D01*
Y025257D01*
X036155Y025368D01*
X036098Y025467D01*
X036017Y025548D01*
X035918Y025605D01*
X035807Y025635D01*
X035693D01*
X035582Y025605D01*
X035483Y025548D01*
X035449Y025514D01*
X035403Y025533D01*
Y03065D01*
X035391Y030709D01*
X035358Y030758D01*
X035129Y030987D01*
X035155Y031032D01*
X035185Y031143D01*
Y031257D01*
X035155Y031368D01*
X035098Y031467D01*
X035017Y031548D01*
X034918Y031605D01*
X034807Y031635D01*
X034693D01*
X034582Y031605D01*
X034483Y031548D01*
X034402Y031467D01*
X034345Y031368D01*
X034315Y031257D01*
Y031143D01*
X034345Y031032D01*
X034402Y030933D01*
X034483Y030852D01*
X034582Y030795D01*
X034693Y030765D01*
X034807D01*
X034895Y030789D01*
X035097Y030587D01*
Y025533D01*
X035051Y025514D01*
X035017Y025548D01*
X034918Y025605D01*
X034807Y025635D01*
X034693D01*
X034582Y025605D01*
X034483Y025548D01*
X034402Y025467D01*
X034345Y025368D01*
X034315Y025257D01*
Y025143D01*
X034345Y025032D01*
X034402Y024933D01*
X034483Y024852D01*
X034582Y024795D01*
X034693Y024765D01*
X034807D01*
X034918Y024795D01*
X035017Y024852D01*
X035051Y024886D01*
X035097Y024867D01*
Y02365D01*
X035109Y023591D01*
X035142Y023542D01*
X035492Y023192D01*
X035541Y023159D01*
X0356Y023147D01*
X04015D01*
Y020253D01*
X034113D01*
X033858Y020508D01*
Y022297D01*
X033904Y022317D01*
X033927Y022294D01*
X034028Y022235D01*
X034141Y022205D01*
X034259D01*
X034372Y022235D01*
X034473Y022294D01*
X034556Y022377D01*
X034615Y022478D01*
X034645Y022591D01*
Y022709D01*
X034615Y022822D01*
X034556Y022923D01*
X034473Y023006D01*
X034372Y023065D01*
X034259Y023095D01*
X034141D01*
X034028Y023065D01*
X033927Y023006D01*
X033904Y022983D01*
X033858Y023003D01*
Y023605D01*
X033858Y023605D01*
X033891Y023655D01*
X033903Y023713D01*
Y024791D01*
X033918Y024795D01*
X034017Y024852D01*
X034098Y024933D01*
X034155Y025032D01*
X034185Y025143D01*
Y025257D01*
X034155Y025368D01*
X034098Y025467D01*
X034017Y025548D01*
X033918Y025605D01*
X033807Y025635D01*
X033693D01*
X033582Y025605D01*
X033483Y025548D01*
X033402Y025467D01*
X033345Y025368D01*
X033315Y025257D01*
Y025143D01*
X033345Y025032D01*
X033402Y024933D01*
X033483Y024852D01*
X033582Y024795D01*
X033597Y024791D01*
Y023777D01*
X033597Y023777D01*
X033564Y023727D01*
X033552Y023668D01*
Y022993D01*
X033506Y022973D01*
X033473Y023006D01*
X033372Y023065D01*
X033259Y023095D01*
X033141D01*
X033028Y023065D01*
X032927Y023006D01*
X032904Y022983D01*
X032858Y023003D01*
Y023605D01*
X032858Y023605D01*
X032891Y023655D01*
X032903Y023713D01*
Y024791D01*
X032918Y024795D01*
X033017Y024852D01*
X033098Y024933D01*
X033155Y025032D01*
X033185Y025143D01*
Y025257D01*
X033155Y025368D01*
X033098Y025467D01*
X033017Y025548D01*
X032918Y025605D01*
X032807Y025635D01*
X032693D01*
X032582Y025605D01*
X032483Y025548D01*
X032402Y025467D01*
X032345Y025368D01*
X032315Y025257D01*
Y025143D01*
X032345Y025032D01*
X032402Y024933D01*
X032483Y024852D01*
X032582Y024795D01*
X032597Y024791D01*
Y023777D01*
X032597Y023777D01*
X032564Y023727D01*
X032552Y023668D01*
Y022993D01*
X032506Y022973D01*
X032473Y023006D01*
X032372Y023065D01*
X032259Y023095D01*
X032141D01*
X032028Y023065D01*
X031927Y023006D01*
X031899Y022978D01*
X031853Y022998D01*
Y0236D01*
X031841Y023659D01*
X031808Y023708D01*
X031388Y024129D01*
Y024877D01*
X031438Y024898D01*
X031483Y024852D01*
X031582Y024795D01*
X031693Y024765D01*
X031807D01*
X031918Y024795D01*
X032017Y024852D01*
X032098Y024933D01*
X032155Y025032D01*
X032185Y025143D01*
Y025257D01*
X032155Y025368D01*
X032098Y025467D01*
X032017Y025548D01*
X031918Y025605D01*
X031807Y025635D01*
X031693D01*
X031582Y025605D01*
X031483Y025548D01*
X031438Y025502D01*
X031388Y025523D01*
Y027215D01*
X031376Y027274D01*
X031343Y027324D01*
X030467Y028199D01*
X030418Y028232D01*
X030359Y028244D01*
X026459D01*
X025903Y0288D01*
Y030791D01*
X025918Y030795D01*
X026017Y030852D01*
X026098Y030933D01*
X026155Y031032D01*
X026185Y031143D01*
Y031257D01*
X026155Y031368D01*
X026098Y031467D01*
X026017Y031548D01*
X025918Y031605D01*
X025807Y031635D01*
X025693D01*
X025582Y031605D01*
X025483Y031548D01*
X025402Y031467D01*
X025345Y031368D01*
X025315Y031257D01*
Y031143D01*
X025345Y031032D01*
X025402Y030933D01*
X025483Y030852D01*
X025582Y030795D01*
X025597Y030791D01*
Y028736D01*
X025609Y028678D01*
X025642Y028628D01*
X026288Y027983D01*
X026337Y02795D01*
X026396Y027938D01*
X030296D01*
X031082Y027152D01*
Y025548D01*
X031036Y025529D01*
X031017Y025548D01*
X030918Y025605D01*
X030807Y025635D01*
X030693D01*
X030582Y025605D01*
X030483Y025548D01*
X030402Y025467D01*
X030345Y025368D01*
X030315Y025257D01*
Y025143D01*
X030345Y025032D01*
X030402Y024933D01*
X030483Y024852D01*
X030582Y024795D01*
X030693Y024765D01*
X030807D01*
X030918Y024795D01*
X031017Y024852D01*
X031036Y024871D01*
X031082Y024852D01*
Y024065D01*
X031093Y024007D01*
X031126Y023957D01*
X031547Y023537D01*
Y022998D01*
X031501Y022978D01*
X031473Y023006D01*
X031372Y023065D01*
X031259Y023095D01*
X031141D01*
X031028Y023065D01*
X030927Y023006D01*
X030844Y022923D01*
X030785Y022822D01*
X030755Y022709D01*
Y022591D01*
X030785Y022478D01*
X030844Y022377D01*
X030927Y022294D01*
X031028Y022235D01*
X031141Y022205D01*
X031259D01*
X031372Y022235D01*
X031473Y022294D01*
X031501Y022322D01*
X031547Y022302D01*
Y0194D01*
X031559Y019341D01*
X031592Y019292D01*
X032992Y017892D01*
X033041Y017859D01*
X0331Y017847D01*
X039987D01*
X040147Y017687D01*
Y01675D01*
X04015Y016735D01*
Y012203D01*
X01945D01*
X019443Y012202D01*
X019284Y012217D01*
X019125Y012266D01*
X018978Y012344D01*
X01885Y01245D01*
X018744Y012578D01*
X018666Y012725D01*
X018617Y012884D01*
X018602Y013043D01*
X018603Y01305D01*
Y0401D01*
X018602Y040107D01*
X018617Y040266D01*
X018666Y040425D01*
X018744Y040572D01*
X01885Y0407D01*
X018978Y040806D01*
X019125Y040884D01*
X019284Y040933D01*
X019443Y040948D01*
X01945Y040947D01*
D02*
G37*
%LPC*%
G36*
X02205Y0404D02*
X0217D01*
Y04005D01*
X02205D01*
Y0404D01*
D02*
G37*
G36*
X0216D02*
X02125D01*
Y04005D01*
X0216D01*
Y0404D01*
D02*
G37*
G36*
X019622Y04053D02*
X0196D01*
Y03985D01*
X02028D01*
Y039872D01*
X020252Y040013D01*
X020197Y040146D01*
X020117Y040265D01*
X020015Y040367D01*
X019896Y040447D01*
X019763Y040502D01*
X019622Y04053D01*
D02*
G37*
G36*
X0195D02*
X019478D01*
X019337Y040502D01*
X019204Y040447D01*
X019085Y040367D01*
X018983Y040265D01*
X018903Y040146D01*
X018848Y040013D01*
X01882Y039872D01*
Y03985D01*
X0195D01*
Y04053D01*
D02*
G37*
G36*
X02205Y03995D02*
X0217D01*
Y0396D01*
X02205D01*
Y03995D01*
D02*
G37*
G36*
X0216D02*
X02125D01*
Y0396D01*
X0216D01*
Y03995D01*
D02*
G37*
G36*
X02028Y03975D02*
X0196D01*
Y03907D01*
X019622D01*
X019763Y039098D01*
X019896Y039153D01*
X020015Y039233D01*
X020117Y039335D01*
X020197Y039454D01*
X020252Y039587D01*
X02028Y039728D01*
Y03975D01*
D02*
G37*
G36*
X0195D02*
X01882D01*
Y039728D01*
X018848Y039587D01*
X018903Y039454D01*
X018983Y039335D01*
X019085Y039233D01*
X019204Y039153D01*
X019337Y039098D01*
X019478Y03907D01*
X0195D01*
Y03975D01*
D02*
G37*
G36*
X021703Y0384D02*
X021597D01*
X021496Y038373D01*
X021404Y03832D01*
X02133Y038246D01*
X021277Y038154D01*
X02125Y038053D01*
Y037947D01*
X021277Y037846D01*
X02133Y037754D01*
X021404Y03768D01*
X021496Y037627D01*
X021597Y0376D01*
X021703D01*
X021804Y037627D01*
X021896Y03768D01*
X02197Y037754D01*
X022023Y037846D01*
X02205Y037947D01*
Y038053D01*
X022023Y038154D01*
X02197Y038246D01*
X021896Y03832D01*
X021804Y038373D01*
X021703Y0384D01*
D02*
G37*
G36*
X020807Y031635D02*
X0208D01*
Y03125D01*
X021185D01*
Y031257D01*
X021155Y031368D01*
X021098Y031467D01*
X021017Y031548D01*
X020918Y031605D01*
X020807Y031635D01*
D02*
G37*
G36*
X019807D02*
X0198D01*
Y03125D01*
X020185D01*
Y031257D01*
X020155Y031368D01*
X020098Y031467D01*
X020017Y031548D01*
X019918Y031605D01*
X019807Y031635D01*
D02*
G37*
G36*
X0207D02*
X020693D01*
X020582Y031605D01*
X020483Y031548D01*
X020402Y031467D01*
X020345Y031368D01*
X020315Y031257D01*
Y03125D01*
X0207D01*
Y031635D01*
D02*
G37*
G36*
X0197D02*
X019693D01*
X019582Y031605D01*
X019483Y031548D01*
X019402Y031467D01*
X019345Y031368D01*
X019315Y031257D01*
Y03125D01*
X0197D01*
Y031635D01*
D02*
G37*
G36*
X038807D02*
X038693D01*
X038582Y031605D01*
X038483Y031548D01*
X038402Y031467D01*
X038345Y031368D01*
X038315Y031257D01*
Y031143D01*
X038345Y031032D01*
X038402Y030933D01*
X038483Y030852D01*
X038582Y030795D01*
X038693Y030765D01*
X038807D01*
X038918Y030795D01*
X039017Y030852D01*
X039098Y030933D01*
X039155Y031032D01*
X039185Y031143D01*
Y031257D01*
X039155Y031368D01*
X039098Y031467D01*
X039017Y031548D01*
X038918Y031605D01*
X038807Y031635D01*
D02*
G37*
G36*
X037807D02*
X037693D01*
X037582Y031605D01*
X037483Y031548D01*
X037402Y031467D01*
X037345Y031368D01*
X037315Y031257D01*
Y031143D01*
X037345Y031032D01*
X037402Y030933D01*
X037483Y030852D01*
X037582Y030795D01*
X037693Y030765D01*
X037807D01*
X037918Y030795D01*
X038017Y030852D01*
X038098Y030933D01*
X038155Y031032D01*
X038185Y031143D01*
Y031257D01*
X038155Y031368D01*
X038098Y031467D01*
X038017Y031548D01*
X037918Y031605D01*
X037807Y031635D01*
D02*
G37*
G36*
X036807D02*
X036693D01*
X036582Y031605D01*
X036483Y031548D01*
X036402Y031467D01*
X036345Y031368D01*
X036315Y031257D01*
Y031143D01*
X036345Y031032D01*
X036402Y030933D01*
X036483Y030852D01*
X036582Y030795D01*
X036693Y030765D01*
X036807D01*
X036918Y030795D01*
X037017Y030852D01*
X037098Y030933D01*
X037155Y031032D01*
X037185Y031143D01*
Y031257D01*
X037155Y031368D01*
X037098Y031467D01*
X037017Y031548D01*
X036918Y031605D01*
X036807Y031635D01*
D02*
G37*
G36*
X035807D02*
X035693D01*
X035582Y031605D01*
X035483Y031548D01*
X035402Y031467D01*
X035345Y031368D01*
X035315Y031257D01*
Y031143D01*
X035345Y031032D01*
X035402Y030933D01*
X035483Y030852D01*
X035582Y030795D01*
X035693Y030765D01*
X035807D01*
X035918Y030795D01*
X036017Y030852D01*
X036098Y030933D01*
X036155Y031032D01*
X036185Y031143D01*
Y031257D01*
X036155Y031368D01*
X036098Y031467D01*
X036017Y031548D01*
X035918Y031605D01*
X035807Y031635D01*
D02*
G37*
G36*
X033807D02*
X033693D01*
X033582Y031605D01*
X033483Y031548D01*
X033402Y031467D01*
X033345Y031368D01*
X033315Y031257D01*
Y031143D01*
X033345Y031032D01*
X033402Y030933D01*
X033483Y030852D01*
X033582Y030795D01*
X033693Y030765D01*
X033807D01*
X033918Y030795D01*
X034017Y030852D01*
X034098Y030933D01*
X034155Y031032D01*
X034185Y031143D01*
Y031257D01*
X034155Y031368D01*
X034098Y031467D01*
X034017Y031548D01*
X033918Y031605D01*
X033807Y031635D01*
D02*
G37*
G36*
X021703Y0374D02*
X021597D01*
X021496Y037373D01*
X021404Y03732D01*
X02133Y037246D01*
X021277Y037154D01*
X02125Y037053D01*
Y036947D01*
X021277Y036846D01*
X02133Y036754D01*
X021404Y03668D01*
X021496Y036627D01*
X021597Y0366D01*
X021703D01*
X021804Y036627D01*
X021896Y03668D01*
X02197Y036754D01*
X022023Y036846D01*
X022023Y036847D01*
X030237D01*
X032597Y034487D01*
Y031609D01*
X032582Y031605D01*
X032483Y031548D01*
X032402Y031467D01*
X032345Y031368D01*
X032315Y031257D01*
Y031143D01*
X032345Y031032D01*
X032402Y030933D01*
X032483Y030852D01*
X032582Y030795D01*
X032693Y030765D01*
X032807D01*
X032918Y030795D01*
X033017Y030852D01*
X033098Y030933D01*
X033155Y031032D01*
X033185Y031143D01*
Y031257D01*
X033155Y031368D01*
X033098Y031467D01*
X033017Y031548D01*
X032918Y031605D01*
X032903Y031609D01*
Y03455D01*
X032891Y034609D01*
X032858Y034658D01*
X030408Y037108D01*
X030359Y037141D01*
X0303Y037153D01*
X022023D01*
X022023Y037154D01*
X02197Y037246D01*
X021896Y03732D01*
X021804Y037373D01*
X021703Y0374D01*
D02*
G37*
G36*
Y0364D02*
X021597D01*
X021496Y036373D01*
X021404Y03632D01*
X02133Y036246D01*
X021277Y036154D01*
X02125Y036053D01*
Y035947D01*
X021277Y035846D01*
X02133Y035754D01*
X021404Y03568D01*
X021496Y035627D01*
X021597Y0356D01*
X021703D01*
X021804Y035627D01*
X021896Y03568D01*
X02197Y035754D01*
X022023Y035846D01*
X022023Y035847D01*
X029837D01*
X031597Y034087D01*
Y031609D01*
X031582Y031605D01*
X031483Y031548D01*
X031402Y031467D01*
X031345Y031368D01*
X031315Y031257D01*
Y031143D01*
X031345Y031032D01*
X031402Y030933D01*
X031483Y030852D01*
X031582Y030795D01*
X031693Y030765D01*
X031807D01*
X031918Y030795D01*
X032017Y030852D01*
X032098Y030933D01*
X032155Y031032D01*
X032185Y031143D01*
Y031257D01*
X032155Y031368D01*
X032098Y031467D01*
X032017Y031548D01*
X031918Y031605D01*
X031903Y031609D01*
Y03415D01*
X031891Y034209D01*
X031858Y034258D01*
X030008Y036108D01*
X029959Y036141D01*
X0299Y036153D01*
X022023D01*
X022023Y036154D01*
X02197Y036246D01*
X021896Y03632D01*
X021804Y036373D01*
X021703Y0364D01*
D02*
G37*
G36*
Y0354D02*
X021597D01*
X021496Y035373D01*
X021404Y03532D01*
X02133Y035246D01*
X021277Y035154D01*
X02125Y035053D01*
Y034947D01*
X021277Y034846D01*
X02133Y034754D01*
X021404Y03468D01*
X021496Y034627D01*
X021597Y0346D01*
X021703D01*
X021804Y034627D01*
X021896Y03468D01*
X02197Y034754D01*
X022023Y034846D01*
X022023Y034847D01*
X029537D01*
X030597Y033787D01*
Y031609D01*
X030582Y031605D01*
X030483Y031548D01*
X030402Y031467D01*
X030345Y031368D01*
X030315Y031257D01*
Y031143D01*
X030345Y031032D01*
X030402Y030933D01*
X030483Y030852D01*
X030582Y030795D01*
X030693Y030765D01*
X030807D01*
X030918Y030795D01*
X031017Y030852D01*
X031098Y030933D01*
X031155Y031032D01*
X031185Y031143D01*
Y031257D01*
X031155Y031368D01*
X031098Y031467D01*
X031017Y031548D01*
X030918Y031605D01*
X030903Y031609D01*
Y03385D01*
X030891Y033909D01*
X030858Y033958D01*
X029708Y035108D01*
X029659Y035141D01*
X0296Y035153D01*
X022023D01*
X022023Y035154D01*
X02197Y035246D01*
X021896Y03532D01*
X021804Y035373D01*
X021703Y0354D01*
D02*
G37*
G36*
Y0344D02*
X021597D01*
X021496Y034373D01*
X021404Y03432D01*
X02133Y034246D01*
X021277Y034154D01*
X02125Y034053D01*
Y033947D01*
X021277Y033846D01*
X02133Y033754D01*
X021404Y03368D01*
X021496Y033627D01*
X021597Y0336D01*
X021703D01*
X021804Y033627D01*
X021896Y03368D01*
X02197Y033754D01*
X022023Y033846D01*
X022023Y033847D01*
X029287D01*
X029647Y033487D01*
Y031622D01*
X029582Y031605D01*
X029483Y031548D01*
X029402Y031467D01*
X029345Y031368D01*
X029315Y031257D01*
Y031143D01*
X029345Y031032D01*
X029402Y030933D01*
X029483Y030852D01*
X029582Y030795D01*
X029693Y030765D01*
X029807D01*
X029918Y030795D01*
X030017Y030852D01*
X030098Y030933D01*
X030155Y031032D01*
X030185Y031143D01*
Y031257D01*
X030155Y031368D01*
X030098Y031467D01*
X030017Y031548D01*
X029953Y031585D01*
Y03355D01*
X029941Y033609D01*
X029908Y033658D01*
X029458Y034108D01*
X029409Y034141D01*
X02935Y034153D01*
X022023D01*
X022023Y034154D01*
X02197Y034246D01*
X021896Y03432D01*
X021804Y034373D01*
X021703Y0344D01*
D02*
G37*
G36*
X028807Y031635D02*
X028693D01*
X028582Y031605D01*
X028483Y031548D01*
X028402Y031467D01*
X028345Y031368D01*
X028315Y031257D01*
Y031143D01*
X028345Y031032D01*
X028402Y030933D01*
X028483Y030852D01*
X028582Y030795D01*
X028693Y030765D01*
X028807D01*
X028918Y030795D01*
X029017Y030852D01*
X029098Y030933D01*
X029155Y031032D01*
X029185Y031143D01*
Y031257D01*
X029155Y031368D01*
X029098Y031467D01*
X029017Y031548D01*
X028918Y031605D01*
X028807Y031635D01*
D02*
G37*
G36*
X027807D02*
X027693D01*
X027582Y031605D01*
X027483Y031548D01*
X027402Y031467D01*
X027345Y031368D01*
X027315Y031257D01*
Y031143D01*
X027345Y031032D01*
X027402Y030933D01*
X027483Y030852D01*
X027582Y030795D01*
X027693Y030765D01*
X027807D01*
X027918Y030795D01*
X028017Y030852D01*
X028098Y030933D01*
X028155Y031032D01*
X028185Y031143D01*
Y031257D01*
X028155Y031368D01*
X028098Y031467D01*
X028017Y031548D01*
X027918Y031605D01*
X027807Y031635D01*
D02*
G37*
G36*
X026807D02*
X026693D01*
X026582Y031605D01*
X026483Y031548D01*
X026402Y031467D01*
X026345Y031368D01*
X026315Y031257D01*
Y031143D01*
X026345Y031032D01*
X026402Y030933D01*
X026483Y030852D01*
X026582Y030795D01*
X026693Y030765D01*
X026807D01*
X026918Y030795D01*
X027017Y030852D01*
X027098Y030933D01*
X027155Y031032D01*
X027185Y031143D01*
Y031257D01*
X027155Y031368D01*
X027098Y031467D01*
X027017Y031548D01*
X026918Y031605D01*
X026807Y031635D01*
D02*
G37*
G36*
X024807D02*
X024693D01*
X024582Y031605D01*
X024483Y031548D01*
X024402Y031467D01*
X024345Y031368D01*
X024315Y031257D01*
Y031143D01*
X024345Y031032D01*
X024402Y030933D01*
X024483Y030852D01*
X024582Y030795D01*
X024693Y030765D01*
X024807D01*
X024918Y030795D01*
X025017Y030852D01*
X025098Y030933D01*
X025155Y031032D01*
X025185Y031143D01*
Y031257D01*
X025155Y031368D01*
X025098Y031467D01*
X025017Y031548D01*
X024918Y031605D01*
X024807Y031635D01*
D02*
G37*
G36*
X023807D02*
X023693D01*
X023582Y031605D01*
X023483Y031548D01*
X023402Y031467D01*
X023345Y031368D01*
X023315Y031257D01*
Y031143D01*
X023345Y031032D01*
X023402Y030933D01*
X023483Y030852D01*
X023582Y030795D01*
X023693Y030765D01*
X023807D01*
X023918Y030795D01*
X024017Y030852D01*
X024098Y030933D01*
X024155Y031032D01*
X024185Y031143D01*
Y031257D01*
X024155Y031368D01*
X024098Y031467D01*
X024017Y031548D01*
X023918Y031605D01*
X023807Y031635D01*
D02*
G37*
G36*
X022807D02*
X022693D01*
X022582Y031605D01*
X022483Y031548D01*
X022402Y031467D01*
X022345Y031368D01*
X022315Y031257D01*
Y031143D01*
X022345Y031032D01*
X022402Y030933D01*
X022483Y030852D01*
X022582Y030795D01*
X022693Y030765D01*
X022807D01*
X022918Y030795D01*
X023017Y030852D01*
X023098Y030933D01*
X023155Y031032D01*
X023185Y031143D01*
Y031257D01*
X023155Y031368D01*
X023098Y031467D01*
X023017Y031548D01*
X022918Y031605D01*
X022807Y031635D01*
D02*
G37*
G36*
X021807D02*
X021693D01*
X021582Y031605D01*
X021483Y031548D01*
X021402Y031467D01*
X021345Y031368D01*
X021315Y031257D01*
Y031143D01*
X021345Y031032D01*
X021402Y030933D01*
X021483Y030852D01*
X021582Y030795D01*
X021693Y030765D01*
X021807D01*
X021918Y030795D01*
X022017Y030852D01*
X022098Y030933D01*
X022155Y031032D01*
X022185Y031143D01*
Y031257D01*
X022155Y031368D01*
X022098Y031467D01*
X022017Y031548D01*
X021918Y031605D01*
X021807Y031635D01*
D02*
G37*
G36*
X021185Y03115D02*
X0208D01*
Y030765D01*
X020807D01*
X020918Y030795D01*
X021017Y030852D01*
X021098Y030933D01*
X021155Y031032D01*
X021185Y031143D01*
Y03115D01*
D02*
G37*
G36*
X0207D02*
X020315D01*
Y031143D01*
X020345Y031032D01*
X020402Y030933D01*
X020483Y030852D01*
X020582Y030795D01*
X020693Y030765D01*
X0207D01*
Y03115D01*
D02*
G37*
G36*
X020185D02*
X0198D01*
Y030765D01*
X019807D01*
X019918Y030795D01*
X020017Y030852D01*
X020098Y030933D01*
X020155Y031032D01*
X020185Y031143D01*
Y03115D01*
D02*
G37*
G36*
X0197D02*
X019315D01*
Y031143D01*
X019345Y031032D01*
X019402Y030933D01*
X019483Y030852D01*
X019582Y030795D01*
X019693Y030765D01*
X0197D01*
Y03115D01*
D02*
G37*
G36*
X037807Y025635D02*
X0378D01*
Y02525D01*
X038185D01*
Y025257D01*
X038155Y025368D01*
X038098Y025467D01*
X038017Y025548D01*
X037918Y025605D01*
X037807Y025635D01*
D02*
G37*
G36*
X0377D02*
X037693D01*
X037582Y025605D01*
X037483Y025548D01*
X037402Y025467D01*
X037345Y025368D01*
X037315Y025257D01*
Y02525D01*
X0377D01*
Y025635D01*
D02*
G37*
G36*
X038807D02*
X038693D01*
X038582Y025605D01*
X038483Y025548D01*
X038402Y025467D01*
X038345Y025368D01*
X038315Y025257D01*
Y025143D01*
X038345Y025032D01*
X038402Y024933D01*
X038483Y024852D01*
X038582Y024795D01*
X038693Y024765D01*
X038807D01*
X038918Y024795D01*
X039017Y024852D01*
X039098Y024933D01*
X039155Y025032D01*
X039185Y025143D01*
Y025257D01*
X039155Y025368D01*
X039098Y025467D01*
X039017Y025548D01*
X038918Y025605D01*
X038807Y025635D01*
D02*
G37*
G36*
X038185Y02515D02*
X0378D01*
Y024765D01*
X037807D01*
X037918Y024795D01*
X038017Y024852D01*
X038098Y024933D01*
X038155Y025032D01*
X038185Y025143D01*
Y02515D01*
D02*
G37*
G36*
X0377D02*
X037315D01*
Y025143D01*
X037345Y025032D01*
X037402Y024933D01*
X037483Y024852D01*
X037582Y024795D01*
X037693Y024765D01*
X0377D01*
Y02515D01*
D02*
G37*
G36*
X029807Y025635D02*
X029693D01*
X029582Y025605D01*
X029483Y025548D01*
X029402Y025467D01*
X029345Y025368D01*
X029315Y025257D01*
Y025143D01*
X029345Y025032D01*
X029402Y024933D01*
X029483Y024852D01*
X029582Y024795D01*
X029693Y024765D01*
X029807D01*
X029918Y024795D01*
X030017Y024852D01*
X030098Y024933D01*
X030155Y025032D01*
X030185Y025143D01*
Y025257D01*
X030155Y025368D01*
X030098Y025467D01*
X030017Y025548D01*
X029918Y025605D01*
X029807Y025635D01*
D02*
G37*
G36*
X028807D02*
X028693D01*
X028582Y025605D01*
X028483Y025548D01*
X028402Y025467D01*
X028345Y025368D01*
X028315Y025257D01*
Y025143D01*
X028345Y025032D01*
X028402Y024933D01*
X028483Y024852D01*
X028582Y024795D01*
X028693Y024765D01*
X028807D01*
X028918Y024795D01*
X029017Y024852D01*
X029098Y024933D01*
X029155Y025032D01*
X029185Y025143D01*
Y025257D01*
X029155Y025368D01*
X029098Y025467D01*
X029017Y025548D01*
X028918Y025605D01*
X028807Y025635D01*
D02*
G37*
G36*
X027807D02*
X027693D01*
X027582Y025605D01*
X027483Y025548D01*
X027402Y025467D01*
X027345Y025368D01*
X027315Y025257D01*
Y025143D01*
X027345Y025032D01*
X027402Y024933D01*
X027483Y024852D01*
X027582Y024795D01*
X027693Y024765D01*
X027807D01*
X027918Y024795D01*
X028017Y024852D01*
X028098Y024933D01*
X028155Y025032D01*
X028185Y025143D01*
Y025257D01*
X028155Y025368D01*
X028098Y025467D01*
X028017Y025548D01*
X027918Y025605D01*
X027807Y025635D01*
D02*
G37*
G36*
X026807D02*
X026693D01*
X026582Y025605D01*
X026483Y025548D01*
X026402Y025467D01*
X026345Y025368D01*
X026315Y025257D01*
Y025143D01*
X026345Y025032D01*
X026402Y024933D01*
X026483Y024852D01*
X026582Y024795D01*
X026693Y024765D01*
X026807D01*
X026918Y024795D01*
X027017Y024852D01*
X027098Y024933D01*
X027155Y025032D01*
X027185Y025143D01*
Y025257D01*
X027155Y025368D01*
X027098Y025467D01*
X027017Y025548D01*
X026918Y025605D01*
X026807Y025635D01*
D02*
G37*
G36*
X023807D02*
X023693D01*
X023582Y025605D01*
X023483Y025548D01*
X023402Y025467D01*
X023345Y025368D01*
X023315Y025257D01*
Y025143D01*
X023345Y025032D01*
X023402Y024933D01*
X023483Y024852D01*
X023582Y024795D01*
X023693Y024765D01*
X023807D01*
X023918Y024795D01*
X024017Y024852D01*
X024098Y024933D01*
X024155Y025032D01*
X024185Y025143D01*
Y025257D01*
X024155Y025368D01*
X024098Y025467D01*
X024017Y025548D01*
X023918Y025605D01*
X023807Y025635D01*
D02*
G37*
G36*
X022807D02*
X022693D01*
X022582Y025605D01*
X022483Y025548D01*
X022402Y025467D01*
X022345Y025368D01*
X022315Y025257D01*
Y025143D01*
X022345Y025032D01*
X022402Y024933D01*
X022483Y024852D01*
X022582Y024795D01*
X022693Y024765D01*
X022807D01*
X022918Y024795D01*
X023017Y024852D01*
X023098Y024933D01*
X023155Y025032D01*
X023185Y025143D01*
Y025257D01*
X023155Y025368D01*
X023098Y025467D01*
X023017Y025548D01*
X022918Y025605D01*
X022807Y025635D01*
D02*
G37*
G36*
X021807D02*
X021693D01*
X021582Y025605D01*
X021483Y025548D01*
X021402Y025467D01*
X021345Y025368D01*
X021315Y025257D01*
Y025143D01*
X021345Y025032D01*
X021402Y024933D01*
X021483Y024852D01*
X021582Y024795D01*
X021693Y024765D01*
X021807D01*
X021918Y024795D01*
X022017Y024852D01*
X022098Y024933D01*
X022155Y025032D01*
X022185Y025143D01*
Y025257D01*
X022155Y025368D01*
X022098Y025467D01*
X022017Y025548D01*
X021918Y025605D01*
X021807Y025635D01*
D02*
G37*
G36*
X020807D02*
X020693D01*
X020582Y025605D01*
X020483Y025548D01*
X020402Y025467D01*
X020345Y025368D01*
X020315Y025257D01*
Y025143D01*
X020345Y025032D01*
X020402Y024933D01*
X020483Y024852D01*
X020582Y024795D01*
X020693Y024765D01*
X020807D01*
X020918Y024795D01*
X021017Y024852D01*
X021098Y024933D01*
X021155Y025032D01*
X021185Y025143D01*
Y025257D01*
X021155Y025368D01*
X021098Y025467D01*
X021017Y025548D01*
X020918Y025605D01*
X020807Y025635D01*
D02*
G37*
G36*
X020185D02*
X019315D01*
Y024765D01*
X020185D01*
Y025635D01*
D02*
G37*
G36*
X025807D02*
X025693D01*
X025582Y025605D01*
X025483Y025548D01*
X025402Y025467D01*
X025345Y025368D01*
X025315Y025257D01*
Y025143D01*
X025345Y025032D01*
X025402Y024933D01*
X025483Y024852D01*
X025582Y024795D01*
X025597Y024791D01*
Y02435D01*
X025609Y024291D01*
X025642Y024242D01*
X025742Y024142D01*
X025791Y024109D01*
X02585Y024097D01*
X029187D01*
X029602Y023682D01*
Y022936D01*
X029585Y022931D01*
X029552Y022927D01*
X029473Y023006D01*
X029372Y023065D01*
X029259Y023095D01*
X029141D01*
X029028Y023065D01*
X028927Y023006D01*
X028904Y022983D01*
X028858Y023003D01*
Y023445D01*
X028846Y023504D01*
X028813Y023553D01*
X028658Y023708D01*
X028609Y023741D01*
X02855Y023753D01*
X025313D01*
X025003Y024063D01*
Y024844D01*
X025017Y024852D01*
X025098Y024933D01*
X025155Y025032D01*
X025185Y025143D01*
Y025257D01*
X025155Y025368D01*
X025098Y025467D01*
X025017Y025548D01*
X024918Y025605D01*
X024807Y025635D01*
X024693D01*
X024582Y025605D01*
X024483Y025548D01*
X024402Y025467D01*
X024345Y025368D01*
X024315Y025257D01*
Y025143D01*
X024345Y025032D01*
X024402Y024933D01*
X024483Y024852D01*
X024582Y024795D01*
X024693Y024765D01*
X024697D01*
Y024D01*
X024709Y023941D01*
X024742Y023892D01*
X025142Y023492D01*
X025191Y023459D01*
X02525Y023447D01*
X028487D01*
X028552Y023382D01*
Y022993D01*
X028506Y022973D01*
X028473Y023006D01*
X028372Y023065D01*
X028259Y023095D01*
X028141D01*
X028028Y023065D01*
X027927Y023006D01*
X027844Y022923D01*
X027785Y022822D01*
X027755Y022709D01*
Y022591D01*
X027785Y022478D01*
X027844Y022377D01*
X027927Y022294D01*
X028028Y022235D01*
X028141Y022205D01*
X028259D01*
X028372Y022235D01*
X028473Y022294D01*
X028506Y022327D01*
X028552Y022307D01*
Y021145D01*
X028564Y021086D01*
X028597Y021037D01*
X029442Y020192D01*
X029491Y020159D01*
X02955Y020147D01*
X030537D01*
X030597Y020087D01*
Y01685D01*
X030609Y016791D01*
X030642Y016742D01*
X031392Y015992D01*
X031441Y015959D01*
X0315Y015947D01*
X033097D01*
Y01407D01*
X033078Y014065D01*
X032977Y014006D01*
X032894Y013923D01*
X032835Y013822D01*
X032805Y013709D01*
Y013591D01*
X032835Y013478D01*
X032894Y013377D01*
X032977Y013294D01*
X033078Y013235D01*
X033191Y013205D01*
X033309D01*
X033422Y013235D01*
X033523Y013294D01*
X033606Y013377D01*
X033665Y013478D01*
X033695Y013591D01*
Y013709D01*
X033665Y013822D01*
X033606Y013923D01*
X033523Y014006D01*
X033422Y014065D01*
X033403Y01407D01*
Y016041D01*
X033391Y0161D01*
X033358Y01615D01*
X0333Y016208D01*
X03325Y016241D01*
X033191Y016253D01*
X031563D01*
X030903Y016913D01*
Y02015D01*
X030891Y020209D01*
X030858Y020258D01*
X030708Y020408D01*
X030659Y020441D01*
X0306Y020453D01*
X029613D01*
X028858Y021208D01*
Y022297D01*
X028904Y022317D01*
X028927Y022294D01*
X029028Y022235D01*
X029141Y022205D01*
X029259D01*
X029372Y022235D01*
X029473Y022294D01*
X029552Y022373D01*
X029585Y022369D01*
X029602Y022364D01*
Y020995D01*
X029614Y020936D01*
X029647Y020887D01*
X029892Y020642D01*
X029941Y020609D01*
X03Y020597D01*
X030737D01*
X031047Y020287D01*
Y017D01*
X031059Y016941D01*
X031092Y016892D01*
X031592Y016392D01*
X031641Y016359D01*
X0317Y016347D01*
X033887D01*
X034047Y016187D01*
Y01407D01*
X034028Y014065D01*
X033927Y014006D01*
X033844Y013923D01*
X033785Y013822D01*
X033755Y013709D01*
Y013591D01*
X033785Y013478D01*
X033844Y013377D01*
X033927Y013294D01*
X034028Y013235D01*
X034141Y013205D01*
X034259D01*
X034372Y013235D01*
X034473Y013294D01*
X034556Y013377D01*
X034615Y013478D01*
X034645Y013591D01*
Y013709D01*
X034615Y013822D01*
X034556Y013923D01*
X034473Y014006D01*
X034372Y014065D01*
X034353Y01407D01*
Y01625D01*
X034341Y016309D01*
X034308Y016358D01*
X034058Y016608D01*
X034009Y016641D01*
X03395Y016653D01*
X031763D01*
X031353Y017063D01*
Y02035D01*
X031341Y020409D01*
X031308Y020458D01*
X030908Y020858D01*
X030859Y020891D01*
X0308Y020903D01*
X030063D01*
X029908Y021058D01*
Y022297D01*
X029954Y022317D01*
X029977Y022294D01*
X030078Y022235D01*
X030191Y022205D01*
X030309D01*
X030422Y022235D01*
X030523Y022294D01*
X030606Y022377D01*
X030665Y022478D01*
X030695Y022591D01*
Y022709D01*
X030665Y022822D01*
X030606Y022923D01*
X030523Y023006D01*
X030422Y023065D01*
X030309Y023095D01*
X030191D01*
X030078Y023065D01*
X029977Y023006D01*
X029954Y022983D01*
X029908Y023003D01*
Y023745D01*
X029896Y023804D01*
X029863Y023853D01*
X029358Y024358D01*
X029309Y024391D01*
X02925Y024403D01*
X025913D01*
X025903Y024413D01*
Y024791D01*
X025918Y024795D01*
X026017Y024852D01*
X026098Y024933D01*
X026155Y025032D01*
X026185Y025143D01*
Y025257D01*
X026155Y025368D01*
X026098Y025467D01*
X026017Y025548D01*
X025918Y025605D01*
X025807Y025635D01*
D02*
G37*
G36*
X023645Y023095D02*
X02325D01*
Y0227D01*
X023645D01*
Y023095D01*
D02*
G37*
G36*
X027595D02*
X0272D01*
Y0227D01*
X027595D01*
Y023095D01*
D02*
G37*
G36*
X02315D02*
X022755D01*
Y0227D01*
X02315D01*
Y023095D01*
D02*
G37*
G36*
X0271D02*
X026705D01*
Y0227D01*
X0271D01*
Y023095D01*
D02*
G37*
G36*
X036259D02*
X036141D01*
X036028Y023065D01*
X035927Y023006D01*
X035844Y022923D01*
X035785Y022822D01*
X035755Y022709D01*
Y022591D01*
X035785Y022478D01*
X035844Y022377D01*
X035927Y022294D01*
X036028Y022235D01*
X036141Y022205D01*
X036259D01*
X036372Y022235D01*
X036473Y022294D01*
X036556Y022377D01*
X036615Y022478D01*
X036645Y022591D01*
Y022709D01*
X036615Y022822D01*
X036556Y022923D01*
X036473Y023006D01*
X036372Y023065D01*
X036259Y023095D01*
D02*
G37*
G36*
X035259D02*
X035141D01*
X035028Y023065D01*
X034927Y023006D01*
X034844Y022923D01*
X034785Y022822D01*
X034755Y022709D01*
Y022591D01*
X034785Y022478D01*
X034844Y022377D01*
X034927Y022294D01*
X035028Y022235D01*
X035141Y022205D01*
X035259D01*
X035372Y022235D01*
X035473Y022294D01*
X035556Y022377D01*
X035615Y022478D01*
X035645Y022591D01*
Y022709D01*
X035615Y022822D01*
X035556Y022923D01*
X035473Y023006D01*
X035372Y023065D01*
X035259Y023095D01*
D02*
G37*
G36*
X027595Y0226D02*
X0272D01*
Y022205D01*
X027595D01*
Y0226D01*
D02*
G37*
G36*
X0271D02*
X026705D01*
Y022205D01*
X0271D01*
Y0226D01*
D02*
G37*
G36*
X026259Y023095D02*
X026141D01*
X026028Y023065D01*
X025927Y023006D01*
X025844Y022923D01*
X025785Y022822D01*
X025755Y022709D01*
Y022591D01*
X025785Y022478D01*
X025844Y022377D01*
X025927Y022294D01*
X026028Y022235D01*
X026141Y022205D01*
X026259D01*
X026372Y022235D01*
X026473Y022294D01*
X026556Y022377D01*
X026615Y022478D01*
X026645Y022591D01*
Y022709D01*
X026615Y022822D01*
X026556Y022923D01*
X026473Y023006D01*
X026372Y023065D01*
X026259Y023095D01*
D02*
G37*
G36*
X025259D02*
X025141D01*
X025028Y023065D01*
X024927Y023006D01*
X024844Y022923D01*
X024785Y022822D01*
X024755Y022709D01*
Y022591D01*
X024785Y022478D01*
X024844Y022377D01*
X024927Y022294D01*
X025028Y022235D01*
X025141Y022205D01*
X025259D01*
X025372Y022235D01*
X025473Y022294D01*
X025556Y022377D01*
X025615Y022478D01*
X025645Y022591D01*
Y022709D01*
X025615Y022822D01*
X025556Y022923D01*
X025473Y023006D01*
X025372Y023065D01*
X025259Y023095D01*
D02*
G37*
G36*
X024259D02*
X024141D01*
X024028Y023065D01*
X023927Y023006D01*
X023844Y022923D01*
X023785Y022822D01*
X023755Y022709D01*
Y022591D01*
X023785Y022478D01*
X023844Y022377D01*
X023927Y022294D01*
X024028Y022235D01*
X024141Y022205D01*
X024259D01*
X024372Y022235D01*
X024473Y022294D01*
X024556Y022377D01*
X024615Y022478D01*
X024645Y022591D01*
Y022709D01*
X024615Y022822D01*
X024556Y022923D01*
X024473Y023006D01*
X024372Y023065D01*
X024259Y023095D01*
D02*
G37*
G36*
X023645Y0226D02*
X02325D01*
Y022205D01*
X023645D01*
Y0226D01*
D02*
G37*
G36*
X02315D02*
X022755D01*
Y022205D01*
X02315D01*
Y0226D01*
D02*
G37*
G36*
X0378Y022938D02*
X037666Y022925D01*
X037537Y022886D01*
X037418Y022822D01*
X037313Y022737D01*
X037228Y022632D01*
X037164Y022513D01*
X037125Y022384D01*
X037112Y02225D01*
X037125Y022116D01*
X037164Y021987D01*
X037228Y021868D01*
X037313Y021763D01*
X037418Y021678D01*
X037537Y021614D01*
X037666Y021575D01*
X0378Y021562D01*
X037934Y021575D01*
X038063Y021614D01*
X038182Y021678D01*
X038287Y021763D01*
X038372Y021868D01*
X038436Y021987D01*
X038475Y022116D01*
X038488Y02225D01*
X038475Y022384D01*
X038436Y022513D01*
X038372Y022632D01*
X038287Y022737D01*
X038182Y022822D01*
X038063Y022886D01*
X037934Y022925D01*
X0378Y022938D01*
D02*
G37*
G36*
X0206D02*
X020466Y022925D01*
X020337Y022886D01*
X020218Y022822D01*
X020113Y022737D01*
X020028Y022632D01*
X019964Y022513D01*
X019925Y022384D01*
X019912Y02225D01*
X019925Y022116D01*
X019964Y021987D01*
X020028Y021868D01*
X020113Y021763D01*
X020218Y021678D01*
X020337Y021614D01*
X020466Y021575D01*
X0206Y021562D01*
X020734Y021575D01*
X020863Y021614D01*
X020982Y021678D01*
X021087Y021763D01*
X021172Y021868D01*
X021236Y021987D01*
X021275Y022116D01*
X021288Y02225D01*
X021275Y022384D01*
X021236Y022513D01*
X021172Y022632D01*
X021087Y022737D01*
X020982Y022822D01*
X020863Y022886D01*
X020734Y022925D01*
X0206Y022938D01*
D02*
G37*
G36*
X022259Y023095D02*
X022141D01*
X022028Y023065D01*
X021927Y023006D01*
X021844Y022923D01*
X021785Y022822D01*
X021755Y022709D01*
Y022591D01*
X021785Y022478D01*
X021844Y022377D01*
X021927Y022294D01*
X021996Y022254D01*
Y0211D01*
X022012Y021022D01*
X022056Y020956D01*
X022406Y020606D01*
X022472Y020562D01*
X02255Y020546D01*
X027016D01*
X027257Y020305D01*
Y019989D01*
X027236D01*
X027166Y01998D01*
X0271Y019953D01*
X027044Y01991D01*
X027001Y019854D01*
X026974Y019788D01*
X026965Y019718D01*
Y019382D01*
X026974Y019312D01*
X027001Y019246D01*
X027044Y01919D01*
X0271Y019147D01*
X027166Y01912D01*
X027236Y019111D01*
X027686D01*
X027756Y01912D01*
X027822Y019147D01*
X027878Y01919D01*
X027921Y019246D01*
X027948Y019312D01*
X027953Y01935D01*
X028544D01*
X028549Y019328D01*
X028601Y019249D01*
X02868Y019197D01*
X028773Y019178D01*
X029127D01*
X02922Y019197D01*
X029299Y019249D01*
X029351Y019328D01*
X029356Y019355D01*
X029882D01*
X029886Y019356D01*
X0299Y01935D01*
X03D01*
X030092Y019388D01*
X030162Y019458D01*
X0302Y01955D01*
Y01965D01*
X030162Y019742D01*
X030092Y019812D01*
X03Y01985D01*
X0299D01*
X029808Y019812D01*
X029759Y019763D01*
X029356D01*
X029351Y019789D01*
X029299Y019868D01*
X02922Y01992D01*
X029127Y019939D01*
X028773D01*
X02868Y01992D01*
X028601Y019868D01*
X028549Y019789D01*
X028543Y019758D01*
X027952D01*
X027948Y019788D01*
X027921Y019854D01*
X027878Y01991D01*
X027822Y019953D01*
X027756Y01998D01*
X027686Y019989D01*
X027665D01*
Y020389D01*
X027649Y020467D01*
X027605Y020533D01*
X027244Y020894D01*
X027178Y020938D01*
X0271Y020954D01*
X022634D01*
X022404Y021184D01*
Y022254D01*
X022473Y022294D01*
X022556Y022377D01*
X022615Y022478D01*
X022645Y022591D01*
Y022709D01*
X022615Y022822D01*
X022556Y022923D01*
X022473Y023006D01*
X022372Y023065D01*
X022259Y023095D01*
D02*
G37*
G36*
X024064Y018989D02*
X023889D01*
Y0186D01*
X024335D01*
Y018718D01*
X024326Y018788D01*
X024299Y018854D01*
X024256Y01891D01*
X0242Y018953D01*
X024134Y01898D01*
X024064Y018989D01*
D02*
G37*
G36*
X023789D02*
X023614D01*
X023544Y01898D01*
X023478Y018953D01*
X023422Y01891D01*
X023379Y018854D01*
X023352Y018788D01*
X023343Y018718D01*
Y0186D01*
X023789D01*
Y018989D01*
D02*
G37*
G36*
X027686D02*
X027236D01*
X027166Y01898D01*
X0271Y018953D01*
X027044Y01891D01*
X027001Y018854D01*
X026974Y018788D01*
X026965Y018718D01*
Y018703D01*
X02585D01*
X025791Y018691D01*
X025742Y018658D01*
X025542Y018458D01*
X025509Y018409D01*
X025497Y01835D01*
Y017545D01*
X025438D01*
X025359Y017529D01*
X025292Y017484D01*
X025247Y017417D01*
X025231Y017337D01*
Y017131D01*
X025247Y017051D01*
X025292Y016984D01*
X025359Y016939D01*
X025438Y016923D01*
X025862D01*
X025941Y016939D01*
X026008Y016984D01*
X026053Y017051D01*
X026069Y017131D01*
Y017337D01*
X026053Y017417D01*
X026008Y017484D01*
X025941Y017529D01*
X025862Y017545D01*
X025803D01*
Y018287D01*
X025913Y018397D01*
X026965D01*
Y018382D01*
X026974Y018312D01*
X027001Y018246D01*
X027044Y01819D01*
X0271Y018147D01*
X027166Y01812D01*
X027236Y018111D01*
X027686D01*
X027756Y01812D01*
X027822Y018147D01*
X027878Y01819D01*
X027921Y018246D01*
X027948Y018312D01*
X027957Y018382D01*
Y018718D01*
X027948Y018788D01*
X027921Y018854D01*
X027878Y01891D01*
X027822Y018953D01*
X027756Y01898D01*
X027686Y018989D01*
D02*
G37*
G36*
X024335Y0185D02*
X023889D01*
Y018111D01*
X024064D01*
X024134Y01812D01*
X0242Y018147D01*
X024256Y01819D01*
X024299Y018246D01*
X024326Y018312D01*
X024335Y018382D01*
Y0185D01*
D02*
G37*
G36*
X023789D02*
X023343D01*
Y018382D01*
X023352Y018312D01*
X023379Y018246D01*
X023422Y01819D01*
X023478Y018147D01*
X023544Y01812D01*
X023614Y018111D01*
X023789D01*
Y0185D01*
D02*
G37*
G36*
X029127Y018522D02*
X028773D01*
X02868Y018503D01*
X028601Y018451D01*
X028549Y018372D01*
X02853Y018279D01*
Y018004D01*
X028549Y017911D01*
X028601Y017832D01*
X02868Y01778D01*
X028773Y017761D01*
X028797D01*
Y017411D01*
X028738D01*
X028722Y017407D01*
X028718Y017411D01*
X028669Y017444D01*
X02861Y017456D01*
X027154D01*
X027147Y017491D01*
X027108Y01755D01*
X027048Y017589D01*
X026979Y017603D01*
X026821D01*
X026752Y017589D01*
X026692Y01755D01*
X026653Y017491D01*
X026639Y017421D01*
Y017185D01*
X026653Y017115D01*
X026692Y017056D01*
X026752Y017016D01*
X026821Y017002D01*
X026979D01*
X027048Y017016D01*
X027108Y017056D01*
X027147Y017115D01*
X027154Y01715D01*
X028531D01*
Y016997D01*
X028547Y016917D01*
X028592Y01685D01*
X028659Y016805D01*
X028738Y016789D01*
X029162D01*
X029241Y016805D01*
X029308Y01685D01*
X029353Y016917D01*
X029369Y016997D01*
Y017203D01*
X029353Y017283D01*
X029308Y01735D01*
X029241Y017395D01*
X029162Y017411D01*
X029103D01*
Y017761D01*
X029127D01*
X02922Y01778D01*
X029299Y017832D01*
X029351Y017911D01*
X029367Y017993D01*
X029795D01*
X029854Y017934D01*
X029946Y017896D01*
X030045D01*
X030137Y017934D01*
X030208Y018004D01*
X030246Y018096D01*
Y018195D01*
X030208Y018287D01*
X030137Y018358D01*
X030045Y018396D01*
X029946D01*
X029854Y018358D01*
X029795Y018299D01*
X029366D01*
X029351Y018372D01*
X029299Y018451D01*
X02922Y018503D01*
X029127Y018522D01*
D02*
G37*
G36*
X024064Y019989D02*
X023614D01*
X023544Y01998D01*
X023478Y019953D01*
X023422Y01991D01*
X023379Y019854D01*
X023352Y019788D01*
X023343Y019718D01*
Y019382D01*
X023352Y019312D01*
X023379Y019246D01*
X023422Y01919D01*
X023478Y019147D01*
X023544Y01912D01*
X023614Y019111D01*
X024064D01*
X024134Y01912D01*
X0242Y019147D01*
X024256Y01919D01*
X024299Y019246D01*
X024326Y019312D01*
X024335Y019382D01*
Y019397D01*
X024437D01*
X024497Y019337D01*
Y017561D01*
X024438D01*
X024359Y017545D01*
X024292Y0175D01*
X024247Y017433D01*
X024231Y017353D01*
Y017147D01*
X024247Y017067D01*
X024292Y017D01*
X024359Y016955D01*
X024438Y016939D01*
X024862D01*
X024941Y016955D01*
X025008Y017D01*
X025053Y017067D01*
X025069Y017147D01*
Y017353D01*
X025053Y017433D01*
X025008Y0175D01*
X024941Y017545D01*
X024862Y017561D01*
X024803D01*
Y0194D01*
X024791Y019459D01*
X024758Y019508D01*
X024608Y019658D01*
X024559Y019691D01*
X0245Y019703D01*
X024335D01*
Y019718D01*
X024326Y019788D01*
X024299Y019854D01*
X024256Y01991D01*
X0242Y019953D01*
X024134Y01998D01*
X024064Y019989D01*
D02*
G37*
G36*
X027353Y016678D02*
X027324D01*
Y016447D01*
X027535D01*
Y016496D01*
X027521Y016565D01*
X027482Y016625D01*
X027422Y016664D01*
X027353Y016678D01*
D02*
G37*
G36*
X027224D02*
X027195D01*
X027126Y016664D01*
X027066Y016625D01*
X027027Y016565D01*
X027013Y016496D01*
Y016447D01*
X027224D01*
Y016678D01*
D02*
G37*
G36*
X027535Y016347D02*
X027324D01*
Y016117D01*
X027353D01*
X027422Y01613D01*
X027482Y01617D01*
X027521Y016229D01*
X027535Y016299D01*
Y016347D01*
D02*
G37*
G36*
X027224D02*
X027013D01*
Y016299D01*
X027027Y016229D01*
X027066Y01617D01*
X027126Y01613D01*
X027195Y016117D01*
X027224D01*
Y016347D01*
D02*
G37*
G36*
X025862Y016777D02*
X025438D01*
X025359Y016761D01*
X025292Y016716D01*
X025247Y016649D01*
X025231Y016569D01*
Y016363D01*
X025247Y016283D01*
X025292Y016216D01*
X025359Y016171D01*
X025438Y016155D01*
X025862D01*
X025941Y016171D01*
X026008Y016216D01*
X02605Y016279D01*
X026269D01*
X026279Y016229D01*
X026318Y01617D01*
X026377Y01613D01*
X026447Y016117D01*
X026605D01*
X026674Y01613D01*
X026734Y01617D01*
X026773Y016229D01*
X026787Y016299D01*
Y016496D01*
X026773Y016565D01*
X026734Y016625D01*
X026674Y016664D01*
X026605Y016678D01*
X026447D01*
X026377Y016664D01*
X026318Y016625D01*
X026292Y016585D01*
X026066D01*
X026053Y016649D01*
X026008Y016716D01*
X025941Y016761D01*
X025862Y016777D01*
D02*
G37*
G36*
X029162Y016643D02*
X028738D01*
X028659Y016627D01*
X028592Y016582D01*
X028547Y016515D01*
X028531Y016436D01*
Y016229D01*
X028547Y01615D01*
X028592Y016082D01*
X028659Y016037D01*
X028738Y016022D01*
X029162D01*
X029241Y016037D01*
X029308Y016082D01*
X029353Y01615D01*
X029361Y016188D01*
X029808D01*
X029858Y016138D01*
X02995Y0161D01*
X03005D01*
X030142Y016138D01*
X030212Y016208D01*
X03025Y0163D01*
Y0164D01*
X030212Y016492D01*
X030142Y016562D01*
X03005Y0166D01*
X02995D01*
X029858Y016562D01*
X029791Y016494D01*
X029357D01*
X029353Y016515D01*
X029308Y016582D01*
X029241Y016627D01*
X029162Y016643D01*
D02*
G37*
G36*
X024862Y016793D02*
X024438D01*
X024359Y016777D01*
X024292Y016732D01*
X024247Y016665D01*
X024231Y016586D01*
Y016379D01*
X024247Y0163D01*
X024292Y016232D01*
X024359Y016187D01*
X024438Y016172D01*
X024497D01*
Y015951D01*
X024438Y015892D01*
X0244Y0158D01*
Y0157D01*
X024438Y015608D01*
X024508Y015538D01*
X0246Y0155D01*
X0247D01*
X024792Y015538D01*
X024862Y015608D01*
X0249Y0157D01*
Y0158D01*
X024862Y015892D01*
X024803Y015951D01*
Y016172D01*
X024862D01*
X024941Y016187D01*
X025008Y016232D01*
X025053Y0163D01*
X025069Y016379D01*
Y016586D01*
X025053Y016665D01*
X025008Y016732D01*
X024941Y016777D01*
X024862Y016793D01*
D02*
G37*
G36*
X0206Y014738D02*
X020466Y014725D01*
X020337Y014686D01*
X020218Y014622D01*
X020113Y014537D01*
X020028Y014432D01*
X019964Y014313D01*
X019926Y014187D01*
X019924Y014183D01*
X019872Y014157D01*
X019763Y014202D01*
X019622Y01423D01*
X0196D01*
Y0135D01*
Y01277D01*
X019622D01*
X019763Y012798D01*
X019896Y012853D01*
X020015Y012933D01*
X020117Y013035D01*
X020197Y013154D01*
X020252Y013287D01*
X020273Y013392D01*
X020329Y013418D01*
X020337Y013414D01*
X020466Y013375D01*
X0206Y013362D01*
X020734Y013375D01*
X020863Y013414D01*
X020982Y013478D01*
X021087Y013563D01*
X021172Y013668D01*
X021236Y013787D01*
X021275Y013916D01*
X021288Y01405D01*
X021275Y014184D01*
X021236Y014313D01*
X021172Y014432D01*
X021087Y014537D01*
X020982Y014622D01*
X020863Y014686D01*
X020734Y014725D01*
X0206Y014738D01*
D02*
G37*
G36*
X030595Y014095D02*
X0302D01*
Y0137D01*
X030595D01*
Y014095D01*
D02*
G37*
G36*
X023645D02*
X02325D01*
Y0137D01*
X023645D01*
Y014095D01*
D02*
G37*
G36*
X0301D02*
X029705D01*
Y0137D01*
X0301D01*
Y014095D01*
D02*
G37*
G36*
X02315D02*
X022755D01*
Y0137D01*
X02315D01*
Y014095D01*
D02*
G37*
G36*
X0195Y01423D02*
X019478D01*
X019337Y014202D01*
X019204Y014147D01*
X019085Y014067D01*
X018983Y013965D01*
X018903Y013846D01*
X018848Y013713D01*
X01882Y013572D01*
Y01355D01*
X0195D01*
Y01423D01*
D02*
G37*
G36*
X0378Y014738D02*
X037666Y014725D01*
X037537Y014686D01*
X037418Y014622D01*
X037313Y014537D01*
X037228Y014432D01*
X037164Y014313D01*
X037125Y014184D01*
X037112Y01405D01*
X037125Y013916D01*
X037164Y013787D01*
X037228Y013668D01*
X037313Y013563D01*
X037418Y013478D01*
X037537Y013414D01*
X037666Y013375D01*
X0378Y013362D01*
X037934Y013375D01*
X038063Y013414D01*
X038182Y013478D01*
X038287Y013563D01*
X038372Y013668D01*
X038436Y013787D01*
X038475Y013916D01*
X038488Y01405D01*
X038475Y014184D01*
X038436Y014313D01*
X038372Y014432D01*
X038287Y014537D01*
X038182Y014622D01*
X038063Y014686D01*
X037934Y014725D01*
X0378Y014738D01*
D02*
G37*
G36*
X036259Y014095D02*
X036141D01*
X036028Y014065D01*
X035927Y014006D01*
X035844Y013923D01*
X035785Y013822D01*
X035755Y013709D01*
Y013591D01*
X035785Y013478D01*
X035844Y013377D01*
X035927Y013294D01*
X036028Y013235D01*
X036141Y013205D01*
X036259D01*
X036372Y013235D01*
X036473Y013294D01*
X036556Y013377D01*
X036615Y013478D01*
X036645Y013591D01*
Y013709D01*
X036615Y013822D01*
X036556Y013923D01*
X036473Y014006D01*
X036372Y014065D01*
X036259Y014095D01*
D02*
G37*
G36*
X035259D02*
X035141D01*
X035028Y014065D01*
X034927Y014006D01*
X034844Y013923D01*
X034785Y013822D01*
X034755Y013709D01*
Y013591D01*
X034785Y013478D01*
X034844Y013377D01*
X034927Y013294D01*
X035028Y013235D01*
X035141Y013205D01*
X035259D01*
X035372Y013235D01*
X035473Y013294D01*
X035556Y013377D01*
X035615Y013478D01*
X035645Y013591D01*
Y013709D01*
X035615Y013822D01*
X035556Y013923D01*
X035473Y014006D01*
X035372Y014065D01*
X035259Y014095D01*
D02*
G37*
G36*
X032259D02*
X032141D01*
X032028Y014065D01*
X031927Y014006D01*
X031844Y013923D01*
X031785Y013822D01*
X031755Y013709D01*
Y013591D01*
X031785Y013478D01*
X031844Y013377D01*
X031927Y013294D01*
X032028Y013235D01*
X032141Y013205D01*
X032259D01*
X032372Y013235D01*
X032473Y013294D01*
X032556Y013377D01*
X032615Y013478D01*
X032645Y013591D01*
Y013709D01*
X032615Y013822D01*
X032556Y013923D01*
X032473Y014006D01*
X032372Y014065D01*
X032259Y014095D01*
D02*
G37*
G36*
X031259D02*
X031141D01*
X031028Y014065D01*
X030927Y014006D01*
X030844Y013923D01*
X030785Y013822D01*
X030755Y013709D01*
Y013591D01*
X030785Y013478D01*
X030844Y013377D01*
X030927Y013294D01*
X031028Y013235D01*
X031141Y013205D01*
X031259D01*
X031372Y013235D01*
X031473Y013294D01*
X031556Y013377D01*
X031615Y013478D01*
X031645Y013591D01*
Y013709D01*
X031615Y013822D01*
X031556Y013923D01*
X031473Y014006D01*
X031372Y014065D01*
X031259Y014095D01*
D02*
G37*
G36*
X030595Y0136D02*
X0302D01*
Y013205D01*
X030595D01*
Y0136D01*
D02*
G37*
G36*
X0301D02*
X029705D01*
Y013205D01*
X0301D01*
Y0136D01*
D02*
G37*
G36*
X029259Y014095D02*
X029141D01*
X029028Y014065D01*
X028927Y014006D01*
X028844Y013923D01*
X028785Y013822D01*
X028755Y013709D01*
Y013591D01*
X028785Y013478D01*
X028844Y013377D01*
X028927Y013294D01*
X029028Y013235D01*
X029141Y013205D01*
X029259D01*
X029372Y013235D01*
X029473Y013294D01*
X029556Y013377D01*
X029615Y013478D01*
X029645Y013591D01*
Y013709D01*
X029615Y013822D01*
X029556Y013923D01*
X029473Y014006D01*
X029372Y014065D01*
X029259Y014095D01*
D02*
G37*
G36*
X028259D02*
X028141D01*
X028028Y014065D01*
X027927Y014006D01*
X027844Y013923D01*
X027785Y013822D01*
X027755Y013709D01*
Y013591D01*
X027785Y013478D01*
X027844Y013377D01*
X027927Y013294D01*
X028028Y013235D01*
X028141Y013205D01*
X028259D01*
X028372Y013235D01*
X028473Y013294D01*
X028556Y013377D01*
X028615Y013478D01*
X028645Y013591D01*
Y013709D01*
X028615Y013822D01*
X028556Y013923D01*
X028473Y014006D01*
X028372Y014065D01*
X028259Y014095D01*
D02*
G37*
G36*
X027259D02*
X027141D01*
X027028Y014065D01*
X026927Y014006D01*
X026844Y013923D01*
X026785Y013822D01*
X026755Y013709D01*
Y013591D01*
X026785Y013478D01*
X026844Y013377D01*
X026927Y013294D01*
X027028Y013235D01*
X027141Y013205D01*
X027259D01*
X027372Y013235D01*
X027473Y013294D01*
X027556Y013377D01*
X027615Y013478D01*
X027645Y013591D01*
Y013709D01*
X027615Y013822D01*
X027556Y013923D01*
X027473Y014006D01*
X027372Y014065D01*
X027259Y014095D01*
D02*
G37*
G36*
X026259D02*
X026141D01*
X026028Y014065D01*
X025927Y014006D01*
X025844Y013923D01*
X025785Y013822D01*
X025755Y013709D01*
Y013591D01*
X025785Y013478D01*
X025844Y013377D01*
X025927Y013294D01*
X026028Y013235D01*
X026141Y013205D01*
X026259D01*
X026372Y013235D01*
X026473Y013294D01*
X026556Y013377D01*
X026615Y013478D01*
X026645Y013591D01*
Y013709D01*
X026615Y013822D01*
X026556Y013923D01*
X026473Y014006D01*
X026372Y014065D01*
X026259Y014095D01*
D02*
G37*
G36*
X025259D02*
X025141D01*
X025028Y014065D01*
X024927Y014006D01*
X024844Y013923D01*
X024785Y013822D01*
X024755Y013709D01*
Y013591D01*
X024785Y013478D01*
X024844Y013377D01*
X024927Y013294D01*
X025028Y013235D01*
X025141Y013205D01*
X025259D01*
X025372Y013235D01*
X025473Y013294D01*
X025556Y013377D01*
X025615Y013478D01*
X025645Y013591D01*
Y013709D01*
X025615Y013822D01*
X025556Y013923D01*
X025473Y014006D01*
X025372Y014065D01*
X025259Y014095D01*
D02*
G37*
G36*
X024259D02*
X024141D01*
X024028Y014065D01*
X023927Y014006D01*
X023844Y013923D01*
X023785Y013822D01*
X023755Y013709D01*
Y013591D01*
X023785Y013478D01*
X023844Y013377D01*
X023927Y013294D01*
X024028Y013235D01*
X024141Y013205D01*
X024259D01*
X024372Y013235D01*
X024473Y013294D01*
X024556Y013377D01*
X024615Y013478D01*
X024645Y013591D01*
Y013709D01*
X024615Y013822D01*
X024556Y013923D01*
X024473Y014006D01*
X024372Y014065D01*
X024259Y014095D01*
D02*
G37*
G36*
X023645Y0136D02*
X02325D01*
Y013205D01*
X023645D01*
Y0136D01*
D02*
G37*
G36*
X02315D02*
X022755D01*
Y013205D01*
X02315D01*
Y0136D01*
D02*
G37*
G36*
X022259Y014095D02*
X022141D01*
X022028Y014065D01*
X021927Y014006D01*
X021844Y013923D01*
X021785Y013822D01*
X021755Y013709D01*
Y013591D01*
X021785Y013478D01*
X021844Y013377D01*
X021927Y013294D01*
X022028Y013235D01*
X022141Y013205D01*
X022259D01*
X022372Y013235D01*
X022473Y013294D01*
X022556Y013377D01*
X022615Y013478D01*
X022645Y013591D01*
Y013709D01*
X022615Y013822D01*
X022556Y013923D01*
X022473Y014006D01*
X022372Y014065D01*
X022259Y014095D01*
D02*
G37*
G36*
X0195Y01345D02*
X01882D01*
Y013428D01*
X018848Y013287D01*
X018903Y013154D01*
X018983Y013035D01*
X019085Y012933D01*
X019204Y012853D01*
X019337Y012798D01*
X019478Y01277D01*
X0195D01*
Y01345D01*
D02*
G37*
%LPD*%
D10*
X03015Y01365D02*
X03095Y01285D01*
X04215D01*
X03525Y02365D02*
Y03065D01*
X03475Y03115D02*
X03525Y03065D01*
X03475Y03115D02*
Y0312D01*
X02575Y028736D02*
X026396Y028091D01*
X030359D02*
X031235Y027215D01*
X040584Y016466D02*
X04315D01*
X031235Y024065D02*
Y027215D01*
X026396Y028091D02*
X030359D01*
X04225Y02105D02*
X0423D01*
X042634Y021384D02*
Y02215D01*
X0423Y02105D02*
X042634Y021384D01*
X0431Y017284D02*
Y0178D01*
Y017284D02*
X04315Y017234D01*
X03405Y0201D02*
X05035D01*
X04975Y01935D02*
X05025Y01885D01*
X033705Y020445D02*
X03405Y0201D01*
X05035D02*
X05125Y0192D01*
X032705Y019995D02*
X03335Y01935D01*
X04975D01*
X05025Y0155D02*
Y01885D01*
X05125Y01465D02*
Y0192D01*
X042634Y0233D02*
X042784Y02315D01*
X04405D01*
X0356Y0233D02*
X041866D01*
X041866Y0233D02*
X041866Y0233D01*
X041866Y02215D02*
Y0233D01*
X041866Y02215D02*
X041866Y02215D01*
X03525Y02365D02*
X0356Y0233D01*
X0403Y01675D02*
Y01775D01*
X04005Y018D02*
X0403Y01775D01*
X0331Y018D02*
X04005D01*
X0403Y01675D02*
X040584Y016466D01*
X0501Y01535D02*
X05025Y0155D01*
X0317Y0194D02*
X0331Y018D01*
X042634Y02215D02*
X04405D01*
X046916Y017234D02*
X0471Y01705D01*
Y01535D02*
Y01705D01*
X04315Y017234D02*
X046916D01*
X04705Y0153D02*
X0471Y01535D01*
X04705Y0133D02*
Y0153D01*
X04661Y01286D02*
X04705Y0133D01*
X04465Y01286D02*
X04661D01*
X044645Y012855D02*
X04465Y01286D01*
X04215Y01285D02*
X042155Y012855D01*
X044645D01*
X04214Y01463D02*
X04464D01*
X0421Y016466D02*
X04214Y016426D01*
Y01463D02*
Y016426D01*
X033191Y0161D02*
X03325Y016041D01*
X0315Y0161D02*
X033191D01*
X03325Y01365D02*
Y016041D01*
X03395Y0165D02*
X0342Y01625D01*
X0317Y0165D02*
X03395D01*
X0312Y017D02*
X0317Y0165D01*
X0342Y01365D02*
Y01625D01*
X0312Y017D02*
Y02035D01*
X03Y02075D02*
X0308D01*
X0312Y02035D01*
X03075Y01685D02*
Y02015D01*
X0306Y0203D02*
X03075Y02015D01*
X02955Y0203D02*
X0306D01*
X028705Y021145D02*
X02955Y0203D01*
X03075Y01685D02*
X0315Y0161D01*
X029755Y020995D02*
Y023745D01*
Y020995D02*
X03Y02075D01*
X02925Y02425D02*
X029755Y023745D01*
X02585Y02425D02*
X02925D01*
X028705Y021145D02*
Y023445D01*
X02855Y0236D02*
X028705Y023445D01*
X02525Y0236D02*
X02855D01*
X02485Y024D02*
X02525Y0236D01*
X02485Y024D02*
Y0251D01*
X02575Y02435D02*
Y0252D01*
Y02435D02*
X02585Y02425D01*
X02475Y0252D02*
X02485Y0251D01*
X0317Y0194D02*
Y0236D01*
X02895Y018141D02*
X028954Y018146D01*
X02895Y0171D02*
Y018141D01*
X028954Y018146D02*
X029996D01*
X031235Y024065D02*
X0317Y0236D01*
X02575Y028736D02*
Y0312D01*
X033705Y023668D02*
X03375Y023713D01*
X033705Y020445D02*
Y023668D01*
X03375Y023713D02*
Y0252D01*
X032705Y019995D02*
Y023668D01*
X03275Y023713D02*
Y0252D01*
X032705Y023668D02*
X03275Y023713D01*
X02165Y037D02*
X0303D01*
X03275Y03455D01*
X0299Y036D02*
X03175Y03415D01*
X02165Y036D02*
X0299D01*
X02465Y01575D02*
Y016482D01*
Y01725D02*
Y0194D01*
X0245Y01955D02*
X02465Y0194D01*
X023839Y01955D02*
X0245D01*
X0494Y0143D02*
X0509D01*
X04905Y01465D02*
X0494Y0143D01*
X04905Y01465D02*
Y0153D01*
X0509Y0143D02*
X05125Y01465D01*
X04905Y0153D02*
X0491Y01535D01*
X028959Y016341D02*
X029991D01*
X03Y01635D01*
X02895Y016332D02*
X028959Y016341D01*
X02935Y034D02*
X0298Y03355D01*
X02165Y034D02*
X02935D01*
X0296Y035D02*
X03075Y03385D01*
X02165Y035D02*
X0296D01*
X03275Y0312D02*
Y03455D01*
X03075Y0312D02*
Y03385D01*
X03175Y0312D02*
Y03415D01*
X0298Y03125D02*
Y03355D01*
X02975Y0312D02*
X0298Y03125D01*
X025684Y016432D02*
X026492D01*
X026526Y016397D01*
X02565Y016466D02*
X025684Y016432D01*
X0269Y017303D02*
X02861D01*
X028813Y0171D01*
X02895D01*
X02565Y01835D02*
X02585Y01855D01*
X027461D01*
X02565Y017234D02*
Y01835D01*
X0571Y0401D02*
G03*
X0561Y0411I-001J0D01*
G01*
Y01205D02*
G03*
X0571Y01305I0J001D01*
G01*
X01945Y0411D02*
G03*
X01845Y0401I0J-001D01*
G01*
Y01305D02*
G03*
X01945Y01205I001J0D01*
G01*
X0561D01*
X01945Y0411D02*
X0561D01*
X0571Y01305D02*
Y0401D01*
X01845Y01305D02*
Y0401D01*
D11*
X0222Y0211D02*
Y02265D01*
Y0211D02*
X02255Y02075D01*
X0271D01*
X027461Y020389D01*
Y01955D02*
Y020389D01*
X04125Y0174D02*
Y0184D01*
X04095Y0187D02*
X04125Y0184D01*
Y0174D02*
X041416Y017234D01*
X0421D01*
X03875Y0187D02*
X04095D01*
X029882Y019559D02*
X029923Y0196D01*
X02895Y019559D02*
X029882D01*
X029923Y0196D02*
X02995D01*
X028946Y019554D02*
X02895Y019559D01*
X027465Y019554D02*
X028946D01*
X027461Y01955D02*
X027465Y019554D01*
X03485Y03225D02*
X044029D01*
X03425Y03285D02*
Y03565D01*
Y03285D02*
X03485Y03225D01*
X0309Y039D02*
X03425Y03565D01*
X02165Y039D02*
X0309D01*
X0394Y0271D02*
X0402Y0279D01*
Y0314D01*
X03735Y0271D02*
X0394D01*
X04155D01*
X0402Y0314D02*
X041Y0322D01*
X044329Y03195D02*
X0446D01*
X044029Y03225D02*
X044329Y03195D01*
X04205Y02505D02*
Y0266D01*
X04155Y0271D02*
X04205Y0266D01*
X03675Y0252D02*
Y0265D01*
X03735Y0271D01*
D21*
X02465Y016482D02*
D03*
Y01725D02*
D03*
X02895Y016332D02*
D03*
Y0171D02*
D03*
X02565Y017234D02*
D03*
Y016466D02*
D03*
X0421Y016466D02*
D03*
Y017234D02*
D03*
X04315Y017234D02*
D03*
Y016466D02*
D03*
D22*
X0269Y017303D02*
D03*
D23*
X026526Y016397D02*
D03*
X027274D02*
D03*
D24*
X041866Y0233D02*
D03*
X042634D02*
D03*
X042634Y02215D02*
D03*
X041866D02*
D03*
D25*
X02895Y019559D02*
D03*
Y018141D02*
D03*
D26*
X023839Y01955D02*
D03*
Y01855D02*
D03*
X027461Y01955D02*
D03*
Y01855D02*
D03*
D46*
X0534Y02755D02*
D03*
D47*
Y02955D02*
D03*
Y03155D02*
D03*
D51*
X01955Y0398D02*
D03*
Y0135D02*
D03*
X05575D02*
D03*
Y0398D02*
D03*
D52*
X02165Y04D02*
D03*
X04405Y02415D02*
D03*
D53*
X02165Y039D02*
D03*
Y038D02*
D03*
Y037D02*
D03*
Y036D02*
D03*
Y035D02*
D03*
Y034D02*
D03*
X04105Y02505D02*
D03*
X04405Y02215D02*
D03*
Y02315D02*
D03*
D54*
X0312Y01365D02*
D03*
X0322D02*
D03*
X03325D02*
D03*
X0342D02*
D03*
X0352D02*
D03*
X0362D02*
D03*
X0292D02*
D03*
X0282D02*
D03*
X0272D02*
D03*
X0242D02*
D03*
X0252D02*
D03*
X0262D02*
D03*
X0222D02*
D03*
X0312Y02265D02*
D03*
X0322D02*
D03*
X0332D02*
D03*
X0342D02*
D03*
X0352D02*
D03*
X0362D02*
D03*
X03025D02*
D03*
X0292D02*
D03*
X0282D02*
D03*
X0242D02*
D03*
X0252D02*
D03*
X0262D02*
D03*
X0222D02*
D03*
D55*
X03015Y01365D02*
D03*
X0232D02*
D03*
X02715Y02265D02*
D03*
X0232D02*
D03*
D56*
X0535Y02225D02*
D03*
D57*
Y02425D02*
D03*
D58*
X04205Y02505D02*
D03*
D59*
X03875Y0252D02*
D03*
Y0312D02*
D03*
X03775Y0252D02*
D03*
Y0312D02*
D03*
X03675Y0252D02*
D03*
Y0312D02*
D03*
X03575Y0252D02*
D03*
Y0312D02*
D03*
X03475Y0252D02*
D03*
Y0312D02*
D03*
X03375Y0252D02*
D03*
Y0312D02*
D03*
X03275Y0252D02*
D03*
Y0312D02*
D03*
X03175Y0252D02*
D03*
Y0312D02*
D03*
X03075Y0252D02*
D03*
Y0312D02*
D03*
X02975Y0252D02*
D03*
Y0312D02*
D03*
X02875Y0252D02*
D03*
Y0312D02*
D03*
X02775Y0252D02*
D03*
Y0312D02*
D03*
X02675Y0252D02*
D03*
Y0312D02*
D03*
X02575Y0252D02*
D03*
Y0312D02*
D03*
X02475Y0252D02*
D03*
Y0312D02*
D03*
X02375Y0252D02*
D03*
Y0312D02*
D03*
X02275Y0252D02*
D03*
Y0312D02*
D03*
X02175Y0252D02*
D03*
Y0312D02*
D03*
X02075Y0252D02*
D03*
Y0312D02*
D03*
X01975D02*
D03*
D60*
Y0252D02*
D03*
D61*
X0501Y01535D02*
D03*
D62*
X0491D02*
D03*
X0481D02*
D03*
X0471D02*
D03*
D63*
X0446Y03195D02*
D03*
X0494Y02715D02*
D03*
X0436Y02955D02*
D03*
X0494Y03195D02*
D03*
X0446Y02715D02*
D03*
D64*
X04214Y01463D02*
D03*
X04215Y01285D02*
D03*
X04465Y01286D02*
D03*
X04464Y01463D02*
D03*
D65*
X04225Y02105D02*
D03*
X0431Y0178D02*
D03*
X02995Y0196D02*
D03*
X029996Y018146D02*
D03*
X03875Y0187D02*
D03*
X02465Y01575D02*
D03*
X03Y01635D02*
D03*
M02*
