G04*
G04 #@! TF.GenerationSoftware,Altium Limited,Altium Designer,21.3.2 (30)*
G04*
G04 Layer_Color=2752767*
%FSTAX24Y24*%
%MOIN*%
G70*
G04*
G04 #@! TF.SameCoordinates,DBE85665-E0BB-432C-AE5E-D4A4B8DC2BF9*
G04*
G04*
G04 #@! TF.FilePolarity,Positive*
G04*
G01*
G75*
%ADD72C,0.0020*%
%ADD73C,0.0027*%
D72*
X01947Y03972D02*
Y03988D01*
X01963D01*
Y03972D01*
X01947D01*
Y01342D02*
Y01358D01*
X01963D01*
Y01342D01*
X01947D01*
X05567D02*
Y01358D01*
X05583D01*
Y01342D01*
X05567D01*
Y03972D02*
Y03988D01*
X05583D01*
Y03972D01*
X05567D01*
X0312Y01357D02*
X03112Y01373D01*
X03128D01*
X0312Y01357D01*
X0322D02*
X03212Y01373D01*
X03228D01*
X0322Y01357D01*
X03325D02*
X03317Y01373D01*
X03333D01*
X03325Y01357D01*
X0342D02*
X03412Y01373D01*
X03428D01*
X0342Y01357D01*
X0352D02*
X03512Y01373D01*
X03528D01*
X0352Y01357D01*
X0362D02*
X03612Y01373D01*
X03628D01*
X0362Y01357D01*
X03015D02*
X03007Y01373D01*
X03023D01*
X03015Y01357D01*
X0292D02*
X02912Y01373D01*
X02928D01*
X0292Y01357D01*
X0282D02*
X02812Y01373D01*
X02828D01*
X0282Y01357D01*
X0272D02*
X02712Y01373D01*
X02728D01*
X0272Y01357D01*
X0232D02*
X02312Y01373D01*
X02328D01*
X0232Y01357D01*
X0242D02*
X02412Y01373D01*
X02428D01*
X0242Y01357D01*
X0252D02*
X02512Y01373D01*
X02528D01*
X0252Y01357D01*
X0262D02*
X02612Y01373D01*
X02628D01*
X0262Y01357D01*
X0222D02*
X02212Y01373D01*
X02228D01*
X0222Y01357D01*
X0312Y02257D02*
X03112Y02273D01*
X03128D01*
X0312Y02257D01*
X0322D02*
X03212Y02273D01*
X03228D01*
X0322Y02257D01*
X0332D02*
X03312Y02273D01*
X03328D01*
X0332Y02257D01*
X0342D02*
X03412Y02273D01*
X03428D01*
X0342Y02257D01*
X0352D02*
X03512Y02273D01*
X03528D01*
X0352Y02257D01*
X0362D02*
X03612Y02273D01*
X03628D01*
X0362Y02257D01*
X03025D02*
X03017Y02273D01*
X03033D01*
X03025Y02257D01*
X0292D02*
X02912Y02273D01*
X02928D01*
X0292Y02257D01*
X0282D02*
X02812Y02273D01*
X02828D01*
X0282Y02257D01*
X02715D02*
X02707Y02273D01*
X02723D01*
X02715Y02257D01*
X0232D02*
X02312Y02273D01*
X02328D01*
X0232Y02257D01*
X0242D02*
X02412Y02273D01*
X02428D01*
X0242Y02257D01*
X0252D02*
X02512Y02273D01*
X02528D01*
X0252Y02257D01*
X0262D02*
X02612Y02273D01*
X02628D01*
X0262Y02257D01*
X0222D02*
X02212Y02273D01*
X02228D01*
X0222Y02257D01*
X0535Y02217D02*
X05354Y02221D01*
X05358D01*
X05354Y02225D01*
X05358Y02229D01*
X05354D01*
X0535Y02233D01*
X05346Y02229D01*
X05342D01*
X05346Y02225D01*
X05342Y02221D01*
X05346D01*
X0535Y02217D01*
Y02417D02*
X05354Y02421D01*
X05358D01*
X05354Y02425D01*
X05358Y02429D01*
X05354D01*
X0535Y02433D01*
X05346Y02429D01*
X05342D01*
X05346Y02425D01*
X05342Y02421D01*
X05346D01*
X0535Y02417D01*
X03867Y02512D02*
X03871Y0252D01*
X03867Y02528D01*
X03875Y02524D01*
X03883Y02528D01*
X03879Y0252D01*
X03883Y02512D01*
X03875Y02516D01*
X03867Y02512D01*
Y03112D02*
X03871Y0312D01*
X03867Y03128D01*
X03875Y03124D01*
X03883Y03128D01*
X03879Y0312D01*
X03883Y03112D01*
X03875Y03116D01*
X03867Y03112D01*
X03767Y02512D02*
X03771Y0252D01*
X03767Y02528D01*
X03775Y02524D01*
X03783Y02528D01*
X03779Y0252D01*
X03783Y02512D01*
X03775Y02516D01*
X03767Y02512D01*
Y03112D02*
X03771Y0312D01*
X03767Y03128D01*
X03775Y03124D01*
X03783Y03128D01*
X03779Y0312D01*
X03783Y03112D01*
X03775Y03116D01*
X03767Y03112D01*
X03667Y02512D02*
X03671Y0252D01*
X03667Y02528D01*
X03675Y02524D01*
X03683Y02528D01*
X03679Y0252D01*
X03683Y02512D01*
X03675Y02516D01*
X03667Y02512D01*
Y03112D02*
X03671Y0312D01*
X03667Y03128D01*
X03675Y03124D01*
X03683Y03128D01*
X03679Y0312D01*
X03683Y03112D01*
X03675Y03116D01*
X03667Y03112D01*
X03567Y02512D02*
X03571Y0252D01*
X03567Y02528D01*
X03575Y02524D01*
X03583Y02528D01*
X03579Y0252D01*
X03583Y02512D01*
X03575Y02516D01*
X03567Y02512D01*
Y03112D02*
X03571Y0312D01*
X03567Y03128D01*
X03575Y03124D01*
X03583Y03128D01*
X03579Y0312D01*
X03583Y03112D01*
X03575Y03116D01*
X03567Y03112D01*
X03467Y02512D02*
X03471Y0252D01*
X03467Y02528D01*
X03475Y02524D01*
X03483Y02528D01*
X03479Y0252D01*
X03483Y02512D01*
X03475Y02516D01*
X03467Y02512D01*
Y03112D02*
X03471Y0312D01*
X03467Y03128D01*
X03475Y03124D01*
X03483Y03128D01*
X03479Y0312D01*
X03483Y03112D01*
X03475Y03116D01*
X03467Y03112D01*
X03367Y02512D02*
X03371Y0252D01*
X03367Y02528D01*
X03375Y02524D01*
X03383Y02528D01*
X03379Y0252D01*
X03383Y02512D01*
X03375Y02516D01*
X03367Y02512D01*
Y03112D02*
X03371Y0312D01*
X03367Y03128D01*
X03375Y03124D01*
X03383Y03128D01*
X03379Y0312D01*
X03383Y03112D01*
X03375Y03116D01*
X03367Y03112D01*
X03267Y02512D02*
X03271Y0252D01*
X03267Y02528D01*
X03275Y02524D01*
X03283Y02528D01*
X03279Y0252D01*
X03283Y02512D01*
X03275Y02516D01*
X03267Y02512D01*
Y03112D02*
X03271Y0312D01*
X03267Y03128D01*
X03275Y03124D01*
X03283Y03128D01*
X03279Y0312D01*
X03283Y03112D01*
X03275Y03116D01*
X03267Y03112D01*
X03167Y02512D02*
X03171Y0252D01*
X03167Y02528D01*
X03175Y02524D01*
X03183Y02528D01*
X03179Y0252D01*
X03183Y02512D01*
X03175Y02516D01*
X03167Y02512D01*
Y03112D02*
X03171Y0312D01*
X03167Y03128D01*
X03175Y03124D01*
X03183Y03128D01*
X03179Y0312D01*
X03183Y03112D01*
X03175Y03116D01*
X03167Y03112D01*
X03067Y02512D02*
X03071Y0252D01*
X03067Y02528D01*
X03075Y02524D01*
X03083Y02528D01*
X03079Y0252D01*
X03083Y02512D01*
X03075Y02516D01*
X03067Y02512D01*
Y03112D02*
X03071Y0312D01*
X03067Y03128D01*
X03075Y03124D01*
X03083Y03128D01*
X03079Y0312D01*
X03083Y03112D01*
X03075Y03116D01*
X03067Y03112D01*
X02967Y02512D02*
X02971Y0252D01*
X02967Y02528D01*
X02975Y02524D01*
X02983Y02528D01*
X02979Y0252D01*
X02983Y02512D01*
X02975Y02516D01*
X02967Y02512D01*
Y03112D02*
X02971Y0312D01*
X02967Y03128D01*
X02975Y03124D01*
X02983Y03128D01*
X02979Y0312D01*
X02983Y03112D01*
X02975Y03116D01*
X02967Y03112D01*
X02867Y02512D02*
X02871Y0252D01*
X02867Y02528D01*
X02875Y02524D01*
X02883Y02528D01*
X02879Y0252D01*
X02883Y02512D01*
X02875Y02516D01*
X02867Y02512D01*
Y03112D02*
X02871Y0312D01*
X02867Y03128D01*
X02875Y03124D01*
X02883Y03128D01*
X02879Y0312D01*
X02883Y03112D01*
X02875Y03116D01*
X02867Y03112D01*
X02767Y02512D02*
X02771Y0252D01*
X02767Y02528D01*
X02775Y02524D01*
X02783Y02528D01*
X02779Y0252D01*
X02783Y02512D01*
X02775Y02516D01*
X02767Y02512D01*
Y03112D02*
X02771Y0312D01*
X02767Y03128D01*
X02775Y03124D01*
X02783Y03128D01*
X02779Y0312D01*
X02783Y03112D01*
X02775Y03116D01*
X02767Y03112D01*
X02667Y02512D02*
X02671Y0252D01*
X02667Y02528D01*
X02675Y02524D01*
X02683Y02528D01*
X02679Y0252D01*
X02683Y02512D01*
X02675Y02516D01*
X02667Y02512D01*
Y03112D02*
X02671Y0312D01*
X02667Y03128D01*
X02675Y03124D01*
X02683Y03128D01*
X02679Y0312D01*
X02683Y03112D01*
X02675Y03116D01*
X02667Y03112D01*
X02567Y02512D02*
X02571Y0252D01*
X02567Y02528D01*
X02575Y02524D01*
X02583Y02528D01*
X02579Y0252D01*
X02583Y02512D01*
X02575Y02516D01*
X02567Y02512D01*
Y03112D02*
X02571Y0312D01*
X02567Y03128D01*
X02575Y03124D01*
X02583Y03128D01*
X02579Y0312D01*
X02583Y03112D01*
X02575Y03116D01*
X02567Y03112D01*
X02467Y02512D02*
X02471Y0252D01*
X02467Y02528D01*
X02475Y02524D01*
X02483Y02528D01*
X02479Y0252D01*
X02483Y02512D01*
X02475Y02516D01*
X02467Y02512D01*
Y03112D02*
X02471Y0312D01*
X02467Y03128D01*
X02475Y03124D01*
X02483Y03128D01*
X02479Y0312D01*
X02483Y03112D01*
X02475Y03116D01*
X02467Y03112D01*
X02367Y02512D02*
X02371Y0252D01*
X02367Y02528D01*
X02375Y02524D01*
X02383Y02528D01*
X02379Y0252D01*
X02383Y02512D01*
X02375Y02516D01*
X02367Y02512D01*
Y03112D02*
X02371Y0312D01*
X02367Y03128D01*
X02375Y03124D01*
X02383Y03128D01*
X02379Y0312D01*
X02383Y03112D01*
X02375Y03116D01*
X02367Y03112D01*
X02267Y02512D02*
X02271Y0252D01*
X02267Y02528D01*
X02275Y02524D01*
X02283Y02528D01*
X02279Y0252D01*
X02283Y02512D01*
X02275Y02516D01*
X02267Y02512D01*
Y03112D02*
X02271Y0312D01*
X02267Y03128D01*
X02275Y03124D01*
X02283Y03128D01*
X02279Y0312D01*
X02283Y03112D01*
X02275Y03116D01*
X02267Y03112D01*
X02167Y02512D02*
X02171Y0252D01*
X02167Y02528D01*
X02175Y02524D01*
X02183Y02528D01*
X02179Y0252D01*
X02183Y02512D01*
X02175Y02516D01*
X02167Y02512D01*
Y03112D02*
X02171Y0312D01*
X02167Y03128D01*
X02175Y03124D01*
X02183Y03128D01*
X02179Y0312D01*
X02183Y03112D01*
X02175Y03116D01*
X02167Y03112D01*
X02067Y02512D02*
X02071Y0252D01*
X02067Y02528D01*
X02075Y02524D01*
X02083Y02528D01*
X02079Y0252D01*
X02083Y02512D01*
X02075Y02516D01*
X02067Y02512D01*
Y03112D02*
X02071Y0312D01*
X02067Y03128D01*
X02075Y03124D01*
X02083Y03128D01*
X02079Y0312D01*
X02083Y03112D01*
X02075Y03116D01*
X02067Y03112D01*
X01967Y02512D02*
X01971Y0252D01*
X01967Y02528D01*
X01975Y02524D01*
X01983Y02528D01*
X01979Y0252D01*
X01983Y02512D01*
X01975Y02516D01*
X01967Y02512D01*
Y03112D02*
X01971Y0312D01*
X01967Y03128D01*
X01975Y03124D01*
X01983Y03128D01*
X01979Y0312D01*
X01983Y03112D01*
X01975Y03116D01*
X01967Y03112D01*
X05002Y01527D02*
X05006Y01535D01*
X05002Y01543D01*
X0501Y01539D01*
X05018Y01543D01*
X05014Y01535D01*
X05018Y01527D01*
X0501Y01531D01*
X05002Y01527D01*
X04902D02*
X04906Y01535D01*
X04902Y01543D01*
X0491Y01539D01*
X04918Y01543D01*
X04914Y01535D01*
X04918Y01527D01*
X0491Y01531D01*
X04902Y01527D01*
X04802D02*
X04806Y01535D01*
X04802Y01543D01*
X0481Y01539D01*
X04818Y01543D01*
X04814Y01535D01*
X04818Y01527D01*
X0481Y01531D01*
X04802Y01527D01*
X04702D02*
X04706Y01535D01*
X04702Y01543D01*
X0471Y01539D01*
X04718Y01543D01*
X04714Y01535D01*
X04718Y01527D01*
X0471Y01531D01*
X04702Y01527D01*
X05336Y02951D02*
Y02947D01*
X05344D01*
Y02951D01*
X05348D01*
Y02959D01*
X05344D01*
Y02963D01*
X05336D01*
Y02959D01*
X05332D01*
Y02951D01*
X05336D01*
Y02751D02*
Y02747D01*
X05344D01*
Y02751D01*
X05348D01*
Y02759D01*
X05344D01*
Y02763D01*
X05336D01*
Y02759D01*
X05332D01*
Y02751D01*
X05336D01*
Y03151D02*
Y03147D01*
X05344D01*
Y03151D01*
X05348D01*
Y03159D01*
X05344D01*
Y03163D01*
X05336D01*
Y03159D01*
X05332D01*
Y03151D01*
X05336D01*
X04452Y03187D02*
X04456D01*
X0446Y03191D01*
X04464Y03187D01*
X04468D01*
Y03191D01*
X04464Y03195D01*
X04468Y03199D01*
Y03203D01*
X04464D01*
X0446Y03199D01*
X04456Y03203D01*
X04452D01*
Y03199D01*
X04456Y03195D01*
X04452Y03191D01*
Y03187D01*
X04932Y02707D02*
X04936D01*
X0494Y02711D01*
X04944Y02707D01*
X04948D01*
Y02711D01*
X04944Y02715D01*
X04948Y02719D01*
Y02723D01*
X04944D01*
X0494Y02719D01*
X04936Y02723D01*
X04932D01*
Y02719D01*
X04936Y02715D01*
X04932Y02711D01*
Y02707D01*
X04352Y02947D02*
X04356D01*
X0436Y02951D01*
X04364Y02947D01*
X04368D01*
Y02951D01*
X04364Y02955D01*
X04368Y02959D01*
Y02963D01*
X04364D01*
X0436Y02959D01*
X04356Y02963D01*
X04352D01*
Y02959D01*
X04356Y02955D01*
X04352Y02951D01*
Y02947D01*
X04932Y03187D02*
X04936D01*
X0494Y03191D01*
X04944Y03187D01*
X04948D01*
Y03191D01*
X04944Y03195D01*
X04948Y03199D01*
Y03203D01*
X04944D01*
X0494Y03199D01*
X04936Y03203D01*
X04932D01*
Y03199D01*
X04936Y03195D01*
X04932Y03191D01*
Y03187D01*
X04452Y02707D02*
X04456D01*
X0446Y02711D01*
X04464Y02707D01*
X04468D01*
Y02711D01*
X04464Y02715D01*
X04468Y02719D01*
Y02723D01*
X04464D01*
X0446Y02719D01*
X04456Y02723D01*
X04452D01*
Y02719D01*
X04456Y02715D01*
X04452Y02711D01*
Y02707D01*
X04206Y01463D02*
X04214Y01471D01*
X04222Y01463D01*
X04214Y01455D01*
X04206Y01463D01*
X04207Y01285D02*
X04215Y01293D01*
X04223Y01285D01*
X04215Y01277D01*
X04207Y01285D01*
X04457Y01286D02*
X04465Y01294D01*
X04473Y01286D01*
X04465Y01278D01*
X04457Y01286D01*
X04456Y01463D02*
X04464Y01471D01*
X04472Y01463D01*
X04464Y01455D01*
X04456Y01463D01*
X04217Y02097D02*
Y02113D01*
X04233D01*
Y02097D01*
X04217D01*
X04221Y02101D02*
Y02109D01*
X04229D01*
Y02101D01*
X04221D01*
X04302Y01772D02*
Y01788D01*
X04318D01*
Y01772D01*
X04302D01*
X04306Y01776D02*
Y01784D01*
X04314D01*
Y01776D01*
X04306D01*
X02987Y01952D02*
Y01968D01*
X03003D01*
Y01952D01*
X02987D01*
X02991Y01956D02*
Y01964D01*
X02999D01*
Y01956D01*
X02991D01*
X029916Y018066D02*
Y018226D01*
X030076D01*
Y018066D01*
X029916D01*
X029956Y018106D02*
Y018186D01*
X030036D01*
Y018106D01*
X029956D01*
X03867Y01862D02*
Y01878D01*
X03883D01*
Y01862D01*
X03867D01*
X03871Y01866D02*
Y01874D01*
X03879D01*
Y01866D01*
X03871D01*
X02457Y01567D02*
Y01583D01*
X02473D01*
Y01567D01*
X02457D01*
X02461Y01571D02*
Y01579D01*
X02469D01*
Y01571D01*
X02461D01*
X02992Y01627D02*
Y01643D01*
X03008D01*
Y01627D01*
X02992D01*
X02996Y01631D02*
Y01639D01*
X03004D01*
Y01631D01*
X02996D01*
D73*
X02173Y04D02*
G03*
X02173Y04I-00008J0D01*
G01*
Y039D02*
G03*
X02173Y039I-00008J0D01*
G01*
Y038D02*
G03*
X02173Y038I-00008J0D01*
G01*
Y037D02*
G03*
X02173Y037I-00008J0D01*
G01*
Y036D02*
G03*
X02173Y036I-00008J0D01*
G01*
Y035D02*
G03*
X02173Y035I-00008J0D01*
G01*
Y034D02*
G03*
X02173Y034I-00008J0D01*
G01*
X04113Y02505D02*
G03*
X04113Y02505I-00008J0D01*
G01*
X04213D02*
G03*
X04213Y02505I-00008J0D01*
G01*
X04413Y02215D02*
G03*
X04413Y02215I-00008J0D01*
G01*
Y02315D02*
G03*
X04413Y02315I-00008J0D01*
G01*
Y02415D02*
G03*
X04413Y02415I-00008J0D01*
G01*
M02*
