G04*
G04 #@! TF.GenerationSoftware,Altium Limited,Altium Designer,21.3.2 (30)*
G04*
G04 Layer_Color=8388736*
%FSTAX24Y24*%
%MOIN*%
G70*
G04*
G04 #@! TF.SameCoordinates,3F72B3F3-355C-4D10-ABE1-49D594E9BB7B*
G04*
G04*
G04 #@! TF.FilePolarity,Positive*
G04*
G01*
G75*
%ADD12C,0.0047*%
%ADD18C,0.0039*%
%ADD19C,0.0059*%
D12*
X018817Y032649D02*
X039683D01*
Y023751D02*
Y032649D01*
X018837Y023751D02*
X039683D01*
X018817D02*
Y032649D01*
D18*
X01925Y0307D02*
X03925D01*
Y0317D01*
X01925D02*
X03925D01*
X01925Y0307D02*
Y0317D01*
X0195Y0247D02*
X03925D01*
Y0257D01*
X01925D02*
X03925D01*
X01925Y02495D02*
Y0257D01*
Y02495D02*
X0195Y0247D01*
X018837Y029735D02*
X02112D01*
X018837Y026665D02*
X02112D01*
Y029735D01*
D19*
X030011Y028062D02*
Y028456D01*
Y028062D02*
X029842D01*
X029786Y028081D01*
X029767Y0281D01*
X029749Y028137D01*
Y028175D01*
X029767Y028212D01*
X029786Y028231D01*
X029842Y02825D01*
X030011D01*
X02988D02*
X029749Y028456D01*
X029417Y028062D02*
X02966D01*
Y028456D01*
X029417D01*
X02966Y02825D02*
X029511D01*
X029351Y028062D02*
Y028456D01*
Y028062D02*
X029108D01*
X029351Y02825D02*
X029201D01*
X028969Y028062D02*
Y028287D01*
X029063Y028118D02*
X028875Y028231D01*
Y028118D02*
X029063Y028231D01*
X028701Y028062D02*
Y028287D01*
X028795Y028118D02*
X028607Y028231D01*
Y028118D02*
X028795Y028231D01*
M02*
