G04*
G04 #@! TF.GenerationSoftware,Altium Limited,Altium Designer,21.3.2 (30)*
G04*
G04 Layer_Color=128*
%FSTAX24Y24*%
%MOIN*%
G70*
G04*
G04 #@! TF.SameCoordinates,655743E2-E340-4FCB-8EBE-1CC431C952CD*
G04*
G04*
G04 #@! TF.FilePolarity,Positive*
G04*
G01*
G75*
%ADD55C,0.0020*%
D55*
X035155Y0211D02*
X035545D01*
X03535Y020905D02*
Y021295D01*
X031205Y02605D02*
X031595D01*
X0314Y025855D02*
Y026245D01*
X038153Y02815D02*
X038547D01*
X03835Y027953D02*
Y028347D01*
X042373Y015856D02*
X042727D01*
X04255Y015679D02*
Y016033D01*
X048035Y0227D02*
X048425D01*
X04823Y022505D02*
Y022895D01*
X046505Y03845D02*
X047095D01*
X0468Y038155D02*
Y038745D01*
X048505Y03845D02*
X049095D01*
X0488Y038155D02*
Y038745D01*
X044505Y03845D02*
X045095D01*
X0448Y038155D02*
Y038745D01*
X047035Y0227D02*
X047425D01*
X04723Y022505D02*
Y022895D01*
X046035Y0227D02*
X046425D01*
X04623Y022505D02*
Y022895D01*
X045035Y0227D02*
X045425D01*
X04523Y022505D02*
Y022895D01*
X04922Y03415D02*
X05048D01*
X04985Y03352D02*
Y03478D01*
X02437Y03415D02*
X02563D01*
X025Y03352D02*
Y03478D01*
X02437Y01625D02*
X02563D01*
X025Y01562D02*
Y01688D01*
X049259Y01625D02*
X050441D01*
X04985Y015659D02*
Y016841D01*
X041373Y015856D02*
X041727D01*
X04155Y015679D02*
Y016033D01*
X040373Y015856D02*
X040727D01*
X04055Y015679D02*
Y016033D01*
X039153Y02815D02*
X039547D01*
X03935Y027953D02*
Y028347D01*
X037153Y02815D02*
X037547D01*
X03735Y027953D02*
Y028347D01*
X036153Y02815D02*
X036547D01*
X03635Y027953D02*
Y028347D01*
X035153Y02815D02*
X035547D01*
X03535Y027953D02*
Y028347D01*
X034153Y02815D02*
X034547D01*
X03435Y027953D02*
Y028347D01*
X033153Y02815D02*
X033547D01*
X03335Y027953D02*
Y028347D01*
X032153Y02815D02*
X032547D01*
X03235Y027953D02*
Y028347D01*
X031153Y02815D02*
X031547D01*
X03135Y027953D02*
Y028347D01*
X030153Y02815D02*
X030547D01*
X03035Y027953D02*
Y028347D01*
X029153Y02815D02*
X029547D01*
X02935Y027953D02*
Y028347D01*
X028153Y02815D02*
X028547D01*
X02835Y027953D02*
Y028347D01*
X027153Y02815D02*
X027547D01*
X02735Y027953D02*
Y028347D01*
X027153Y03415D02*
X027547D01*
X02735Y033953D02*
Y034347D01*
X028153Y03415D02*
X028547D01*
X02835Y033953D02*
Y034347D01*
X029153Y03415D02*
X029547D01*
X02935Y033953D02*
Y034347D01*
X030153Y03415D02*
X030547D01*
X03035Y033953D02*
Y034347D01*
X031153Y03415D02*
X031547D01*
X03135Y033953D02*
Y034347D01*
X032153Y03415D02*
X032547D01*
X03235Y033953D02*
Y034347D01*
X033153Y03415D02*
X033547D01*
X03335Y033953D02*
Y034347D01*
X034153Y03415D02*
X034547D01*
X03435Y033953D02*
Y034347D01*
X035153Y03415D02*
X035547D01*
X03535Y033953D02*
Y034347D01*
X036153Y03415D02*
X036547D01*
X03635Y033953D02*
Y034347D01*
X037153Y03415D02*
X037547D01*
X03735Y033953D02*
Y034347D01*
X038153Y03415D02*
X038547D01*
X03835Y033953D02*
Y034347D01*
X039153Y03415D02*
X039547D01*
X03935Y033953D02*
Y034347D01*
X040153Y03415D02*
X040547D01*
X04035Y033953D02*
Y034347D01*
X041153Y03415D02*
X041547D01*
X04135Y033953D02*
Y034347D01*
X040153Y02815D02*
X040547D01*
X04035Y027953D02*
Y028347D01*
X041153Y02815D02*
X041547D01*
X04135Y027953D02*
Y028347D01*
X030103Y0156D02*
X030497D01*
X0303Y015403D02*
Y015797D01*
X029105Y0156D02*
X029495D01*
X0293Y015405D02*
Y015795D01*
X030205Y02605D02*
X030595D01*
X0304Y025855D02*
Y026245D01*
X029205Y02605D02*
X029595D01*
X0294Y025855D02*
Y026245D01*
X028205Y02605D02*
X028595D01*
X0284Y025855D02*
Y026245D01*
X035773Y01585D02*
X036127D01*
X03595Y015673D02*
Y016027D01*
X036773Y01585D02*
X037127D01*
X03695Y015673D02*
Y016027D01*
X035155Y0201D02*
X035545D01*
X03535Y019905D02*
Y020295D01*
X035155Y0221D02*
X035545D01*
X03535Y021905D02*
Y022295D01*
X035155Y0231D02*
X035545D01*
X03535Y022905D02*
Y023295D01*
X035155Y0241D02*
X035545D01*
X03535Y023905D02*
Y024295D01*
X035155Y0251D02*
X035545D01*
X03535Y024905D02*
Y025295D01*
X035155Y0261D02*
X035545D01*
X03535Y025905D02*
Y026295D01*
X03905Y03845D02*
X03965D01*
X03935Y03815D02*
Y03875D01*
X037049Y038449D02*
X037649D01*
X037349Y038149D02*
Y038749D01*
X035046Y038446D02*
X035646D01*
X035346Y038146D02*
Y038746D01*
X04105Y03845D02*
X04165D01*
X04135Y03815D02*
Y03875D01*
X028453Y0386D02*
X028847D01*
X02865Y038403D02*
Y038797D01*
X029733Y03673D02*
X030126D01*
X02993Y036533D02*
Y036927D01*
X030815Y0386D02*
X031209D01*
X031012Y038403D02*
Y038797D01*
M02*
