M48
;Layer_Color=9474304
;FILE_FORMAT=2:4
INCH,LZ
;TYPE=PLATED
T1F00S00C0.0354
T2F00S00C0.0390
T3F00S00C0.0394
T5F00S00C0.0591
T6F00S00C0.0600
T7F00S00C0.1181
T8F00S00C0.1260
%
T01
X03595Y01585
X03695
X04055Y015856
X04155
X04255
T02
X0293Y0156
X04723Y0227
X04823
X04623
X04523
X03535Y0231
Y0221
Y0211
Y0201
Y0241
Y0251
Y0261
X0314Y02605
X0304
X0294
X0284
T03
X0303Y0156
X03135Y02815
X03235
X03335
X03435
X03535
X03635
X03735
X03835
X03935
X04035
X04135
X03035
X02935
X02835
X02735
Y03415
X02835
X02935
X03035
X03135
X03235
X03335
X03435
X03535
X03635
X03735
X03835
X03935
X04035
X04135
T05
X0448Y03845
X0468
X0488
T06
X035346Y038446
X037349Y038449
X03935Y03845
X04135
T07
X04985Y01625
T08
X025Y01625
Y03415
X04985
M30
