G04*
G04 #@! TF.GenerationSoftware,Altium Limited,Altium Designer,21.3.2 (30)*
G04*
G04 Layer_Color=8388736*
%FSTAX24Y24*%
%MOIN*%
G70*
G04*
G04 #@! TF.SameCoordinates,A37B9459-F8AB-407D-A7BE-2EDF921DF0BE*
G04*
G04*
G04 #@! TF.FilePolarity,Negative*
G04*
G01*
G75*
G04:AMPARAMS|DCode=15|XSize=82.8mil|YSize=47.4mil|CornerRadius=13.8mil|HoleSize=0mil|Usage=FLASHONLY|Rotation=0.000|XOffset=0mil|YOffset=0mil|HoleType=Round|Shape=RoundedRectangle|*
%AMROUNDEDRECTD15*
21,1,0.0828,0.0197,0,0,0.0*
21,1,0.0551,0.0474,0,0,0.0*
1,1,0.0277,0.0276,-0.0098*
1,1,0.0277,-0.0276,-0.0098*
1,1,0.0277,-0.0276,0.0098*
1,1,0.0277,0.0276,0.0098*
%
%ADD15ROUNDEDRECTD15*%
%ADD16O,0.0730X0.0830*%
G04:AMPARAMS|DCode=17|XSize=67.1mil|YSize=67.1mil|CornerRadius=18.8mil|HoleSize=0mil|Usage=FLASHONLY|Rotation=180.000|XOffset=0mil|YOffset=0mil|HoleType=Round|Shape=RoundedRectangle|*
%AMROUNDEDRECTD17*
21,1,0.0671,0.0295,0,0,180.0*
21,1,0.0295,0.0671,0,0,180.0*
1,1,0.0375,-0.0148,0.0148*
1,1,0.0375,0.0148,0.0148*
1,1,0.0375,0.0148,-0.0148*
1,1,0.0375,-0.0148,-0.0148*
%
%ADD17ROUNDEDRECTD17*%
%ADD18C,0.0671*%
%ADD19C,0.0770*%
%ADD20R,0.0770X0.0770*%
G04:AMPARAMS|DCode=21|XSize=71mil|YSize=71mil|CornerRadius=19.7mil|HoleSize=0mil|Usage=FLASHONLY|Rotation=90.000|XOffset=0mil|YOffset=0mil|HoleType=Round|Shape=RoundedRectangle|*
%AMROUNDEDRECTD21*
21,1,0.0710,0.0315,0,0,90.0*
21,1,0.0315,0.0710,0,0,90.0*
1,1,0.0395,0.0157,0.0157*
1,1,0.0395,0.0157,-0.0157*
1,1,0.0395,-0.0157,-0.0157*
1,1,0.0395,-0.0157,0.0157*
%
%ADD21ROUNDEDRECTD21*%
%ADD22C,0.0710*%
%ADD23C,0.0080*%
%ADD24C,0.1064*%
%ADD25O,0.0680X0.0880*%
%ADD26R,0.0680X0.0880*%
%ADD27C,0.0580*%
D15*
X040997Y02879D02*
D03*
Y03001D02*
D03*
X0394Y02604D02*
D03*
Y02726D02*
D03*
X040997D02*
D03*
Y02604D02*
D03*
X0394Y02879D02*
D03*
Y03001D02*
D03*
D16*
X04457Y02489D02*
D03*
X04635Y0249D02*
D03*
X04634Y0274D02*
D03*
X04457Y02739D02*
D03*
Y02884D02*
D03*
X04635Y02885D02*
D03*
X04634Y03135D02*
D03*
X04457Y03134D02*
D03*
D17*
X0457Y02225D02*
D03*
X041D02*
D03*
D18*
X0447D02*
D03*
X0437D02*
D03*
X04D02*
D03*
X039D02*
D03*
D19*
X02835Y0218D02*
D03*
X02935D02*
D03*
X0304D02*
D03*
X03135D02*
D03*
X03235D02*
D03*
X03335D02*
D03*
X02635D02*
D03*
X02535D02*
D03*
X02435D02*
D03*
X02135D02*
D03*
X02235D02*
D03*
X02335D02*
D03*
X01935D02*
D03*
X02835Y0308D02*
D03*
X02935D02*
D03*
X03035D02*
D03*
X03135D02*
D03*
X03235D02*
D03*
X03335D02*
D03*
X0274D02*
D03*
X02635D02*
D03*
X02535D02*
D03*
X02135D02*
D03*
X02235D02*
D03*
X02335D02*
D03*
X01935D02*
D03*
D20*
X0273Y0218D02*
D03*
X02035D02*
D03*
X0243Y0308D02*
D03*
X02035D02*
D03*
D21*
X01945Y0336D02*
D03*
D22*
Y0346D02*
D03*
Y0356D02*
D03*
Y0366D02*
D03*
D23*
X017684Y033495D02*
D03*
D24*
X047212D02*
D03*
Y0457D02*
D03*
X017684D02*
D03*
D25*
X03485D02*
D03*
X03385D02*
D03*
X03285D02*
D03*
X03185D02*
D03*
X03085D02*
D03*
X02985D02*
D03*
X02885D02*
D03*
X02785D02*
D03*
X02685D02*
D03*
X02585D02*
D03*
X02485D02*
D03*
X02385D02*
D03*
X02285D02*
D03*
X02185D02*
D03*
X02085D02*
D03*
D26*
X01985D02*
D03*
D27*
X0333Y02455D02*
D03*
X0394Y02802D02*
D03*
M02*
