G04*
G04 #@! TF.GenerationSoftware,Altium Limited,Altium Designer,21.3.2 (30)*
G04*
G04 Layer_Color=128*
%FSTAX24Y24*%
%MOIN*%
G70*
G04*
G04 #@! TF.SameCoordinates,A37B9459-F8AB-407D-A7BE-2EDF921DF0BE*
G04*
G04*
G04 #@! TF.FilePolarity,Positive*
G04*
G01*
G75*
%ADD41C,0.0020*%
D41*
X04438Y02489D02*
X04476D01*
X04457Y0247D02*
Y02508D01*
X04616Y0249D02*
X04654D01*
X04635Y02471D02*
Y02509D01*
X04615Y0274D02*
X04653D01*
X04634Y02721D02*
Y02759D01*
X04438Y02739D02*
X04476D01*
X04457Y0272D02*
Y02758D01*
X04438Y02884D02*
X04476D01*
X04457Y02865D02*
Y02903D01*
X04616Y02885D02*
X04654D01*
X04635Y02866D02*
Y02904D01*
X04615Y03135D02*
X04653D01*
X04634Y03116D02*
Y03154D01*
X04438Y03134D02*
X04476D01*
X04457Y03115D02*
Y03153D01*
X045523Y02225D02*
X045877D01*
X0457Y022073D02*
Y022427D01*
X044523Y02225D02*
X044877D01*
X0447Y022073D02*
Y022427D01*
X043523Y02225D02*
X043877D01*
X0437Y022073D02*
Y022427D01*
X040823Y02225D02*
X041177D01*
X041Y022073D02*
Y022427D01*
X039823Y02225D02*
X040177D01*
X04Y022073D02*
Y022427D01*
X038823Y02225D02*
X039177D01*
X039Y022073D02*
Y022427D01*
X028175Y0218D02*
X028525D01*
X02835Y021625D02*
Y021975D01*
X029175Y0218D02*
X029525D01*
X02935Y021625D02*
Y021975D01*
X030225Y0218D02*
X030575D01*
X0304Y021625D02*
Y021975D01*
X031175Y0218D02*
X031525D01*
X03135Y021625D02*
Y021975D01*
X032175Y0218D02*
X032525D01*
X03235Y021625D02*
Y021975D01*
X033175Y0218D02*
X033525D01*
X03335Y021625D02*
Y021975D01*
X027125Y0218D02*
X027475D01*
X0273Y021625D02*
Y021975D01*
X026175Y0218D02*
X026525D01*
X02635Y021625D02*
Y021975D01*
X025175Y0218D02*
X025525D01*
X02535Y021625D02*
Y021975D01*
X024175Y0218D02*
X024525D01*
X02435Y021625D02*
Y021975D01*
X020175Y0218D02*
X020525D01*
X02035Y021625D02*
Y021975D01*
X021175Y0218D02*
X021525D01*
X02135Y021625D02*
Y021975D01*
X022175Y0218D02*
X022525D01*
X02235Y021625D02*
Y021975D01*
X023175Y0218D02*
X023525D01*
X02335Y021625D02*
Y021975D01*
X019175Y0218D02*
X019525D01*
X01935Y021625D02*
Y021975D01*
X028175Y0308D02*
X028525D01*
X02835Y030625D02*
Y030975D01*
X029175Y0308D02*
X029525D01*
X02935Y030625D02*
Y030975D01*
X030175Y0308D02*
X030525D01*
X03035Y030625D02*
Y030975D01*
X031175Y0308D02*
X031525D01*
X03135Y030625D02*
Y030975D01*
X032175Y0308D02*
X032525D01*
X03235Y030625D02*
Y030975D01*
X033175Y0308D02*
X033525D01*
X03335Y030625D02*
Y030975D01*
X027225Y0308D02*
X027575D01*
X0274Y030625D02*
Y030975D01*
X026175Y0308D02*
X026525D01*
X02635Y030625D02*
Y030975D01*
X025175Y0308D02*
X025525D01*
X02535Y030625D02*
Y030975D01*
X024125Y0308D02*
X024475D01*
X0243Y030625D02*
Y030975D01*
X020175Y0308D02*
X020525D01*
X02035Y030625D02*
Y030975D01*
X021175Y0308D02*
X021525D01*
X02135Y030625D02*
Y030975D01*
X022175Y0308D02*
X022525D01*
X02235Y030625D02*
Y030975D01*
X023175Y0308D02*
X023525D01*
X02335Y030625D02*
Y030975D01*
X019175Y0308D02*
X019525D01*
X01935Y030625D02*
Y030975D01*
X019253Y0336D02*
X019647D01*
X01945Y033403D02*
Y033797D01*
X019253Y0346D02*
X019647D01*
X01945Y034403D02*
Y034797D01*
X019253Y0356D02*
X019647D01*
X01945Y035403D02*
Y035797D01*
X019253Y0366D02*
X019647D01*
X01945Y036403D02*
Y036797D01*
X04672Y033495D02*
X047704D01*
X047212Y033003D02*
Y033987D01*
X04672Y0457D02*
X047704D01*
X047212Y045208D02*
Y046192D01*
X017192Y0457D02*
X018176D01*
X017684Y045208D02*
Y046192D01*
X03466Y0457D02*
X03504D01*
X03485Y04551D02*
Y04589D01*
X03366Y0457D02*
X03404D01*
X03385Y04551D02*
Y04589D01*
X03266Y0457D02*
X03304D01*
X03285Y04551D02*
Y04589D01*
X03166Y0457D02*
X03204D01*
X03185Y04551D02*
Y04589D01*
X03066Y0457D02*
X03104D01*
X03085Y04551D02*
Y04589D01*
X02966Y0457D02*
X03004D01*
X02985Y04551D02*
Y04589D01*
X02866Y0457D02*
X02904D01*
X02885Y04551D02*
Y04589D01*
X02766Y0457D02*
X02804D01*
X02785Y04551D02*
Y04589D01*
X02666Y0457D02*
X02704D01*
X02685Y04551D02*
Y04589D01*
X02566Y0457D02*
X02604D01*
X02585Y04551D02*
Y04589D01*
X02466Y0457D02*
X02504D01*
X02485Y04551D02*
Y04589D01*
X02366Y0457D02*
X02404D01*
X02385Y04551D02*
Y04589D01*
X02266Y0457D02*
X02304D01*
X02285Y04551D02*
Y04589D01*
X02166Y0457D02*
X02204D01*
X02185Y04551D02*
Y04589D01*
X02066Y0457D02*
X02104D01*
X02085Y04551D02*
Y04589D01*
X01966Y0457D02*
X02004D01*
X01985Y04551D02*
Y04589D01*
X03316Y02455D02*
X03344D01*
X0333Y02441D02*
Y02469D01*
X03926Y02802D02*
X03954D01*
X0394Y02788D02*
Y02816D01*
M02*
