M48
;Layer_Color=9474304
;FILE_FORMAT=2:4
INCH,LZ
;TYPE=PLATED
T1F00S00C0.0280
T2F00S00C0.0350
T3F00S00C0.0354
T4F00S00C0.0380
T5F00S00C0.0394
T6F00S00C0.0984
%
T01
X0333Y02455
X0394Y02802
T02
X03135Y0218
X03235
X03335
Y0308
X03235
X03135
X03035
X02935
X02835
X0274
X02635
X02535
X0243
X02335
X02235
X02135
X02035
X01935
Y0218
X02035
X02135
X02235
X02335
X02435
X02535
X02635
X0273
X02835
X02935
X0304
T03
X039Y02225
X04
X041
X0437
X0447
X0457
T04
X04457Y02489
X04635Y0249
X04634Y0274
X04635Y02885
X04457Y02884
Y02739
X03085Y0457
X02985
X02885
X02785
X02685
X02585
X02485
X02385
X02285
X02185
X02085
X01985
X03185
X03285
X03385
X03485
X04457Y03134
X04634Y03135
T05
X01945Y0336
Y0346
Y0356
Y0366
T06
X017684Y0457
X047212
Y033495
M30
