G04*
G04 #@! TF.GenerationSoftware,Altium Limited,Altium Designer,21.3.2 (30)*
G04*
G04 Layer_Physical_Order=1*
G04 Layer_Color=255*
%FSTAX24Y24*%
%MOIN*%
G70*
G04*
G04 #@! TF.SameCoordinates,2CDE0281-AAEF-468F-B01B-39F68B6DA6A9*
G04*
G04*
G04 #@! TF.FilePolarity,Positive*
G04*
G01*
G75*
%ADD10C,0.0100*%
G04:AMPARAMS|DCode=18|XSize=74.8mil|YSize=39.4mil|CornerRadius=9.8mil|HoleSize=0mil|Usage=FLASHONLY|Rotation=0.000|XOffset=0mil|YOffset=0mil|HoleType=Round|Shape=RoundedRectangle|*
%AMROUNDEDRECTD18*
21,1,0.0748,0.0197,0,0,0.0*
21,1,0.0551,0.0394,0,0,0.0*
1,1,0.0197,0.0276,-0.0098*
1,1,0.0197,-0.0276,-0.0098*
1,1,0.0197,-0.0276,0.0098*
1,1,0.0197,0.0276,0.0098*
%
%ADD18ROUNDEDRECTD18*%
G04:AMPARAMS|DCode=19|XSize=31.5mil|YSize=39.4mil|CornerRadius=7.9mil|HoleSize=0mil|Usage=FLASHONLY|Rotation=180.000|XOffset=0mil|YOffset=0mil|HoleType=Round|Shape=RoundedRectangle|*
%AMROUNDEDRECTD19*
21,1,0.0315,0.0236,0,0,180.0*
21,1,0.0157,0.0394,0,0,180.0*
1,1,0.0157,-0.0079,0.0118*
1,1,0.0157,0.0079,0.0118*
1,1,0.0157,0.0079,-0.0118*
1,1,0.0157,-0.0079,-0.0118*
%
%ADD19ROUNDEDRECTD19*%
G04:AMPARAMS|DCode=20|XSize=31.5mil|YSize=35.4mil|CornerRadius=7.9mil|HoleSize=0mil|Usage=FLASHONLY|Rotation=180.000|XOffset=0mil|YOffset=0mil|HoleType=Round|Shape=RoundedRectangle|*
%AMROUNDEDRECTD20*
21,1,0.0315,0.0197,0,0,180.0*
21,1,0.0157,0.0354,0,0,180.0*
1,1,0.0157,-0.0079,0.0098*
1,1,0.0157,0.0079,0.0098*
1,1,0.0157,0.0079,-0.0098*
1,1,0.0157,-0.0079,-0.0098*
%
%ADD20ROUNDEDRECTD20*%
G04:AMPARAMS|DCode=21|XSize=78.7mil|YSize=78.7mil|CornerRadius=19.7mil|HoleSize=0mil|Usage=FLASHONLY|Rotation=270.000|XOffset=0mil|YOffset=0mil|HoleType=Round|Shape=RoundedRectangle|*
%AMROUNDEDRECTD21*
21,1,0.0787,0.0394,0,0,270.0*
21,1,0.0394,0.0787,0,0,270.0*
1,1,0.0394,-0.0197,-0.0197*
1,1,0.0394,-0.0197,0.0197*
1,1,0.0394,0.0197,0.0197*
1,1,0.0394,0.0197,-0.0197*
%
%ADD21ROUNDEDRECTD21*%
%ADD32C,0.0866*%
G04:AMPARAMS|DCode=33|XSize=86.6mil|YSize=86.6mil|CornerRadius=21.7mil|HoleSize=0mil|Usage=FLASHONLY|Rotation=90.000|XOffset=0mil|YOffset=0mil|HoleType=Round|Shape=RoundedRectangle|*
%AMROUNDEDRECTD33*
21,1,0.0866,0.0433,0,0,90.0*
21,1,0.0433,0.0866,0,0,90.0*
1,1,0.0433,0.0217,0.0217*
1,1,0.0433,0.0217,-0.0217*
1,1,0.0433,-0.0217,-0.0217*
1,1,0.0433,-0.0217,0.0217*
%
%ADD33ROUNDEDRECTD33*%
%ADD37C,0.0200*%
G04:AMPARAMS|DCode=38|XSize=63mil|YSize=63mil|CornerRadius=15.7mil|HoleSize=0mil|Usage=FLASHONLY|Rotation=90.000|XOffset=0mil|YOffset=0mil|HoleType=Round|Shape=RoundedRectangle|*
%AMROUNDEDRECTD38*
21,1,0.0630,0.0315,0,0,90.0*
21,1,0.0315,0.0630,0,0,90.0*
1,1,0.0315,0.0157,0.0157*
1,1,0.0315,0.0157,-0.0157*
1,1,0.0315,-0.0157,-0.0157*
1,1,0.0315,-0.0157,0.0157*
%
%ADD38ROUNDEDRECTD38*%
%ADD39C,0.0630*%
%ADD40C,0.0690*%
%ADD41R,0.0690X0.0690*%
%ADD42O,0.0650X0.0750*%
%ADD43C,0.1200*%
%ADD44C,0.0591*%
G04:AMPARAMS|DCode=45|XSize=59.1mil|YSize=59.1mil|CornerRadius=14.8mil|HoleSize=0mil|Usage=FLASHONLY|Rotation=180.000|XOffset=0mil|YOffset=0mil|HoleType=Round|Shape=RoundedRectangle|*
%AMROUNDEDRECTD45*
21,1,0.0591,0.0295,0,0,180.0*
21,1,0.0295,0.0591,0,0,180.0*
1,1,0.0295,-0.0148,0.0148*
1,1,0.0295,0.0148,0.0148*
1,1,0.0295,0.0148,-0.0148*
1,1,0.0295,-0.0148,-0.0148*
%
%ADD45ROUNDEDRECTD45*%
%ADD46C,0.0500*%
G36*
X05545Y059447D02*
X06715D01*
Y058153D01*
X0636D01*
X063541Y058141D01*
X063492Y058108D01*
X062237Y056853D01*
X062204Y056804D01*
X062192Y056745D01*
Y055661D01*
X062069D01*
X061992Y055646D01*
X061926Y055602D01*
X061883Y055536D01*
X061867Y055459D01*
Y055262D01*
X061883Y055184D01*
X061926Y055119D01*
X061992Y055075D01*
X062069Y055059D01*
X062621D01*
X062698Y055075D01*
X062764Y055119D01*
X062808Y055184D01*
X062823Y055262D01*
Y055459D01*
X062808Y055536D01*
X062764Y055602D01*
X062698Y055646D01*
X062621Y055661D01*
X062498D01*
Y056682D01*
X063663Y057847D01*
X06715D01*
Y053558D01*
X066033D01*
X066013Y053604D01*
X066046Y053637D01*
X066105Y053738D01*
X066135Y053851D01*
Y053969D01*
X066105Y054082D01*
X066046Y054183D01*
X065963Y054266D01*
X065862Y054325D01*
X065749Y054355D01*
X065631D01*
X065518Y054325D01*
X065417Y054266D01*
X065334Y054183D01*
X065275Y054082D01*
X065245Y053969D01*
Y053851D01*
X065275Y053738D01*
X065334Y053637D01*
X065367Y053604D01*
X065347Y053558D01*
X064384D01*
X064358Y053553D01*
X062762D01*
X062703Y053541D01*
X062703Y053541D01*
X062653Y053568D01*
Y053845D01*
X062698Y053854D01*
X062764Y053898D01*
X062808Y053964D01*
X062823Y054041D01*
Y054238D01*
X062808Y054316D01*
X062764Y054381D01*
X062698Y054425D01*
X062621Y05444D01*
X062083D01*
X061961Y054563D01*
X061911Y054596D01*
X061853Y054608D01*
X061618D01*
Y054652D01*
X061608Y054729D01*
X061578Y054801D01*
X06153Y054863D01*
X061468Y054911D01*
X061396Y054941D01*
X061318Y054951D01*
X060925D01*
X060847Y054941D01*
X060775Y054911D01*
X060713Y054863D01*
X060666Y054801D01*
X060636Y054729D01*
X060625Y054652D01*
Y054258D01*
X060636Y054181D01*
X060666Y054108D01*
X060713Y054046D01*
X060775Y053999D01*
X060847Y053969D01*
X060925Y053959D01*
X061318D01*
X061396Y053969D01*
X061468Y053999D01*
X06153Y054046D01*
X061578Y054108D01*
X061608Y054181D01*
X061618Y054258D01*
Y054302D01*
X061789D01*
X061867Y054224D01*
Y054041D01*
X061883Y053964D01*
X061926Y053898D01*
X061992Y053854D01*
X062069Y053839D01*
X062347D01*
Y053422D01*
X062292Y053385D01*
X062253Y053326D01*
X062239Y053256D01*
Y05302D01*
X062253Y05295D01*
X062292Y052891D01*
X062352Y052852D01*
X062421Y052838D01*
X062579D01*
X062648Y052852D01*
X062708Y052891D01*
X062747Y05295D01*
X062761Y05302D01*
Y053183D01*
X062825Y053247D01*
X064379D01*
X064404Y053252D01*
X065337D01*
X065357Y053206D01*
X065334Y053183D01*
X065275Y053082D01*
X065245Y052969D01*
Y052851D01*
X065275Y052738D01*
X065334Y052637D01*
X065417Y052554D01*
X065518Y052495D01*
X065631Y052465D01*
X065749D01*
X065862Y052495D01*
X065963Y052554D01*
X066046Y052637D01*
X066105Y052738D01*
X066135Y052851D01*
Y052969D01*
X066105Y053082D01*
X066046Y053183D01*
X066023Y053206D01*
X066043Y053252D01*
X06715D01*
Y049568D01*
X066043D01*
X066023Y049614D01*
X066046Y049637D01*
X066105Y049738D01*
X066135Y049851D01*
Y049969D01*
X066105Y050082D01*
X066046Y050183D01*
X065963Y050266D01*
X065862Y050325D01*
X065749Y050355D01*
X065631D01*
X065518Y050325D01*
X065417Y050266D01*
X065334Y050183D01*
X065275Y050082D01*
X065245Y049969D01*
Y049851D01*
X065275Y049738D01*
X065334Y049637D01*
X065357Y049614D01*
X065337Y049568D01*
X063003D01*
X062899Y049672D01*
X062901Y049682D01*
Y049879D01*
X062886Y049957D01*
X062842Y050022D01*
X062776Y050066D01*
X062699Y050081D01*
X062148D01*
X06207Y050066D01*
X062005Y050022D01*
X061961Y049957D01*
X061946Y049879D01*
Y049682D01*
X061961Y049605D01*
X062005Y049539D01*
X06207Y049495D01*
X062148Y04948D01*
X062659D01*
X062832Y049307D01*
X062882Y049274D01*
X06294Y049262D01*
X065347D01*
X065367Y049216D01*
X065334Y049183D01*
X065275Y049082D01*
X065245Y048969D01*
Y048851D01*
X065275Y048738D01*
X065334Y048637D01*
X065417Y048554D01*
X065518Y048495D01*
X065631Y048465D01*
X065749D01*
X065862Y048495D01*
X065963Y048554D01*
X066046Y048637D01*
X066105Y048738D01*
X066135Y048851D01*
Y048969D01*
X066105Y049082D01*
X066046Y049183D01*
X066013Y049216D01*
X066033Y049262D01*
X06715D01*
Y046568D01*
X066043D01*
X066023Y046614D01*
X066046Y046637D01*
X066105Y046738D01*
X066135Y046851D01*
Y046969D01*
X066105Y047082D01*
X066046Y047183D01*
X065963Y047266D01*
X065862Y047325D01*
X065749Y047355D01*
X065631D01*
X065518Y047325D01*
X065417Y047266D01*
X065334Y047183D01*
X065275Y047082D01*
X065245Y046969D01*
Y046851D01*
X065275Y046738D01*
X065334Y046637D01*
X065357Y046614D01*
X065337Y046568D01*
X065048D01*
X064055Y047561D01*
X064006Y047594D01*
X063947Y047606D01*
X062754D01*
X062747Y047641D01*
X062708Y0477D01*
X062653Y047736D01*
Y04826D01*
X062699D01*
X062776Y048275D01*
X062842Y048319D01*
X062886Y048384D01*
X062901Y048462D01*
Y048659D01*
X062886Y048736D01*
X062842Y048802D01*
X062776Y048846D01*
X062699Y048861D01*
X062162D01*
X062039Y048984D01*
X06199Y049017D01*
X061931Y049028D01*
X061646D01*
Y049072D01*
X061636Y04915D01*
X061606Y049222D01*
X061559Y049284D01*
X061497Y049332D01*
X061424Y049361D01*
X061347Y049372D01*
X060953D01*
X060876Y049361D01*
X060803Y049332D01*
X060741Y049284D01*
X060694Y049222D01*
X060664Y04915D01*
X060654Y049072D01*
Y048679D01*
X060664Y048601D01*
X060694Y048529D01*
X060741Y048467D01*
X060803Y048419D01*
X060876Y048389D01*
X060953Y048379D01*
X061347D01*
X061424Y048389D01*
X061497Y048419D01*
X061559Y048467D01*
X061606Y048529D01*
X061636Y048601D01*
X061646Y048679D01*
Y048722D01*
X061868D01*
X061946Y048645D01*
Y048462D01*
X061961Y048384D01*
X062005Y048319D01*
X06207Y048275D01*
X062148Y04826D01*
X062347D01*
Y047736D01*
X062292Y0477D01*
X062253Y047641D01*
X062239Y047571D01*
Y047335D01*
X062253Y047265D01*
X062292Y047206D01*
X062352Y047166D01*
X062421Y047152D01*
X062579D01*
X062648Y047166D01*
X062708Y047206D01*
X062747Y047265D01*
X062754Y0473D01*
X063884D01*
X064877Y046307D01*
X064926Y046274D01*
X064985Y046262D01*
X065347D01*
X065367Y046216D01*
X065334Y046183D01*
X065275Y046082D01*
X065245Y045969D01*
Y045851D01*
X065275Y045738D01*
X065334Y045637D01*
X065417Y045554D01*
X065518Y045495D01*
X065631Y045465D01*
X065749D01*
X065862Y045495D01*
X065963Y045554D01*
X066046Y045637D01*
X066105Y045738D01*
X066135Y045851D01*
Y045969D01*
X066105Y046082D01*
X066046Y046183D01*
X066013Y046216D01*
X066033Y046262D01*
X06715D01*
Y04485D01*
X0693Y0427D01*
X084997D01*
Y04045D01*
X084998Y040443D01*
X084983Y040209D01*
X084936Y039971D01*
X084858Y039742D01*
X084751Y039526D01*
X084617Y039324D01*
X084457Y039143D01*
X084276Y038983D01*
X084074Y038849D01*
X083858Y038742D01*
X083629Y038664D01*
X083391Y038617D01*
X083157Y038602D01*
X08315Y038603D01*
X05545D01*
X055443Y038602D01*
X055209Y038617D01*
X054971Y038664D01*
X054742Y038742D01*
X054526Y038849D01*
X054324Y038983D01*
X054143Y039143D01*
X053983Y039324D01*
X053849Y039526D01*
X053742Y039742D01*
X053664Y039971D01*
X053617Y040209D01*
X053602Y040443D01*
X053603Y04045D01*
Y0576D01*
X053602Y057607D01*
X053617Y057841D01*
X053664Y058079D01*
X053742Y058308D01*
X053849Y058524D01*
X053983Y058726D01*
X054143Y058907D01*
X054324Y059067D01*
X054526Y059201D01*
X054742Y059308D01*
X054971Y059386D01*
X055209Y059433D01*
X055443Y059448D01*
X05545Y059447D01*
D02*
G37*
%LPC*%
G36*
X065749Y056355D02*
X065631D01*
X065518Y056325D01*
X065417Y056266D01*
X065334Y056183D01*
X065275Y056082D01*
X065245Y055969D01*
Y055851D01*
X065275Y055738D01*
X065334Y055637D01*
X065417Y055554D01*
X065518Y055495D01*
X065631Y055465D01*
X065749D01*
X065862Y055495D01*
X065963Y055554D01*
X066046Y055637D01*
X066105Y055738D01*
X066135Y055851D01*
Y055969D01*
X066105Y056082D01*
X066046Y056183D01*
X065963Y056266D01*
X065862Y056325D01*
X065749Y056355D01*
D02*
G37*
G36*
X054749D02*
X054631D01*
X054518Y056325D01*
X054417Y056266D01*
X054334Y056183D01*
X054275Y056082D01*
X054245Y055969D01*
Y055851D01*
X054275Y055738D01*
X054334Y055637D01*
X054417Y055554D01*
X054518Y055495D01*
X054631Y055465D01*
X054749D01*
X054862Y055495D01*
X054963Y055554D01*
X055046Y055637D01*
X055105Y055738D01*
X055135Y055851D01*
Y055969D01*
X055105Y056082D01*
X055046Y056183D01*
X054963Y056266D01*
X054862Y056325D01*
X054749Y056355D01*
D02*
G37*
G36*
X066135Y055355D02*
X06574D01*
Y05496D01*
X066135D01*
Y055355D01*
D02*
G37*
G36*
X055135D02*
X05474D01*
Y05496D01*
X055135D01*
Y055355D01*
D02*
G37*
G36*
X06564D02*
X065245D01*
Y05496D01*
X06564D01*
Y055355D01*
D02*
G37*
G36*
X05464D02*
X054245D01*
Y05496D01*
X05464D01*
Y055355D01*
D02*
G37*
G36*
X066135Y05486D02*
X06574D01*
Y054465D01*
X066135D01*
Y05486D01*
D02*
G37*
G36*
X06564D02*
X065245D01*
Y054465D01*
X06564D01*
Y05486D01*
D02*
G37*
G36*
X055135D02*
X05474D01*
Y054465D01*
X055135D01*
Y05486D01*
D02*
G37*
G36*
X05464D02*
X054245D01*
Y054465D01*
X05464D01*
Y05486D01*
D02*
G37*
G36*
X059396Y05615D02*
X059304D01*
X059215Y056126D01*
X059135Y05608D01*
X05907Y056015D01*
X059024Y055935D01*
X059Y055846D01*
Y055754D01*
X059024Y055665D01*
X05907Y055585D01*
X059135Y05552D01*
X059197Y055484D01*
Y054951D01*
X059153D01*
X059076Y054941D01*
X059003Y054911D01*
X058941Y054863D01*
X058894Y054801D01*
X058864Y054729D01*
X058854Y054652D01*
Y054258D01*
X058864Y054181D01*
X058894Y054108D01*
X058941Y054046D01*
X059003Y053999D01*
X059076Y053969D01*
X059153Y053959D01*
X059547D01*
X059624Y053969D01*
X059697Y053999D01*
X059759Y054046D01*
X059806Y054108D01*
X059836Y054181D01*
X059846Y054258D01*
Y054652D01*
X059836Y054729D01*
X059806Y054801D01*
X059759Y054863D01*
X059697Y054911D01*
X059624Y054941D01*
X059547Y054951D01*
X059503D01*
Y055484D01*
X059565Y05552D01*
X05963Y055585D01*
X059676Y055665D01*
X0597Y055754D01*
Y055846D01*
X059676Y055935D01*
X05963Y056015D01*
X059565Y05608D01*
X059485Y056126D01*
X059396Y05615D01*
D02*
G37*
G36*
X054749Y054355D02*
X054631D01*
X054518Y054325D01*
X054417Y054266D01*
X054334Y054183D01*
X054275Y054082D01*
X054245Y053969D01*
Y053851D01*
X054275Y053738D01*
X054334Y053637D01*
X054417Y053554D01*
X054518Y053495D01*
X054631Y053465D01*
X054749D01*
X054862Y053495D01*
X054963Y053554D01*
X055046Y053637D01*
X055105Y053738D01*
X055135Y053851D01*
Y053969D01*
X055105Y054082D01*
X055046Y054183D01*
X054963Y054266D01*
X054862Y054325D01*
X054749Y054355D01*
D02*
G37*
G36*
X061276Y053461D02*
X060724D01*
X060647Y053446D01*
X060581Y053402D01*
X060538Y053336D01*
X060533Y053313D01*
X059967D01*
X059963Y053336D01*
X059919Y053402D01*
X059853Y053446D01*
X059776Y053461D01*
X059224D01*
X059147Y053446D01*
X059081Y053402D01*
X059037Y053336D01*
X059022Y053259D01*
Y053062D01*
X059037Y052984D01*
X059081Y052919D01*
X059147Y052875D01*
X059224Y05286D01*
X059776D01*
X059853Y052875D01*
X059919Y052919D01*
X059963Y052984D01*
X059967Y053007D01*
X060533D01*
X060538Y052984D01*
X060581Y052919D01*
X060647Y052875D01*
X060724Y05286D01*
X061276D01*
X061298Y052864D01*
X061865Y052297D01*
Y052134D01*
X061879Y052064D01*
X061918Y052005D01*
X061978Y051966D01*
X062047Y051952D01*
X062205D01*
X062274Y051966D01*
X062334Y052005D01*
X062373Y052064D01*
X062387Y052134D01*
Y052331D01*
X062373Y052401D01*
X062334Y05246D01*
X062274Y052499D01*
X062205Y052513D01*
X062081D01*
X061478Y053117D01*
Y053259D01*
X061462Y053336D01*
X061419Y053402D01*
X061353Y053446D01*
X061276Y053461D01*
D02*
G37*
G36*
X054749Y053355D02*
X054631D01*
X054518Y053325D01*
X054417Y053266D01*
X054334Y053183D01*
X054275Y053082D01*
X054245Y052969D01*
Y052851D01*
X054275Y052738D01*
X054334Y052637D01*
X054417Y052554D01*
X054518Y052495D01*
X054631Y052465D01*
X054749D01*
X054862Y052495D01*
X054963Y052554D01*
X055046Y052637D01*
X055105Y052738D01*
X055135Y052851D01*
Y052969D01*
X055105Y053082D01*
X055046Y053183D01*
X054963Y053266D01*
X054862Y053325D01*
X054749Y053355D01*
D02*
G37*
G36*
X062953Y052513D02*
X062924D01*
Y052283D01*
X063135D01*
Y052331D01*
X063121Y052401D01*
X063082Y05246D01*
X063022Y052499D01*
X062953Y052513D01*
D02*
G37*
G36*
X062824D02*
X062795D01*
X062726Y052499D01*
X062666Y05246D01*
X062627Y052401D01*
X062613Y052331D01*
Y052283D01*
X062824D01*
Y052513D01*
D02*
G37*
G36*
X061276Y052241D02*
X06105D01*
Y05199D01*
X061478D01*
Y052038D01*
X061462Y052116D01*
X061419Y052181D01*
X061353Y052225D01*
X061276Y052241D01*
D02*
G37*
G36*
X06095D02*
X060724D01*
X060647Y052225D01*
X060581Y052181D01*
X060538Y052116D01*
X060522Y052038D01*
Y05199D01*
X06095D01*
Y052241D01*
D02*
G37*
G36*
X063135Y052183D02*
X062924D01*
Y051952D01*
X062953D01*
X063022Y051966D01*
X063082Y052005D01*
X063121Y052064D01*
X063135Y052134D01*
Y052183D01*
D02*
G37*
G36*
X062824D02*
X062613D01*
Y052134D01*
X062627Y052064D01*
X062666Y052005D01*
X062726Y051966D01*
X062795Y051952D01*
X062824D01*
Y052183D01*
D02*
G37*
G36*
X061478Y05189D02*
X06105D01*
Y051639D01*
X061276D01*
X061353Y051654D01*
X061419Y051698D01*
X061462Y051764D01*
X061478Y051841D01*
Y05189D01*
D02*
G37*
G36*
X06095D02*
X060522D01*
Y051841D01*
X060538Y051764D01*
X060581Y051698D01*
X060647Y051654D01*
X060724Y051639D01*
X06095D01*
Y05189D01*
D02*
G37*
G36*
X065749Y052355D02*
X065631D01*
X065518Y052325D01*
X065417Y052266D01*
X065334Y052183D01*
X065275Y052082D01*
X065245Y051969D01*
Y051851D01*
X065275Y051738D01*
X065334Y051637D01*
X065417Y051554D01*
X065518Y051495D01*
X065631Y051465D01*
X065749D01*
X065862Y051495D01*
X065963Y051554D01*
X066046Y051637D01*
X066105Y051738D01*
X066135Y051851D01*
Y051969D01*
X066105Y052082D01*
X066046Y052183D01*
X065963Y052266D01*
X065862Y052325D01*
X065749Y052355D01*
D02*
G37*
G36*
X054749D02*
X054631D01*
X054518Y052325D01*
X054417Y052266D01*
X054334Y052183D01*
X054275Y052082D01*
X054245Y051969D01*
Y051851D01*
X054275Y051738D01*
X054334Y051637D01*
X054417Y051554D01*
X054518Y051495D01*
X054631Y051465D01*
X054749D01*
X054862Y051495D01*
X054963Y051554D01*
X055046Y051637D01*
X055105Y051738D01*
X055135Y051851D01*
Y051969D01*
X055105Y052082D01*
X055046Y052183D01*
X054963Y052266D01*
X054862Y052325D01*
X054749Y052355D01*
D02*
G37*
G36*
X066135Y051405D02*
X06574D01*
Y05101D01*
X066135D01*
Y051405D01*
D02*
G37*
G36*
X06564D02*
X065245D01*
Y05101D01*
X06564D01*
Y051405D01*
D02*
G37*
G36*
X066135Y05091D02*
X06574D01*
Y050515D01*
X066135D01*
Y05091D01*
D02*
G37*
G36*
X06564D02*
X065245D01*
Y050515D01*
X06564D01*
Y05091D01*
D02*
G37*
G36*
X054749Y051355D02*
X054631D01*
X054518Y051325D01*
X054417Y051266D01*
X054334Y051183D01*
X054275Y051082D01*
X054245Y050969D01*
Y050851D01*
X054275Y050738D01*
X054334Y050637D01*
X054417Y050554D01*
X054518Y050495D01*
X054631Y050465D01*
X054749D01*
X054862Y050495D01*
X054963Y050554D01*
X055046Y050637D01*
X055105Y050738D01*
X055135Y050851D01*
Y050969D01*
X055105Y051082D01*
X055046Y051183D01*
X054963Y051266D01*
X054862Y051325D01*
X054749Y051355D01*
D02*
G37*
G36*
Y050355D02*
X054631D01*
X054518Y050325D01*
X054417Y050266D01*
X054334Y050183D01*
X054275Y050082D01*
X054245Y049969D01*
Y049851D01*
X054275Y049738D01*
X054334Y049637D01*
X054417Y049554D01*
X054518Y049495D01*
X054631Y049465D01*
X054749D01*
X054862Y049495D01*
X054963Y049554D01*
X055046Y049637D01*
X055105Y049738D01*
X055135Y049851D01*
Y049969D01*
X055105Y050082D01*
X055046Y050183D01*
X054963Y050266D01*
X054862Y050325D01*
X054749Y050355D01*
D02*
G37*
G36*
Y049355D02*
X054631D01*
X054518Y049325D01*
X054417Y049266D01*
X054334Y049183D01*
X054275Y049082D01*
X054245Y048969D01*
Y048851D01*
X054275Y048738D01*
X054334Y048637D01*
X054417Y048554D01*
X054518Y048495D01*
X054631Y048465D01*
X054749D01*
X054862Y048495D01*
X054963Y048554D01*
X055046Y048637D01*
X055105Y048738D01*
X055135Y048851D01*
Y048969D01*
X055105Y049082D01*
X055046Y049183D01*
X054963Y049266D01*
X054862Y049325D01*
X054749Y049355D01*
D02*
G37*
G36*
X059424Y050578D02*
X059332D01*
X059243Y050554D01*
X059163Y050508D01*
X059098Y050443D01*
X059052Y050363D01*
X059028Y050274D01*
Y050182D01*
X059052Y050093D01*
X059098Y050013D01*
X059163Y049948D01*
X059225Y049913D01*
Y049372D01*
X059181D01*
X059104Y049361D01*
X059032Y049332D01*
X05897Y049284D01*
X058922Y049222D01*
X058892Y04915D01*
X058882Y049072D01*
Y048679D01*
X058892Y048601D01*
X058922Y048529D01*
X05897Y048467D01*
X059032Y048419D01*
X059104Y048389D01*
X059181Y048379D01*
X059575D01*
X059653Y048389D01*
X059725Y048419D01*
X059787Y048467D01*
X059834Y048529D01*
X059864Y048601D01*
X059875Y048679D01*
Y049072D01*
X059864Y04915D01*
X059834Y049222D01*
X059787Y049284D01*
X059725Y049332D01*
X059653Y049361D01*
X059575Y049372D01*
X059531D01*
Y049913D01*
X059593Y049948D01*
X059658Y050013D01*
X059704Y050093D01*
X059728Y050182D01*
Y050274D01*
X059704Y050363D01*
X059658Y050443D01*
X059593Y050508D01*
X059513Y050554D01*
X059424Y050578D01*
D02*
G37*
G36*
X055135Y048405D02*
X05474D01*
Y04801D01*
X055135D01*
Y048405D01*
D02*
G37*
G36*
X05464D02*
X054245D01*
Y04801D01*
X05464D01*
Y048405D01*
D02*
G37*
G36*
X055135Y04791D02*
X05474D01*
Y047515D01*
X055135D01*
Y04791D01*
D02*
G37*
G36*
X05464D02*
X054245D01*
Y047515D01*
X05464D01*
Y04791D01*
D02*
G37*
G36*
X061126Y047761D02*
X0609D01*
Y04751D01*
X061328D01*
Y047559D01*
X061312Y047636D01*
X061269Y047702D01*
X061203Y047746D01*
X061126Y047761D01*
D02*
G37*
G36*
X0608D02*
X060574D01*
X060497Y047746D01*
X060431Y047702D01*
X060388Y047636D01*
X060372Y047559D01*
Y04751D01*
X0608D01*
Y047761D01*
D02*
G37*
G36*
X065749Y048305D02*
X065631D01*
X065518Y048275D01*
X065417Y048216D01*
X065334Y048133D01*
X065275Y048032D01*
X065245Y047919D01*
Y047801D01*
X065275Y047688D01*
X065334Y047587D01*
X065417Y047504D01*
X065518Y047445D01*
X065631Y047415D01*
X065749D01*
X065862Y047445D01*
X065963Y047504D01*
X066046Y047587D01*
X066105Y047688D01*
X066135Y047801D01*
Y047919D01*
X066105Y048032D01*
X066046Y048133D01*
X065963Y048216D01*
X065862Y048275D01*
X065749Y048305D01*
D02*
G37*
G36*
X061328Y04741D02*
X0609D01*
Y04716D01*
X061126D01*
X061203Y047175D01*
X061269Y047219D01*
X061312Y047284D01*
X061328Y047362D01*
Y04741D01*
D02*
G37*
G36*
X0608D02*
X060372D01*
Y047362D01*
X060388Y047284D01*
X060431Y047219D01*
X060497Y047175D01*
X060574Y04716D01*
X0608D01*
Y04741D01*
D02*
G37*
G36*
X059876Y047761D02*
X059324D01*
X059247Y047746D01*
X059181Y047702D01*
X059138Y047636D01*
X059133Y047613D01*
X05729D01*
X057232Y047602D01*
X057182Y047568D01*
X054879Y045265D01*
X054862Y045275D01*
X054749Y045305D01*
X054631D01*
X054518Y045275D01*
X054417Y045216D01*
X054334Y045133D01*
X054275Y045032D01*
X054245Y044919D01*
Y044801D01*
X054275Y044688D01*
X054334Y044587D01*
X054417Y044504D01*
X054518Y044445D01*
X054631Y044415D01*
X054749D01*
X054862Y044445D01*
X054963Y044504D01*
X055046Y044587D01*
X055105Y044688D01*
X055135Y044801D01*
Y044919D01*
X055105Y045032D01*
X055095Y045049D01*
X057354Y047307D01*
X059133D01*
X059138Y047284D01*
X059181Y047219D01*
X059247Y047175D01*
X059324Y04716D01*
X059876D01*
X059953Y047175D01*
X060019Y047219D01*
X060062Y047284D01*
X060078Y047362D01*
Y047559D01*
X060062Y047636D01*
X060019Y047702D01*
X059953Y047746D01*
X059876Y047761D01*
D02*
G37*
G36*
X062953Y046828D02*
X062924D01*
Y046597D01*
X063135D01*
Y046646D01*
X063121Y046715D01*
X063082Y046775D01*
X063022Y046814D01*
X062953Y046828D01*
D02*
G37*
G36*
X062824D02*
X062795D01*
X062726Y046814D01*
X062666Y046775D01*
X062627Y046715D01*
X062613Y046646D01*
Y046597D01*
X062824D01*
Y046828D01*
D02*
G37*
G36*
X054749Y047355D02*
X054631D01*
X054518Y047325D01*
X054417Y047266D01*
X054334Y047183D01*
X054275Y047082D01*
X054245Y046969D01*
Y046851D01*
X054275Y046738D01*
X054334Y046637D01*
X054417Y046554D01*
X054518Y046495D01*
X054631Y046465D01*
X054749D01*
X054862Y046495D01*
X054963Y046554D01*
X055046Y046637D01*
X055105Y046738D01*
X055135Y046851D01*
Y046969D01*
X055105Y047082D01*
X055046Y047183D01*
X054963Y047266D01*
X054862Y047325D01*
X054749Y047355D01*
D02*
G37*
G36*
X062205Y046828D02*
X062047D01*
X061978Y046814D01*
X061918Y046775D01*
X061879Y046715D01*
X061865Y046646D01*
Y046483D01*
X061775Y046393D01*
X061317D01*
X061312Y046416D01*
X061269Y046481D01*
X061203Y046525D01*
X061126Y04654D01*
X060574D01*
X060497Y046525D01*
X060431Y046481D01*
X060388Y046416D01*
X060383Y046393D01*
X060067D01*
X060062Y046416D01*
X060019Y046481D01*
X059953Y046525D01*
X059876Y04654D01*
X059324D01*
X059247Y046525D01*
X059181Y046481D01*
X059138Y046416D01*
X059122Y046338D01*
Y046141D01*
X059138Y046064D01*
X059181Y045998D01*
X059247Y045954D01*
X059324Y045939D01*
X059876D01*
X059953Y045954D01*
X060019Y045998D01*
X060062Y046064D01*
X060067Y046087D01*
X060383D01*
X060388Y046064D01*
X060431Y045998D01*
X060497Y045954D01*
X060574Y045939D01*
X061126D01*
X061203Y045954D01*
X061269Y045998D01*
X061312Y046064D01*
X061317Y046087D01*
X061838D01*
X061897Y046098D01*
X061946Y046132D01*
X062081Y046267D01*
X062205D01*
X062274Y04628D01*
X062334Y04632D01*
X062373Y046379D01*
X062387Y046449D01*
Y046646D01*
X062373Y046715D01*
X062334Y046775D01*
X062274Y046814D01*
X062205Y046828D01*
D02*
G37*
G36*
X059776Y052241D02*
X059224D01*
X059147Y052225D01*
X059081Y052181D01*
X059037Y052116D01*
X059022Y052038D01*
Y051855D01*
X057792Y050625D01*
X057759Y050575D01*
X057747Y050517D01*
Y049183D01*
X054879Y046315D01*
X054862Y046325D01*
X054749Y046355D01*
X054631D01*
X054518Y046325D01*
X054417Y046266D01*
X054334Y046183D01*
X054275Y046082D01*
X054245Y045969D01*
Y045851D01*
X054275Y045738D01*
X054334Y045637D01*
X054417Y045554D01*
X054518Y045495D01*
X054631Y045465D01*
X054749D01*
X054862Y045495D01*
X054963Y045554D01*
X055046Y045637D01*
X055105Y045738D01*
X055135Y045851D01*
Y045969D01*
X055105Y046082D01*
X055095Y046099D01*
X058008Y049012D01*
X058041Y049061D01*
X058053Y04912D01*
Y050454D01*
X059238Y051639D01*
X059776D01*
X059853Y051654D01*
X059919Y051698D01*
X059963Y051764D01*
X059978Y051841D01*
Y052038D01*
X059963Y052116D01*
X059919Y052181D01*
X059853Y052225D01*
X059776Y052241D01*
D02*
G37*
G36*
X063135Y046497D02*
X062924D01*
Y046267D01*
X062953D01*
X063022Y04628D01*
X063082Y04632D01*
X063121Y046379D01*
X063135Y046449D01*
Y046497D01*
D02*
G37*
G36*
X062824D02*
X062613D01*
Y046449D01*
X062627Y046379D01*
X062666Y04632D01*
X062726Y04628D01*
X062795Y046267D01*
X062824D01*
Y046497D01*
D02*
G37*
G36*
X065749Y045355D02*
X065631D01*
X065518Y045325D01*
X065417Y045266D01*
X065334Y045183D01*
X065275Y045082D01*
X065245Y044969D01*
Y044851D01*
X065275Y044738D01*
X065334Y044637D01*
X065417Y044554D01*
X065518Y044495D01*
X065631Y044465D01*
X065749D01*
X065862Y044495D01*
X065963Y044554D01*
X066046Y044637D01*
X066105Y044738D01*
X066135Y044851D01*
Y044969D01*
X066105Y045082D01*
X066046Y045183D01*
X065963Y045266D01*
X065862Y045325D01*
X065749Y045355D01*
D02*
G37*
G36*
X060729Y044061D02*
X060503D01*
Y04381D01*
X060931D01*
Y043859D01*
X060916Y043936D01*
X060872Y044002D01*
X060806Y044046D01*
X060729Y044061D01*
D02*
G37*
G36*
X060403D02*
X060178D01*
X0601Y044046D01*
X060034Y044002D01*
X059991Y043936D01*
X059975Y043859D01*
Y04381D01*
X060403D01*
Y044061D01*
D02*
G37*
G36*
X065749Y044355D02*
X065631D01*
X065518Y044325D01*
X065417Y044266D01*
X065334Y044183D01*
X065275Y044082D01*
X065245Y043969D01*
Y043851D01*
X065275Y043738D01*
X065334Y043637D01*
X065417Y043554D01*
X065518Y043495D01*
X065631Y043465D01*
X065749D01*
X065862Y043495D01*
X065963Y043554D01*
X066046Y043637D01*
X066105Y043738D01*
X066135Y043851D01*
Y043969D01*
X066105Y044082D01*
X066046Y044183D01*
X065963Y044266D01*
X065862Y044325D01*
X065749Y044355D01*
D02*
G37*
G36*
X054749D02*
X054631D01*
X054518Y044325D01*
X054417Y044266D01*
X054334Y044183D01*
X054275Y044082D01*
X054245Y043969D01*
Y043851D01*
X054275Y043738D01*
X054334Y043637D01*
X054417Y043554D01*
X054518Y043495D01*
X054631Y043465D01*
X054749D01*
X054862Y043495D01*
X054963Y043554D01*
X055046Y043637D01*
X055105Y043738D01*
X055135Y043851D01*
Y043969D01*
X055105Y044082D01*
X055046Y044183D01*
X054963Y044266D01*
X054862Y044325D01*
X054749Y044355D01*
D02*
G37*
G36*
X061896Y04485D02*
X061804D01*
X061715Y044826D01*
X061635Y04478D01*
X06157Y044715D01*
X061524Y044635D01*
X0615Y044546D01*
Y044454D01*
X061524Y044365D01*
X06157Y044285D01*
X061635Y04422D01*
X061697Y044184D01*
Y044061D01*
X061574D01*
X061497Y044046D01*
X061431Y044002D01*
X061388Y043936D01*
X061372Y043859D01*
Y043662D01*
X061388Y043584D01*
X061431Y043519D01*
X061497Y043475D01*
X061574Y04346D01*
X062126D01*
X062203Y043475D01*
X062269Y043519D01*
X062312Y043584D01*
X062328Y043662D01*
Y043859D01*
X062312Y043936D01*
X062269Y044002D01*
X062203Y044046D01*
X062126Y044061D01*
X062003D01*
Y044184D01*
X062065Y04422D01*
X06213Y044285D01*
X062176Y044365D01*
X0622Y044454D01*
Y044546D01*
X062176Y044635D01*
X06213Y044715D01*
X062065Y04478D01*
X061985Y044826D01*
X061896Y04485D01*
D02*
G37*
G36*
X060931Y04371D02*
X060503D01*
Y04346D01*
X060729D01*
X060806Y043475D01*
X060872Y043519D01*
X060916Y043584D01*
X060931Y043662D01*
Y04371D01*
D02*
G37*
G36*
X060403D02*
X059975D01*
Y043662D01*
X059991Y043584D01*
X060034Y043519D01*
X0601Y043475D01*
X060178Y04346D01*
X060403D01*
Y04371D01*
D02*
G37*
G36*
X065749Y043355D02*
X06574D01*
Y04296D01*
X066135D01*
Y042969D01*
X066105Y043082D01*
X066046Y043183D01*
X065963Y043266D01*
X065862Y043325D01*
X065749Y043355D01*
D02*
G37*
G36*
X06564D02*
X065631D01*
X065518Y043325D01*
X065417Y043266D01*
X065334Y043183D01*
X065275Y043082D01*
X065245Y042969D01*
Y04296D01*
X06564D01*
Y043355D01*
D02*
G37*
G36*
X066135Y04286D02*
X06574D01*
Y042465D01*
X065749D01*
X065862Y042495D01*
X065963Y042554D01*
X066046Y042637D01*
X066105Y042738D01*
X066135Y042851D01*
Y04286D01*
D02*
G37*
G36*
X06564D02*
X065245D01*
Y042851D01*
X065275Y042738D01*
X065334Y042637D01*
X065417Y042554D01*
X065518Y042495D01*
X065631Y042465D01*
X06564D01*
Y04286D01*
D02*
G37*
G36*
X054749Y043355D02*
X054631D01*
X054518Y043325D01*
X054417Y043266D01*
X054334Y043183D01*
X054275Y043082D01*
X054245Y042969D01*
Y042851D01*
X054275Y042738D01*
X054334Y042637D01*
X054417Y042554D01*
X054518Y042495D01*
X054631Y042465D01*
X054749D01*
X054862Y042495D01*
X054963Y042554D01*
X055046Y042637D01*
X055105Y042738D01*
X055135Y042851D01*
Y042969D01*
X055105Y043082D01*
X055046Y043183D01*
X054963Y043266D01*
X054862Y043325D01*
X054749Y043355D01*
D02*
G37*
G36*
X07314Y042372D02*
Y04195D01*
X073519D01*
X073504Y042061D01*
X073461Y042164D01*
X073393Y042253D01*
X073304Y042321D01*
X073201Y042364D01*
X07314Y042372D01*
D02*
G37*
G36*
X07304D02*
X072979Y042364D01*
X072876Y042321D01*
X072787Y042253D01*
X072719Y042164D01*
X072676Y042061D01*
X072661Y04195D01*
X07304D01*
Y042372D01*
D02*
G37*
G36*
X07009D02*
Y04195D01*
X070469D01*
X070454Y042061D01*
X070411Y042164D01*
X070343Y042253D01*
X070254Y042321D01*
X070151Y042364D01*
X07009Y042372D01*
D02*
G37*
G36*
X06999D02*
X069929Y042364D01*
X069826Y042321D01*
X069737Y042253D01*
X069669Y042164D01*
X069626Y042061D01*
X069611Y04195D01*
X06999D01*
Y042372D01*
D02*
G37*
G36*
X054749Y042355D02*
X054631D01*
X054518Y042325D01*
X054417Y042266D01*
X054334Y042183D01*
X054275Y042082D01*
X054245Y041969D01*
Y041851D01*
X054275Y041738D01*
X054334Y041637D01*
X054417Y041554D01*
X054518Y041495D01*
X054631Y041465D01*
X054749D01*
X054862Y041495D01*
X054963Y041554D01*
X055046Y041637D01*
X055105Y041738D01*
X055135Y041851D01*
Y041969D01*
X055105Y042082D01*
X055046Y042183D01*
X054963Y042266D01*
X054862Y042325D01*
X054749Y042355D01*
D02*
G37*
G36*
X073519Y04185D02*
X07314D01*
Y041428D01*
X073201Y041436D01*
X073304Y041479D01*
X073393Y041547D01*
X073461Y041636D01*
X073504Y041739D01*
X073519Y04185D01*
D02*
G37*
G36*
X07304D02*
X072661D01*
X072676Y041739D01*
X072719Y041636D01*
X072787Y041547D01*
X072876Y041479D01*
X072979Y041436D01*
X07304Y041428D01*
Y04185D01*
D02*
G37*
G36*
X070469D02*
X07009D01*
Y041428D01*
X070151Y041436D01*
X070254Y041479D01*
X070343Y041547D01*
X070411Y041636D01*
X070454Y041739D01*
X070469Y04185D01*
D02*
G37*
G36*
X06999D02*
X069611D01*
X069626Y041739D01*
X069669Y041636D01*
X069737Y041547D01*
X069826Y041479D01*
X069929Y041436D01*
X06999Y041428D01*
Y04185D01*
D02*
G37*
G36*
X07132Y042369D02*
X071209Y042354D01*
X071106Y042311D01*
X071017Y042243D01*
X070949Y042154D01*
X070906Y042051D01*
X070891Y04194D01*
Y04184D01*
X070906Y041729D01*
X070949Y041626D01*
X071017Y041537D01*
X071106Y041469D01*
X071209Y041426D01*
X07132Y041411D01*
X071431Y041426D01*
X071534Y041469D01*
X071623Y041537D01*
X071691Y041626D01*
X071734Y041729D01*
X071749Y04184D01*
Y04194D01*
X071734Y042051D01*
X071691Y042154D01*
X071623Y042243D01*
X071534Y042311D01*
X071431Y042354D01*
X07132Y042369D01*
D02*
G37*
G36*
X06827D02*
X068159Y042354D01*
X068056Y042311D01*
X067967Y042243D01*
X067899Y042154D01*
X067897Y04215D01*
X067856Y042051D01*
X067841Y04194D01*
Y04184D01*
X067856Y041729D01*
X067899Y041626D01*
X067967Y041537D01*
X068056Y041469D01*
X068159Y041426D01*
X06827Y041411D01*
X068381Y041426D01*
X068484Y041469D01*
X068573Y041537D01*
X068641Y041626D01*
X068684Y041729D01*
X068699Y04184D01*
Y04194D01*
X068684Y042051D01*
X068643Y04215D01*
X068641Y042154D01*
X068573Y042243D01*
X068484Y042311D01*
X068381Y042354D01*
X06827Y042369D01*
D02*
G37*
G36*
X060722Y040591D02*
X060497D01*
Y04034D01*
X060925D01*
Y040388D01*
X060909Y040466D01*
X060866Y040531D01*
X0608Y040575D01*
X060722Y040591D01*
D02*
G37*
G36*
X060397D02*
X060171D01*
X060094Y040575D01*
X060028Y040531D01*
X059984Y040466D01*
X059969Y040388D01*
Y04034D01*
X060397D01*
Y040591D01*
D02*
G37*
G36*
X080502Y040495D02*
X0805D01*
Y04015D01*
X080845D01*
Y040152D01*
X080818Y040253D01*
X080766Y040343D01*
X080693Y040416D01*
X080603Y040468D01*
X080502Y040495D01*
D02*
G37*
G36*
X075852D02*
X07585D01*
Y04015D01*
X076195D01*
Y040152D01*
X076168Y040253D01*
X076116Y040343D01*
X076043Y040416D01*
X075953Y040468D01*
X075852Y040495D01*
D02*
G37*
G36*
X0804D02*
X080398D01*
X080297Y040468D01*
X080207Y040416D01*
X080134Y040343D01*
X080082Y040253D01*
X080055Y040152D01*
Y04015D01*
X0804D01*
Y040495D01*
D02*
G37*
G36*
X07575D02*
X075748D01*
X075647Y040468D01*
X075557Y040416D01*
X075484Y040343D01*
X075432Y040253D01*
X075405Y040152D01*
Y04015D01*
X07575D01*
Y040495D01*
D02*
G37*
G36*
X060925Y04024D02*
X060497D01*
Y039989D01*
X060722D01*
X0608Y040004D01*
X060866Y040048D01*
X060909Y040114D01*
X060925Y040191D01*
Y04024D01*
D02*
G37*
G36*
X060397D02*
X059969D01*
Y040191D01*
X059984Y040114D01*
X060028Y040048D01*
X060094Y040004D01*
X060171Y039989D01*
X060397D01*
Y04024D01*
D02*
G37*
G36*
X065749Y042355D02*
X065631D01*
X065518Y042325D01*
X065417Y042266D01*
X065334Y042183D01*
X065275Y042082D01*
X065245Y041969D01*
Y041851D01*
X065275Y041738D01*
X065334Y041637D01*
X065417Y041554D01*
X065518Y041495D01*
X065608Y041471D01*
D01*
X065631Y041465D01*
X065749D01*
X065862Y041495D01*
X065879Y041505D01*
X066292Y041092D01*
X066341Y041059D01*
X0664Y041047D01*
X080287D01*
X081082Y040252D01*
X081055Y040152D01*
Y040048D01*
X081082Y039947D01*
X081134Y039857D01*
X081207Y039784D01*
X081297Y039732D01*
X081398Y039705D01*
X081502D01*
X081603Y039732D01*
X081693Y039784D01*
X081766Y039857D01*
X081818Y039947D01*
X081845Y040048D01*
Y040152D01*
X081818Y040253D01*
X081766Y040343D01*
X081693Y040416D01*
X081603Y040468D01*
X081502Y040495D01*
X081398D01*
X081298Y040468D01*
X080458Y041308D01*
X080409Y041341D01*
X08035Y041353D01*
X066463D01*
X066095Y041721D01*
X066105Y041738D01*
X066135Y041851D01*
Y041969D01*
D01*
X066121Y042023D01*
D01*
X066105Y042082D01*
X066046Y042183D01*
X065963Y042266D01*
X065862Y042325D01*
X065749Y042355D01*
D02*
G37*
G36*
X080845Y04005D02*
X0805D01*
Y039705D01*
X080502D01*
X080603Y039732D01*
X080693Y039784D01*
X080766Y039857D01*
X080818Y039947D01*
X080845Y040048D01*
Y04005D01*
D02*
G37*
G36*
X0804D02*
X080055D01*
Y040048D01*
X080082Y039947D01*
X080134Y039857D01*
X080207Y039784D01*
X080297Y039732D01*
X080398Y039705D01*
X0804D01*
Y04005D01*
D02*
G37*
G36*
X062946Y0428D02*
X062854D01*
X062765Y042776D01*
X062685Y04273D01*
X06262Y042665D01*
X062574Y042585D01*
X06255Y042496D01*
Y042404D01*
X062574Y042315D01*
X06262Y042235D01*
X062685Y04217D01*
X062765Y042124D01*
X062854Y0421D01*
X062946D01*
X063015Y042119D01*
X064492Y040642D01*
X064541Y040609D01*
X0646Y040597D01*
X076087D01*
X076432Y040252D01*
X076405Y040152D01*
Y040048D01*
X076432Y039947D01*
X076484Y039857D01*
X076557Y039784D01*
X076647Y039732D01*
X076748Y039705D01*
X076852D01*
X076953Y039732D01*
X077043Y039784D01*
X077116Y039857D01*
X077168Y039947D01*
X077195Y040048D01*
Y040152D01*
X077168Y040253D01*
X077116Y040343D01*
X077043Y040416D01*
X076953Y040468D01*
X076852Y040495D01*
X076748D01*
X076648Y040468D01*
X076258Y040858D01*
X076209Y040891D01*
X07615Y040903D01*
X064663D01*
X063231Y042335D01*
X06325Y042404D01*
Y042496D01*
X063226Y042585D01*
X06318Y042665D01*
X063115Y04273D01*
X063035Y042776D01*
X062946Y0428D01*
D02*
G37*
G36*
X076195Y04005D02*
X07585D01*
Y039705D01*
X075852D01*
X075953Y039732D01*
X076043Y039784D01*
X076116Y039857D01*
X076168Y039947D01*
X076195Y040048D01*
Y04005D01*
D02*
G37*
G36*
X07575D02*
X075405D01*
Y040048D01*
X075432Y039947D01*
X075484Y039857D01*
X075557Y039784D01*
X075647Y039732D01*
X075748Y039705D01*
X07575D01*
Y04005D01*
D02*
G37*
G36*
X082598Y0405D02*
X082302D01*
X082206Y040481D01*
X082124Y040426D01*
X082069Y040344D01*
X08205Y040248D01*
Y039952D01*
X082069Y039856D01*
X082124Y039774D01*
X082206Y039719D01*
X082302Y0397D01*
X082598D01*
X082694Y039719D01*
X082776Y039774D01*
X082831Y039856D01*
X08285Y039952D01*
Y040248D01*
X082831Y040344D01*
X082776Y040426D01*
X082694Y040481D01*
X082598Y0405D01*
D02*
G37*
G36*
X077948D02*
X077652D01*
X077556Y040481D01*
X077474Y040426D01*
X077419Y040344D01*
X0774Y040248D01*
Y039952D01*
X077419Y039856D01*
X077474Y039774D01*
X077556Y039719D01*
X077652Y0397D01*
X077948D01*
X078044Y039719D01*
X078126Y039774D01*
X078181Y039856D01*
X0782Y039952D01*
Y040248D01*
X078181Y040344D01*
X078126Y040426D01*
X078044Y040481D01*
X077948Y0405D01*
D02*
G37*
G36*
X07315Y039872D02*
Y03945D01*
X073529D01*
X073514Y039561D01*
X073471Y039664D01*
X073403Y039753D01*
X073314Y039821D01*
X073211Y039864D01*
X07315Y039872D01*
D02*
G37*
G36*
X07305D02*
X072989Y039864D01*
X072886Y039821D01*
X072797Y039753D01*
X072729Y039664D01*
X072686Y039561D01*
X072671Y03945D01*
X07305D01*
Y039872D01*
D02*
G37*
G36*
X0701D02*
Y03945D01*
X070479D01*
X070464Y039561D01*
X070421Y039664D01*
X070353Y039753D01*
X070264Y039821D01*
X070161Y039864D01*
X0701Y039872D01*
D02*
G37*
G36*
X07D02*
X069939Y039864D01*
X069836Y039821D01*
X069747Y039753D01*
X069679Y039664D01*
X069636Y039561D01*
X069621Y03945D01*
X07D01*
Y039872D01*
D02*
G37*
G36*
X062126Y040591D02*
X061574D01*
X061497Y040575D01*
X061431Y040531D01*
X061388Y040466D01*
X061372Y040388D01*
Y040191D01*
X061388Y040114D01*
X061431Y040048D01*
X061497Y040004D01*
X061574Y039989D01*
X061697D01*
Y039816D01*
X061635Y03978D01*
X06157Y039715D01*
X061524Y039635D01*
X0615Y039546D01*
Y039454D01*
X061524Y039365D01*
X06157Y039285D01*
X061635Y03922D01*
X061715Y039174D01*
X061804Y03915D01*
X061896D01*
X061985Y039174D01*
X062065Y03922D01*
X06213Y039285D01*
X062176Y039365D01*
X0622Y039454D01*
Y039546D01*
X062176Y039635D01*
X06213Y039715D01*
X062065Y03978D01*
X062003Y039816D01*
Y039989D01*
X062126D01*
X062203Y040004D01*
X062269Y040048D01*
X062312Y040114D01*
X062328Y040191D01*
Y040388D01*
X062312Y040466D01*
X062269Y040531D01*
X062203Y040575D01*
X062126Y040591D01*
D02*
G37*
G36*
X073529Y03935D02*
X07315D01*
Y038928D01*
X073211Y038936D01*
X073314Y038979D01*
X073403Y039047D01*
X073471Y039136D01*
X073514Y039239D01*
X073529Y03935D01*
D02*
G37*
G36*
X07305D02*
X072671D01*
X072686Y039239D01*
X072729Y039136D01*
X072797Y039047D01*
X072886Y038979D01*
X072989Y038936D01*
X07305Y038928D01*
Y03935D01*
D02*
G37*
G36*
X070479D02*
X0701D01*
Y038928D01*
X070161Y038936D01*
X070264Y038979D01*
X070353Y039047D01*
X070421Y039136D01*
X070464Y039239D01*
X070479Y03935D01*
D02*
G37*
G36*
X07D02*
X069621D01*
X069636Y039239D01*
X069679Y039136D01*
X069747Y039047D01*
X069836Y038979D01*
X069939Y038936D01*
X07Y038928D01*
Y03935D01*
D02*
G37*
G36*
X057596Y04565D02*
X057504D01*
X057415Y045626D01*
X057335Y04558D01*
X05727Y045515D01*
X057224Y045435D01*
X0572Y045346D01*
Y045254D01*
X057224Y045165D01*
X05727Y045085D01*
X057335Y04502D01*
X057415Y044974D01*
X057504Y04495D01*
X057596D01*
X057652Y044965D01*
X059976Y042641D01*
X059975Y042638D01*
Y042441D01*
X059991Y042364D01*
X060034Y042298D01*
X0601Y042254D01*
X060178Y042239D01*
X060729D01*
X060806Y042254D01*
X060872Y042298D01*
X060916Y042364D01*
X06092Y042387D01*
X061383D01*
X061388Y042364D01*
X061431Y042298D01*
X061497Y042254D01*
X061574Y042239D01*
X062112D01*
X064159Y040192D01*
X064208Y040159D01*
X064267Y040147D01*
X070397D01*
X070931Y039612D01*
X070906Y039551D01*
X070891Y03944D01*
Y03934D01*
X070906Y039229D01*
X070949Y039126D01*
X071017Y039037D01*
X071106Y038969D01*
X071209Y038926D01*
X07132Y038911D01*
X071431Y038926D01*
X071534Y038969D01*
X071623Y039037D01*
X071691Y039126D01*
X071734Y039229D01*
X071749Y03934D01*
Y03944D01*
X071734Y039551D01*
X071691Y039654D01*
X071623Y039743D01*
X071534Y039811D01*
X071431Y039854D01*
X07132Y039869D01*
X071209Y039854D01*
X071148Y039829D01*
X070568Y040408D01*
X070519Y040441D01*
X07046Y040453D01*
X06433D01*
X062328Y042455D01*
Y042638D01*
X062312Y042716D01*
X062269Y042781D01*
X062203Y042825D01*
X062126Y04284D01*
X061574D01*
X061497Y042825D01*
X061431Y042781D01*
X061388Y042716D01*
X061383Y042693D01*
X06092D01*
X060916Y042716D01*
X060872Y042781D01*
X060806Y042825D01*
X060729Y04284D01*
X060209D01*
X057878Y045171D01*
X0579Y045254D01*
Y045346D01*
X057876Y045435D01*
X05783Y045515D01*
X057765Y04558D01*
X057685Y045626D01*
X057596Y04565D01*
D02*
G37*
G36*
X056396Y0458D02*
X056304D01*
X056215Y045776D01*
X056135Y04573D01*
X05607Y045665D01*
X056024Y045585D01*
X056Y045496D01*
Y045404D01*
X056024Y045315D01*
X05607Y045235D01*
X056135Y04517D01*
X056215Y045124D01*
X056304Y0451D01*
X056396D01*
X056449Y045114D01*
X059969Y041595D01*
Y041412D01*
X059984Y041334D01*
X060028Y041269D01*
X060094Y041225D01*
X060171Y04121D01*
X060722D01*
X0608Y041225D01*
X060866Y041269D01*
X060909Y041334D01*
X060914Y041357D01*
X061383D01*
X061388Y041334D01*
X061431Y041269D01*
X061497Y041225D01*
X061574Y04121D01*
X062112D01*
X063579Y039742D01*
X063629Y039709D01*
X063687Y039697D01*
X067797D01*
X067881Y039612D01*
X067856Y039551D01*
X067841Y03944D01*
Y03934D01*
X067856Y039229D01*
X067899Y039126D01*
X067967Y039037D01*
X068056Y038969D01*
X068159Y038926D01*
X06827Y038911D01*
X068381Y038926D01*
X068484Y038969D01*
X068573Y039037D01*
X068641Y039126D01*
X068684Y039229D01*
X068699Y03934D01*
Y03944D01*
X068684Y039551D01*
X068641Y039654D01*
X068573Y039743D01*
X068484Y039811D01*
X068381Y039854D01*
X06827Y039869D01*
X068159Y039854D01*
X068098Y039829D01*
X067968Y039958D01*
X067919Y039991D01*
X06786Y040003D01*
X063751D01*
X062328Y041426D01*
Y041609D01*
X062312Y041686D01*
X062269Y041752D01*
X062203Y041796D01*
X062126Y041811D01*
X061574D01*
X061497Y041796D01*
X061431Y041752D01*
X061388Y041686D01*
X061383Y041663D01*
X060914D01*
X060909Y041686D01*
X060866Y041752D01*
X0608Y041796D01*
X060722Y041811D01*
X060185D01*
X056677Y045319D01*
X0567Y045404D01*
Y045496D01*
X056676Y045585D01*
X05663Y045665D01*
X056565Y04573D01*
X056485Y045776D01*
X056396Y0458D01*
D02*
G37*
%LPD*%
D10*
X08515Y0576D02*
G03*
X08315Y0596I-002J0D01*
G01*
Y03845D02*
G03*
X08515Y04045I0J002D01*
G01*
X05545Y0596D02*
G03*
X05345Y0576I0J-002D01*
G01*
Y04045D02*
G03*
X05545Y03845I002J0D01*
G01*
X0Y0D02*
X12465D01*
X0Y06415D02*
X12465D01*
Y0D02*
Y06415D01*
X0Y0D02*
Y06415D01*
X05545Y03845D02*
X08315D01*
X05545Y0596D02*
X08315D01*
X08515Y04045D02*
Y0576D01*
X05345Y04045D02*
Y0576D01*
X064379Y0534D02*
X064384Y053405D01*
X062762Y0534D02*
X064379D01*
X0625Y053162D02*
X062623Y053285D01*
X062647D02*
X062762Y0534D01*
X062623Y053285D02*
X062647D01*
X0625Y053138D02*
Y053162D01*
X07309Y0419D02*
Y04195D01*
X07004Y0419D02*
Y04195D01*
X069094Y053405D02*
X069128Y053371D01*
X064384Y053405D02*
X069094D01*
X06294Y049415D02*
X068835D01*
X0689Y04935D01*
X062574Y049781D02*
X06294Y049415D01*
X069128Y053371D02*
X069243Y053256D01*
X0727D01*
X05935Y054455D02*
Y0558D01*
X059378Y048875D02*
Y050228D01*
X0629Y04245D02*
X0646Y04075D01*
X07615D01*
X06185Y04376D02*
Y0445D01*
Y0395D02*
Y04029D01*
X05469Y04591D02*
X0579Y04912D01*
Y050517D02*
X059323Y05194D01*
X0579Y04912D02*
Y050517D01*
X05729Y04746D02*
X0596D01*
X05469Y04486D02*
X05729Y04746D01*
X05635Y04543D02*
X06027Y04151D01*
X060447D02*
X06185D01*
X05635Y04543D02*
Y04545D01*
X06027Y04151D02*
X060447D01*
X060293Y04254D02*
X060453D01*
X05755Y045283D02*
Y0453D01*
Y045283D02*
X060293Y04254D01*
X060453D02*
X06185D01*
X062027D02*
X064267Y0403D01*
X07046D01*
X07132Y03944D01*
X07615Y04075D02*
X0768Y0401D01*
X062027Y04151D02*
X063687Y03985D01*
X06786D01*
X06827Y03944D01*
X0664Y0412D02*
X08035D01*
X06569Y04191D02*
X0664Y0412D01*
X08035D02*
X08145Y0401D01*
X06185Y04254D02*
X062027D01*
X07132Y03939D02*
Y03944D01*
X06185Y04151D02*
X062027D01*
X06827Y03939D02*
Y03944D01*
X061Y05316D02*
X061218D01*
X0595D02*
X061D01*
X061218D02*
X062126Y052252D01*
Y052233D02*
Y052252D01*
X059323Y05194D02*
X0595D01*
X063947Y047453D02*
X064985Y046415D01*
X068235D01*
X0625Y047453D02*
X063947D01*
X068235Y046415D02*
X069345Y045305D01*
X062423Y049781D02*
X062574D01*
X069345Y045305D02*
X07265D01*
X062345Y056745D02*
X0636Y058D01*
X0686D01*
X062345Y05536D02*
Y056745D01*
X06085Y04746D02*
X06136Y04695D01*
X0628D01*
X062874Y046876D01*
Y046547D02*
Y046876D01*
X06085Y04624D02*
X061838D01*
X0596D02*
X06085D01*
X061838D02*
X062126Y046528D01*
Y046547D01*
Y046567D01*
X062423Y04856D02*
X0625Y048484D01*
Y047453D02*
Y048484D01*
X061931Y048875D02*
X062246Y04856D01*
X06115Y048875D02*
X061931D01*
X062246Y04856D02*
X062423D01*
X062168Y05414D02*
X062345D01*
X061122Y054455D02*
X061853D01*
X062168Y05414D01*
X0625Y053138D02*
Y053997D01*
X062357Y05414D02*
X0625Y053997D01*
X062345Y05414D02*
X062357D01*
X05935Y054455D02*
X05935D01*
D18*
X061Y05194D02*
D03*
Y05316D02*
D03*
X062345Y05414D02*
D03*
Y05536D02*
D03*
X0595Y05316D02*
D03*
Y05194D02*
D03*
X060453Y04376D02*
D03*
Y04254D02*
D03*
X06185D02*
D03*
Y04376D02*
D03*
X060447Y04029D02*
D03*
Y04151D02*
D03*
X06185D02*
D03*
Y04029D02*
D03*
X062423Y04856D02*
D03*
Y049781D02*
D03*
X0596Y04624D02*
D03*
Y04746D02*
D03*
X06085D02*
D03*
Y04624D02*
D03*
D19*
X0625Y053138D02*
D03*
Y047453D02*
D03*
D20*
X062126Y052233D02*
D03*
X062874D02*
D03*
X062126Y046547D02*
D03*
X062874D02*
D03*
D21*
X061122Y054455D02*
D03*
X05935D02*
D03*
X06115Y048875D02*
D03*
X059378D02*
D03*
D32*
X0821Y057656D02*
D03*
Y055656D02*
D03*
Y049705D02*
D03*
Y047705D02*
D03*
D33*
Y053656D02*
D03*
Y045705D02*
D03*
D37*
X06865Y057D02*
X068678Y056972D01*
X072672Y058028D02*
X0727Y058056D01*
X072597Y050052D02*
X07265Y050105D01*
X068847Y050402D02*
X0689Y05035D01*
D38*
X0689Y057D02*
D03*
X0689Y05035D02*
D03*
D39*
X0689Y058D02*
D03*
X0689Y04935D02*
D03*
D40*
X05469Y05591D02*
D03*
Y05191D02*
D03*
Y05291D02*
D03*
Y05391D02*
D03*
Y05091D02*
D03*
Y04991D02*
D03*
Y04891D02*
D03*
Y04291D02*
D03*
Y04391D02*
D03*
Y04486D02*
D03*
Y04591D02*
D03*
Y04691D02*
D03*
Y04191D02*
D03*
X06569Y05591D02*
D03*
Y05191D02*
D03*
Y05291D02*
D03*
Y05391D02*
D03*
Y04991D02*
D03*
Y04891D02*
D03*
Y04786D02*
D03*
Y04391D02*
D03*
Y04491D02*
D03*
Y04591D02*
D03*
Y04691D02*
D03*
Y04291D02*
D03*
Y04191D02*
D03*
D41*
X05469Y05491D02*
D03*
Y04796D02*
D03*
X06569Y05491D02*
D03*
Y05096D02*
D03*
D42*
X06827Y03939D02*
D03*
X07005Y0394D02*
D03*
X07004Y0419D02*
D03*
X06827Y04189D02*
D03*
X07132Y03939D02*
D03*
X0731Y0394D02*
D03*
X07309Y0419D02*
D03*
X07132Y04189D02*
D03*
D43*
X07265Y050105D02*
D03*
X07745Y045305D02*
D03*
X07165Y047705D02*
D03*
X07745Y050105D02*
D03*
X07265Y045305D02*
D03*
X0727Y058056D02*
D03*
X0775Y053256D02*
D03*
X0717Y055656D02*
D03*
X0775Y058056D02*
D03*
X0727Y053256D02*
D03*
D44*
X0758Y0401D02*
D03*
X0768D02*
D03*
X08145D02*
D03*
X08045D02*
D03*
D45*
X0778D02*
D03*
X08245D02*
D03*
D46*
X05935Y0558D02*
D03*
X059378Y050228D02*
D03*
X0629Y04245D02*
D03*
X06185Y0445D02*
D03*
Y0395D02*
D03*
X05635Y04545D02*
D03*
X05755Y0453D02*
D03*
M02*
