G04*
G04 #@! TF.GenerationSoftware,Altium Limited,Altium Designer,21.3.2 (30)*
G04*
G04 Layer_Color=8388736*
%FSTAX24Y24*%
%MOIN*%
G70*
G04*
G04 #@! TF.SameCoordinates,2CDE0281-AAEF-468F-B01B-39F68B6DA6A9*
G04*
G04*
G04 #@! TF.FilePolarity,Negative*
G04*
G01*
G75*
G04:AMPARAMS|DCode=22|XSize=82.8mil|YSize=47.4mil|CornerRadius=13.8mil|HoleSize=0mil|Usage=FLASHONLY|Rotation=0.000|XOffset=0mil|YOffset=0mil|HoleType=Round|Shape=RoundedRectangle|*
%AMROUNDEDRECTD22*
21,1,0.0828,0.0197,0,0,0.0*
21,1,0.0551,0.0474,0,0,0.0*
1,1,0.0277,0.0276,-0.0098*
1,1,0.0277,-0.0276,-0.0098*
1,1,0.0277,-0.0276,0.0098*
1,1,0.0277,0.0276,0.0098*
%
%ADD22ROUNDEDRECTD22*%
G04:AMPARAMS|DCode=23|XSize=39.5mil|YSize=47.4mil|CornerRadius=11.9mil|HoleSize=0mil|Usage=FLASHONLY|Rotation=180.000|XOffset=0mil|YOffset=0mil|HoleType=Round|Shape=RoundedRectangle|*
%AMROUNDEDRECTD23*
21,1,0.0395,0.0236,0,0,180.0*
21,1,0.0157,0.0474,0,0,180.0*
1,1,0.0237,-0.0079,0.0118*
1,1,0.0237,0.0079,0.0118*
1,1,0.0237,0.0079,-0.0118*
1,1,0.0237,-0.0079,-0.0118*
%
%ADD23ROUNDEDRECTD23*%
G04:AMPARAMS|DCode=24|XSize=39.5mil|YSize=43.4mil|CornerRadius=11.9mil|HoleSize=0mil|Usage=FLASHONLY|Rotation=180.000|XOffset=0mil|YOffset=0mil|HoleType=Round|Shape=RoundedRectangle|*
%AMROUNDEDRECTD24*
21,1,0.0395,0.0197,0,0,180.0*
21,1,0.0157,0.0434,0,0,180.0*
1,1,0.0237,-0.0079,0.0098*
1,1,0.0237,0.0079,0.0098*
1,1,0.0237,0.0079,-0.0098*
1,1,0.0237,-0.0079,-0.0098*
%
%ADD24ROUNDEDRECTD24*%
G04:AMPARAMS|DCode=25|XSize=86.7mil|YSize=86.7mil|CornerRadius=23.7mil|HoleSize=0mil|Usage=FLASHONLY|Rotation=270.000|XOffset=0mil|YOffset=0mil|HoleType=Round|Shape=RoundedRectangle|*
%AMROUNDEDRECTD25*
21,1,0.0867,0.0394,0,0,270.0*
21,1,0.0394,0.0867,0,0,270.0*
1,1,0.0474,-0.0197,-0.0197*
1,1,0.0474,-0.0197,0.0197*
1,1,0.0474,0.0197,0.0197*
1,1,0.0474,0.0197,-0.0197*
%
%ADD25ROUNDEDRECTD25*%
G04:AMPARAMS|DCode=26|XSize=71mil|YSize=71mil|CornerRadius=19.7mil|HoleSize=0mil|Usage=FLASHONLY|Rotation=90.000|XOffset=0mil|YOffset=0mil|HoleType=Round|Shape=RoundedRectangle|*
%AMROUNDEDRECTD26*
21,1,0.0710,0.0315,0,0,90.0*
21,1,0.0315,0.0710,0,0,90.0*
1,1,0.0395,0.0157,0.0157*
1,1,0.0395,0.0157,-0.0157*
1,1,0.0395,-0.0157,-0.0157*
1,1,0.0395,-0.0157,0.0157*
%
%ADD26ROUNDEDRECTD26*%
%ADD27C,0.0710*%
%ADD28C,0.0770*%
%ADD29R,0.0770X0.0770*%
%ADD30O,0.0730X0.0830*%
%ADD31C,0.1280*%
%ADD32C,0.0866*%
G04:AMPARAMS|DCode=33|XSize=86.6mil|YSize=86.6mil|CornerRadius=21.7mil|HoleSize=0mil|Usage=FLASHONLY|Rotation=90.000|XOffset=0mil|YOffset=0mil|HoleType=Round|Shape=RoundedRectangle|*
%AMROUNDEDRECTD33*
21,1,0.0866,0.0433,0,0,90.0*
21,1,0.0433,0.0866,0,0,90.0*
1,1,0.0433,0.0217,0.0217*
1,1,0.0433,0.0217,-0.0217*
1,1,0.0433,-0.0217,-0.0217*
1,1,0.0433,-0.0217,0.0217*
%
%ADD33ROUNDEDRECTD33*%
%ADD34C,0.0671*%
G04:AMPARAMS|DCode=35|XSize=67.1mil|YSize=67.1mil|CornerRadius=18.8mil|HoleSize=0mil|Usage=FLASHONLY|Rotation=180.000|XOffset=0mil|YOffset=0mil|HoleType=Round|Shape=RoundedRectangle|*
%AMROUNDEDRECTD35*
21,1,0.0671,0.0295,0,0,180.0*
21,1,0.0295,0.0671,0,0,180.0*
1,1,0.0375,-0.0148,0.0148*
1,1,0.0375,0.0148,0.0148*
1,1,0.0375,0.0148,-0.0148*
1,1,0.0375,-0.0148,-0.0148*
%
%ADD35ROUNDEDRECTD35*%
%ADD36C,0.0580*%
D22*
X061Y05194D02*
D03*
Y05316D02*
D03*
X062345Y05414D02*
D03*
Y05536D02*
D03*
X0595Y05316D02*
D03*
Y05194D02*
D03*
X060453Y04376D02*
D03*
Y04254D02*
D03*
X06185D02*
D03*
Y04376D02*
D03*
X060447Y04029D02*
D03*
Y04151D02*
D03*
X06185D02*
D03*
Y04029D02*
D03*
X062423Y04856D02*
D03*
Y049781D02*
D03*
X0596Y04624D02*
D03*
Y04746D02*
D03*
X06085D02*
D03*
Y04624D02*
D03*
D23*
X0625Y053138D02*
D03*
Y047453D02*
D03*
D24*
X062126Y052233D02*
D03*
X062874D02*
D03*
X062126Y046547D02*
D03*
X062874D02*
D03*
D25*
X061122Y054455D02*
D03*
X05935D02*
D03*
X06115Y048875D02*
D03*
X059378D02*
D03*
D26*
X0689Y057D02*
D03*
X0689Y05035D02*
D03*
D27*
X0689Y058D02*
D03*
X0689Y04935D02*
D03*
D28*
X05469Y05591D02*
D03*
Y05191D02*
D03*
Y05291D02*
D03*
Y05391D02*
D03*
Y05091D02*
D03*
Y04991D02*
D03*
Y04891D02*
D03*
Y04291D02*
D03*
Y04391D02*
D03*
Y04486D02*
D03*
Y04591D02*
D03*
Y04691D02*
D03*
Y04191D02*
D03*
X06569Y05591D02*
D03*
Y05191D02*
D03*
Y05291D02*
D03*
Y05391D02*
D03*
Y04991D02*
D03*
Y04891D02*
D03*
Y04786D02*
D03*
Y04391D02*
D03*
Y04491D02*
D03*
Y04591D02*
D03*
Y04691D02*
D03*
Y04291D02*
D03*
Y04191D02*
D03*
D29*
X05469Y05491D02*
D03*
Y04796D02*
D03*
X06569Y05491D02*
D03*
Y05096D02*
D03*
D30*
X06827Y03939D02*
D03*
X07005Y0394D02*
D03*
X07004Y0419D02*
D03*
X06827Y04189D02*
D03*
X07132Y03939D02*
D03*
X0731Y0394D02*
D03*
X07309Y0419D02*
D03*
X07132Y04189D02*
D03*
D31*
X07265Y050105D02*
D03*
X07745Y045305D02*
D03*
X07165Y047705D02*
D03*
X07745Y050105D02*
D03*
X07265Y045305D02*
D03*
X0727Y058056D02*
D03*
X0775Y053256D02*
D03*
X0717Y055656D02*
D03*
X0775Y058056D02*
D03*
X0727Y053256D02*
D03*
D32*
X0821Y057656D02*
D03*
Y055656D02*
D03*
Y049705D02*
D03*
Y047705D02*
D03*
D33*
Y053656D02*
D03*
Y045705D02*
D03*
D34*
X0758Y0401D02*
D03*
X0768D02*
D03*
X08145D02*
D03*
X08045D02*
D03*
D35*
X0778D02*
D03*
X08245D02*
D03*
D36*
X05935Y0558D02*
D03*
X059378Y050228D02*
D03*
X0629Y04245D02*
D03*
X06185Y0445D02*
D03*
Y0395D02*
D03*
X05635Y04545D02*
D03*
X05755Y0453D02*
D03*
M02*
