G04*
G04 #@! TF.GenerationSoftware,Altium Limited,Altium Designer,21.3.2 (30)*
G04*
G04 Layer_Color=16711935*
%FSTAX24Y24*%
%MOIN*%
G70*
G04*
G04 #@! TF.SameCoordinates,2CDE0281-AAEF-468F-B01B-39F68B6DA6A9*
G04*
G04*
G04 #@! TF.FilePolarity,Positive*
G04*
G01*
G75*
%ADD48C,0.0039*%
%ADD49R,0.0244X0.1142*%
D48*
X060665Y05192D02*
Y05318D01*
X061335Y05192D02*
Y05318D01*
X060665Y05192D02*
X061335D01*
X060665Y05318D02*
X061335D01*
X06201Y05412D02*
Y05538D01*
X06268Y05412D02*
Y05538D01*
X06201Y05412D02*
X06268D01*
X06201Y05538D02*
X06268D01*
X059835Y05192D02*
Y05318D01*
X059165Y05192D02*
Y05318D01*
X059835D01*
X059165Y05192D02*
X059835D01*
X061909Y05241D02*
X063091D01*
Y052961D01*
X061909Y05241D02*
Y052961D01*
X063091D01*
X05933Y055026D02*
X061141D01*
X05933Y053884D02*
X061141D01*
X05933D02*
Y055026D01*
X061141Y053884D02*
Y055026D01*
X061515Y04252D02*
Y04378D01*
X062185Y04252D02*
Y04378D01*
X061515Y04252D02*
X062185D01*
X061515Y04378D02*
X062185D01*
X062185Y04027D02*
Y04153D01*
X061515Y04027D02*
Y04153D01*
X062185D01*
X061515Y04027D02*
X062185D01*
X062089Y048541D02*
Y0498D01*
X062758Y048541D02*
Y0498D01*
X062089Y048541D02*
X062758D01*
X062089Y0498D02*
X062758D01*
X059265Y04622D02*
Y04748D01*
X059935Y04622D02*
Y04748D01*
X059265Y04622D02*
X059935D01*
X059265Y04748D02*
X059935D01*
X061185Y04622D02*
Y04748D01*
X060515Y04622D02*
Y04748D01*
X061185D01*
X060515Y04622D02*
X061185D01*
X061909Y046724D02*
X063091D01*
Y047276D01*
X061909Y046724D02*
Y047276D01*
X063091D01*
X059359Y049446D02*
X06117D01*
X059359Y048305D02*
X06117D01*
X059359D02*
Y049446D01*
X06117Y048305D02*
Y049446D01*
D49*
X05947Y054455D02*
D03*
X059498Y048875D02*
D03*
M02*
