G04*
G04 #@! TF.GenerationSoftware,Altium Limited,Altium Designer,21.3.2 (30)*
G04*
G04 Layer_Color=128*
%FSTAX24Y24*%
%MOIN*%
G70*
G04*
G04 #@! TF.SameCoordinates,2CDE0281-AAEF-468F-B01B-39F68B6DA6A9*
G04*
G04*
G04 #@! TF.FilePolarity,Positive*
G04*
G01*
G75*
%ADD51C,0.0020*%
D51*
X068703Y057D02*
X069097D01*
X0689Y056803D02*
Y057197D01*
X068703Y058D02*
X069097D01*
X0689Y057803D02*
Y058197D01*
X054515Y05591D02*
X054865D01*
X05469Y055735D02*
Y056085D01*
X054515Y05191D02*
X054865D01*
X05469Y051735D02*
Y052085D01*
X054515Y05291D02*
X054865D01*
X05469Y052735D02*
Y053085D01*
X054515Y05391D02*
X054865D01*
X05469Y053735D02*
Y054085D01*
X054515Y05491D02*
X054865D01*
X05469Y054735D02*
Y055085D01*
X054515Y05091D02*
X054865D01*
X05469Y050735D02*
Y051085D01*
X054515Y04991D02*
X054865D01*
X05469Y049735D02*
Y050085D01*
X054515Y04891D02*
X054865D01*
X05469Y048735D02*
Y049085D01*
X054515Y04796D02*
X054865D01*
X05469Y047785D02*
Y048135D01*
X054515Y04291D02*
X054865D01*
X05469Y042735D02*
Y043085D01*
X054515Y04391D02*
X054865D01*
X05469Y043735D02*
Y044085D01*
X054515Y04486D02*
X054865D01*
X05469Y044685D02*
Y045035D01*
X054515Y04591D02*
X054865D01*
X05469Y045735D02*
Y046085D01*
X054515Y04691D02*
X054865D01*
X05469Y046735D02*
Y047085D01*
X054515Y04191D02*
X054865D01*
X05469Y041735D02*
Y042085D01*
X065515Y05591D02*
X065865D01*
X06569Y055735D02*
Y056085D01*
X065515Y05191D02*
X065865D01*
X06569Y051735D02*
Y052085D01*
X065515Y05291D02*
X065865D01*
X06569Y052735D02*
Y053085D01*
X065515Y05391D02*
X065865D01*
X06569Y053735D02*
Y054085D01*
X065515Y05491D02*
X065865D01*
X06569Y054735D02*
Y055085D01*
X065515Y05096D02*
X065865D01*
X06569Y050785D02*
Y051135D01*
X065515Y04991D02*
X065865D01*
X06569Y049735D02*
Y050085D01*
X065515Y04891D02*
X065865D01*
X06569Y048735D02*
Y049085D01*
X065515Y04786D02*
X065865D01*
X06569Y047685D02*
Y048035D01*
X065515Y04391D02*
X065865D01*
X06569Y043735D02*
Y044085D01*
X065515Y04491D02*
X065865D01*
X06569Y044735D02*
Y045085D01*
X065515Y04591D02*
X065865D01*
X06569Y045735D02*
Y046085D01*
X065515Y04691D02*
X065865D01*
X06569Y046735D02*
Y047085D01*
X065515Y04291D02*
X065865D01*
X06569Y042735D02*
Y043085D01*
X065515Y04191D02*
X065865D01*
X06569Y041735D02*
Y042085D01*
X06808Y03939D02*
X06846D01*
X06827Y0392D02*
Y03958D01*
X06986Y0394D02*
X07024D01*
X07005Y03921D02*
Y03959D01*
X06985Y0419D02*
X07023D01*
X07004Y04171D02*
Y04209D01*
X06808Y04189D02*
X06846D01*
X06827Y0417D02*
Y04208D01*
X07113Y03939D02*
X07151D01*
X07132Y0392D02*
Y03958D01*
X07291Y0394D02*
X07329D01*
X0731Y03921D02*
Y03959D01*
X0729Y0419D02*
X07328D01*
X07309Y04171D02*
Y04209D01*
X07113Y04189D02*
X07151D01*
X07132Y0417D02*
Y04208D01*
X072425Y050105D02*
X072875D01*
X07265Y04988D02*
Y05033D01*
X077225Y045305D02*
X077675D01*
X07745Y04508D02*
Y04553D01*
X071425Y047705D02*
X071875D01*
X07165Y04748D02*
Y04793D01*
X077225Y050105D02*
X077675D01*
X07745Y04988D02*
Y05033D01*
X072425Y045305D02*
X072875D01*
X07265Y04508D02*
Y04553D01*
X072475Y058056D02*
X072925D01*
X0727Y057831D02*
Y058281D01*
X077275Y053256D02*
X077725D01*
X0775Y053031D02*
Y053481D01*
X071475Y055656D02*
X071925D01*
X0717Y055431D02*
Y055881D01*
X077275Y058056D02*
X077725D01*
X0775Y057831D02*
Y058281D01*
X072475Y053256D02*
X072925D01*
X0727Y053031D02*
Y053481D01*
X081805Y057656D02*
X082395D01*
X0821Y05736D02*
Y057951D01*
X081805Y053656D02*
X082395D01*
X0821Y05336D02*
Y053951D01*
X081805Y055656D02*
X082395D01*
X0821Y05536D02*
Y055951D01*
X075623Y0401D02*
X075977D01*
X0758Y039923D02*
Y040277D01*
X076623Y0401D02*
X076977D01*
X0768Y039923D02*
Y040277D01*
X077623Y0401D02*
X077977D01*
X0778Y039923D02*
Y040277D01*
X081805Y049705D02*
X082395D01*
X0821Y04941D02*
Y05D01*
X081805Y045705D02*
X082395D01*
X0821Y04541D02*
Y046D01*
X081805Y047705D02*
X082395D01*
X0821Y04741D02*
Y048D01*
X082273Y0401D02*
X082627D01*
X08245Y039923D02*
Y040277D01*
X081273Y0401D02*
X081627D01*
X08145Y039923D02*
Y040277D01*
X080273Y0401D02*
X080627D01*
X08045Y039923D02*
Y040277D01*
X068703Y05035D02*
X069097D01*
X0689Y050153D02*
Y050547D01*
X068703Y04935D02*
X069097D01*
X0689Y049153D02*
Y049547D01*
X05921Y0558D02*
X05949D01*
X05935Y05566D02*
Y05594D01*
X059238Y050228D02*
X059518D01*
X059378Y050088D02*
Y050368D01*
X06276Y04245D02*
X06304D01*
X0629Y04231D02*
Y04259D01*
X06171Y0445D02*
X06199D01*
X06185Y04436D02*
Y04464D01*
X06171Y0395D02*
X06199D01*
X06185Y03936D02*
Y03964D01*
X05621Y04545D02*
X05649D01*
X05635Y04531D02*
Y04559D01*
X05741Y0453D02*
X05769D01*
X05755Y04516D02*
Y04544D01*
M02*
