G04*
G04 #@! TF.GenerationSoftware,Altium Limited,Altium Designer,21.3.2 (30)*
G04*
G04 Layer_Color=2752767*
%FSTAX24Y24*%
%MOIN*%
G70*
G04*
G04 #@! TF.SameCoordinates,2CDE0281-AAEF-468F-B01B-39F68B6DA6A9*
G04*
G04*
G04 #@! TF.FilePolarity,Positive*
G04*
G01*
G75*
%ADD51C,0.0020*%
%ADD52C,0.0027*%
D51*
X06882Y05692D02*
Y05708D01*
X06898D01*
Y05692D01*
X06882D01*
Y05792D02*
Y05808D01*
X06898D01*
Y05792D01*
X06882D01*
X06827Y03931D02*
X06819Y03947D01*
X06835D01*
X06827Y03931D01*
X07005Y03932D02*
X06997Y03948D01*
X07013D01*
X07005Y03932D01*
X07004Y04182D02*
X06996Y04198D01*
X07012D01*
X07004Y04182D01*
X06827Y04181D02*
X06819Y04197D01*
X06835D01*
X06827Y04181D01*
X07132Y03931D02*
X07124Y03947D01*
X0714D01*
X07132Y03931D01*
X0731Y03932D02*
X07302Y03948D01*
X07318D01*
X0731Y03932D01*
X07309Y04182D02*
X07301Y04198D01*
X07317D01*
X07309Y04182D01*
X07132Y04181D02*
X07124Y04197D01*
X0714D01*
X07132Y04181D01*
X07265Y050025D02*
X07269Y050065D01*
X07273D01*
X07269Y050105D01*
X07273Y050145D01*
X07269D01*
X07265Y050185D01*
X07261Y050145D01*
X07257D01*
X07261Y050105D01*
X07257Y050065D01*
X07261D01*
X07265Y050025D01*
X07745Y045225D02*
X07749Y045265D01*
X07753D01*
X07749Y045305D01*
X07753Y045345D01*
X07749D01*
X07745Y045385D01*
X07741Y045345D01*
X07737D01*
X07741Y045305D01*
X07737Y045265D01*
X07741D01*
X07745Y045225D01*
X07165Y047625D02*
X07169Y047665D01*
X07173D01*
X07169Y047705D01*
X07173Y047745D01*
X07169D01*
X07165Y047785D01*
X07161Y047745D01*
X07157D01*
X07161Y047705D01*
X07157Y047665D01*
X07161D01*
X07165Y047625D01*
X07745Y050025D02*
X07749Y050065D01*
X07753D01*
X07749Y050105D01*
X07753Y050145D01*
X07749D01*
X07745Y050185D01*
X07741Y050145D01*
X07737D01*
X07741Y050105D01*
X07737Y050065D01*
X07741D01*
X07745Y050025D01*
X07265Y045225D02*
X07269Y045265D01*
X07273D01*
X07269Y045305D01*
X07273Y045345D01*
X07269D01*
X07265Y045385D01*
X07261Y045345D01*
X07257D01*
X07261Y045305D01*
X07257Y045265D01*
X07261D01*
X07265Y045225D01*
X0727Y057976D02*
X07274Y058016D01*
X07278D01*
X07274Y058056D01*
X07278Y058096D01*
X07274D01*
X0727Y058136D01*
X07266Y058096D01*
X07262D01*
X07266Y058056D01*
X07262Y058016D01*
X07266D01*
X0727Y057976D01*
X0775Y053176D02*
X07754Y053216D01*
X07758D01*
X07754Y053256D01*
X07758Y053296D01*
X07754D01*
X0775Y053336D01*
X07746Y053296D01*
X07742D01*
X07746Y053256D01*
X07742Y053216D01*
X07746D01*
X0775Y053176D01*
X0717Y055576D02*
X07174Y055616D01*
X07178D01*
X07174Y055656D01*
X07178Y055696D01*
X07174D01*
X0717Y055736D01*
X07166Y055696D01*
X07162D01*
X07166Y055656D01*
X07162Y055616D01*
X07166D01*
X0717Y055576D01*
X0775Y057976D02*
X07754Y058016D01*
X07758D01*
X07754Y058056D01*
X07758Y058096D01*
X07754D01*
X0775Y058136D01*
X07746Y058096D01*
X07742D01*
X07746Y058056D01*
X07742Y058016D01*
X07746D01*
X0775Y057976D01*
X0727Y053176D02*
X07274Y053216D01*
X07278D01*
X07274Y053256D01*
X07278Y053296D01*
X07274D01*
X0727Y053336D01*
X07266Y053296D01*
X07262D01*
X07266Y053256D01*
X07262Y053216D01*
X07266D01*
X0727Y053176D01*
X08202Y057576D02*
X08206Y057656D01*
X08202Y057736D01*
X0821Y057696D01*
X08218Y057736D01*
X08214Y057656D01*
X08218Y057576D01*
X0821Y057616D01*
X08202Y057576D01*
Y053576D02*
X08206Y053656D01*
X08202Y053736D01*
X0821Y053696D01*
X08218Y053736D01*
X08214Y053656D01*
X08218Y053576D01*
X0821Y053616D01*
X08202Y053576D01*
Y055576D02*
X08206Y055656D01*
X08202Y055736D01*
X0821Y055696D01*
X08218Y055736D01*
X08214Y055656D01*
X08218Y055576D01*
X0821Y055616D01*
X08202Y055576D01*
X07576Y04006D02*
Y04002D01*
X07584D01*
Y04006D01*
X07588D01*
Y04014D01*
X07584D01*
Y04018D01*
X07576D01*
Y04014D01*
X07572D01*
Y04006D01*
X07576D01*
X07676D02*
Y04002D01*
X07684D01*
Y04006D01*
X07688D01*
Y04014D01*
X07684D01*
Y04018D01*
X07676D01*
Y04014D01*
X07672D01*
Y04006D01*
X07676D01*
X07776D02*
Y04002D01*
X07784D01*
Y04006D01*
X07788D01*
Y04014D01*
X07784D01*
Y04018D01*
X07776D01*
Y04014D01*
X07772D01*
Y04006D01*
X07776D01*
X08202Y049625D02*
X08206Y049705D01*
X08202Y049785D01*
X0821Y049745D01*
X08218Y049785D01*
X08214Y049705D01*
X08218Y049625D01*
X0821Y049665D01*
X08202Y049625D01*
Y045625D02*
X08206Y045705D01*
X08202Y045785D01*
X0821Y045745D01*
X08218Y045785D01*
X08214Y045705D01*
X08218Y045625D01*
X0821Y045665D01*
X08202Y045625D01*
Y047625D02*
X08206Y047705D01*
X08202Y047785D01*
X0821Y047745D01*
X08218Y047785D01*
X08214Y047705D01*
X08218Y047625D01*
X0821Y047665D01*
X08202Y047625D01*
X08241Y04006D02*
Y04002D01*
X08249D01*
Y04006D01*
X08253D01*
Y04014D01*
X08249D01*
Y04018D01*
X08241D01*
Y04014D01*
X08237D01*
Y04006D01*
X08241D01*
X08141D02*
Y04002D01*
X08149D01*
Y04006D01*
X08153D01*
Y04014D01*
X08149D01*
Y04018D01*
X08141D01*
Y04014D01*
X08137D01*
Y04006D01*
X08141D01*
X08041D02*
Y04002D01*
X08049D01*
Y04006D01*
X08053D01*
Y04014D01*
X08049D01*
Y04018D01*
X08041D01*
Y04014D01*
X08037D01*
Y04006D01*
X08041D01*
X06882Y05027D02*
Y05043D01*
X06898D01*
Y05027D01*
X06882D01*
Y04927D02*
Y04943D01*
X06898D01*
Y04927D01*
X06882D01*
X05927Y05572D02*
X05931D01*
X05935Y05576D01*
X05939Y05572D01*
X05943D01*
Y05576D01*
X05939Y0558D01*
X05943Y05584D01*
Y05588D01*
X05939D01*
X05935Y05584D01*
X05931Y05588D01*
X05927D01*
Y05584D01*
X05931Y0558D01*
X05927Y05576D01*
Y05572D01*
X059298Y050148D02*
X059338D01*
X059378Y050188D01*
X059418Y050148D01*
X059458D01*
Y050188D01*
X059418Y050228D01*
X059458Y050268D01*
Y050308D01*
X059418D01*
X059378Y050268D01*
X059338Y050308D01*
X059298D01*
Y050268D01*
X059338Y050228D01*
X059298Y050188D01*
Y050148D01*
X06282Y04237D02*
X06286D01*
X0629Y04241D01*
X06294Y04237D01*
X06298D01*
Y04241D01*
X06294Y04245D01*
X06298Y04249D01*
Y04253D01*
X06294D01*
X0629Y04249D01*
X06286Y04253D01*
X06282D01*
Y04249D01*
X06286Y04245D01*
X06282Y04241D01*
Y04237D01*
X06177Y04442D02*
X06181D01*
X06185Y04446D01*
X06189Y04442D01*
X06193D01*
Y04446D01*
X06189Y0445D01*
X06193Y04454D01*
Y04458D01*
X06189D01*
X06185Y04454D01*
X06181Y04458D01*
X06177D01*
Y04454D01*
X06181Y0445D01*
X06177Y04446D01*
Y04442D01*
Y03942D02*
X06181D01*
X06185Y03946D01*
X06189Y03942D01*
X06193D01*
Y03946D01*
X06189Y0395D01*
X06193Y03954D01*
Y03958D01*
X06189D01*
X06185Y03954D01*
X06181Y03958D01*
X06177D01*
Y03954D01*
X06181Y0395D01*
X06177Y03946D01*
Y03942D01*
X05627Y04537D02*
X05631D01*
X05635Y04541D01*
X05639Y04537D01*
X05643D01*
Y04541D01*
X05639Y04545D01*
X05643Y04549D01*
Y04553D01*
X05639D01*
X05635Y04549D01*
X05631Y04553D01*
X05627D01*
Y04549D01*
X05631Y04545D01*
X05627Y04541D01*
Y04537D01*
X05747Y04522D02*
X05751D01*
X05755Y04526D01*
X05759Y04522D01*
X05763D01*
Y04526D01*
X05759Y0453D01*
X05763Y04534D01*
Y04538D01*
X05759D01*
X05755Y04534D01*
X05751Y04538D01*
X05747D01*
Y04534D01*
X05751Y0453D01*
X05747Y04526D01*
Y04522D01*
D52*
X05477Y05591D02*
G03*
X05477Y05591I-00008J0D01*
G01*
Y05191D02*
G03*
X05477Y05191I-00008J0D01*
G01*
Y05291D02*
G03*
X05477Y05291I-00008J0D01*
G01*
Y05391D02*
G03*
X05477Y05391I-00008J0D01*
G01*
Y05491D02*
G03*
X05477Y05491I-00008J0D01*
G01*
Y05091D02*
G03*
X05477Y05091I-00008J0D01*
G01*
Y04991D02*
G03*
X05477Y04991I-00008J0D01*
G01*
Y04891D02*
G03*
X05477Y04891I-00008J0D01*
G01*
Y04796D02*
G03*
X05477Y04796I-00008J0D01*
G01*
Y04291D02*
G03*
X05477Y04291I-00008J0D01*
G01*
Y04391D02*
G03*
X05477Y04391I-00008J0D01*
G01*
Y04486D02*
G03*
X05477Y04486I-00008J0D01*
G01*
Y04591D02*
G03*
X05477Y04591I-00008J0D01*
G01*
Y04691D02*
G03*
X05477Y04691I-00008J0D01*
G01*
Y04191D02*
G03*
X05477Y04191I-00008J0D01*
G01*
X06577Y05591D02*
G03*
X06577Y05591I-00008J0D01*
G01*
Y05191D02*
G03*
X06577Y05191I-00008J0D01*
G01*
Y05291D02*
G03*
X06577Y05291I-00008J0D01*
G01*
Y05391D02*
G03*
X06577Y05391I-00008J0D01*
G01*
Y05491D02*
G03*
X06577Y05491I-00008J0D01*
G01*
Y05096D02*
G03*
X06577Y05096I-00008J0D01*
G01*
Y04991D02*
G03*
X06577Y04991I-00008J0D01*
G01*
Y04891D02*
G03*
X06577Y04891I-00008J0D01*
G01*
Y04786D02*
G03*
X06577Y04786I-00008J0D01*
G01*
Y04391D02*
G03*
X06577Y04391I-00008J0D01*
G01*
Y04491D02*
G03*
X06577Y04491I-00008J0D01*
G01*
Y04591D02*
G03*
X06577Y04591I-00008J0D01*
G01*
Y04691D02*
G03*
X06577Y04691I-00008J0D01*
G01*
Y04291D02*
G03*
X06577Y04291I-00008J0D01*
G01*
Y04191D02*
G03*
X06577Y04191I-00008J0D01*
G01*
M02*
