G04*
G04 #@! TF.GenerationSoftware,Altium Limited,Altium Designer,21.3.2 (30)*
G04*
G04 Layer_Physical_Order=2*
G04 Layer_Color=16711680*
%FSTAX24Y24*%
%MOIN*%
G70*
G04*
G04 #@! TF.SameCoordinates,2CDE0281-AAEF-468F-B01B-39F68B6DA6A9*
G04*
G04*
G04 #@! TF.FilePolarity,Positive*
G04*
G01*
G75*
%ADD10C,0.0100*%
%ADD32C,0.0866*%
G04:AMPARAMS|DCode=33|XSize=86.6mil|YSize=86.6mil|CornerRadius=21.7mil|HoleSize=0mil|Usage=FLASHONLY|Rotation=90.000|XOffset=0mil|YOffset=0mil|HoleType=Round|Shape=RoundedRectangle|*
%AMROUNDEDRECTD33*
21,1,0.0866,0.0433,0,0,90.0*
21,1,0.0433,0.0866,0,0,90.0*
1,1,0.0433,0.0217,0.0217*
1,1,0.0433,0.0217,-0.0217*
1,1,0.0433,-0.0217,-0.0217*
1,1,0.0433,-0.0217,0.0217*
%
%ADD33ROUNDEDRECTD33*%
G04:AMPARAMS|DCode=38|XSize=63mil|YSize=63mil|CornerRadius=15.7mil|HoleSize=0mil|Usage=FLASHONLY|Rotation=90.000|XOffset=0mil|YOffset=0mil|HoleType=Round|Shape=RoundedRectangle|*
%AMROUNDEDRECTD38*
21,1,0.0630,0.0315,0,0,90.0*
21,1,0.0315,0.0630,0,0,90.0*
1,1,0.0315,0.0157,0.0157*
1,1,0.0315,0.0157,-0.0157*
1,1,0.0315,-0.0157,-0.0157*
1,1,0.0315,-0.0157,0.0157*
%
%ADD38ROUNDEDRECTD38*%
%ADD39C,0.0630*%
%ADD40C,0.0690*%
%ADD41R,0.0690X0.0690*%
%ADD42O,0.0650X0.0750*%
%ADD43C,0.1200*%
%ADD44C,0.0591*%
G04:AMPARAMS|DCode=45|XSize=59.1mil|YSize=59.1mil|CornerRadius=14.8mil|HoleSize=0mil|Usage=FLASHONLY|Rotation=180.000|XOffset=0mil|YOffset=0mil|HoleType=Round|Shape=RoundedRectangle|*
%AMROUNDEDRECTD45*
21,1,0.0591,0.0295,0,0,180.0*
21,1,0.0295,0.0591,0,0,180.0*
1,1,0.0295,-0.0148,0.0148*
1,1,0.0295,0.0148,0.0148*
1,1,0.0295,0.0148,-0.0148*
1,1,0.0295,-0.0148,-0.0148*
%
%ADD45ROUNDEDRECTD45*%
%ADD46C,0.0500*%
%ADD47C,0.1000*%
D10*
X070506Y058056D02*
X0727D01*
X06945Y057D02*
X070506Y058056D01*
X0689Y057D02*
X06945D01*
X069076Y050174D02*
X072581D01*
X07265Y050105D01*
X0689Y05035D02*
X069076Y050174D01*
X0689Y05035D02*
Y057D01*
Y05035D02*
X0689Y05035D01*
X0689Y057D02*
X0689Y057D01*
X06678Y057D02*
X0689D01*
X06569Y05591D02*
X06678Y057D01*
X059405Y055855D02*
X065635D01*
X05935Y0558D02*
X059405Y055855D01*
X065635D02*
X06569Y05591D01*
X059364Y050243D02*
X059378Y050228D01*
X059364Y050243D02*
Y055786D01*
X05935Y0558D02*
X059364Y055786D01*
X06185Y04807D02*
X06569Y05191D01*
X06185Y0445D02*
Y04807D01*
Y0395D02*
X06355Y0412D01*
X065166D01*
X05855Y04555D02*
X06165Y04245D01*
X0629D01*
X061866Y0445D02*
X065166Y0412D01*
X0789D01*
X06185Y0445D02*
X061866D01*
X05855Y04555D02*
Y04765D01*
X05529Y04991D02*
X05755Y04765D01*
Y0453D02*
Y04765D01*
X05529Y04891D02*
X05635Y04785D01*
Y04545D02*
Y04785D01*
X05469Y04891D02*
X05529D01*
X05469Y04991D02*
X05529D01*
X08245Y0401D02*
Y0401D01*
X08135Y0412D02*
X08245Y0401D01*
X0789Y0412D02*
X08135D01*
X0778Y0401D02*
X0789Y0412D01*
X05469Y05091D02*
X05529D01*
X05855Y04765D01*
X082075Y057656D02*
X0821D01*
X08201Y053656D02*
X0821D01*
X08201Y045705D02*
X0821D01*
X082075Y049705D02*
X0821D01*
D32*
Y057656D02*
D03*
Y055656D02*
D03*
Y049705D02*
D03*
Y047705D02*
D03*
D33*
Y053656D02*
D03*
Y045705D02*
D03*
D38*
X0689Y057D02*
D03*
X0689Y05035D02*
D03*
D39*
X0689Y058D02*
D03*
X0689Y04935D02*
D03*
D40*
X05469Y05591D02*
D03*
Y05191D02*
D03*
Y05291D02*
D03*
Y05391D02*
D03*
Y05091D02*
D03*
Y04991D02*
D03*
Y04891D02*
D03*
Y04291D02*
D03*
Y04391D02*
D03*
Y04486D02*
D03*
Y04591D02*
D03*
Y04691D02*
D03*
Y04191D02*
D03*
X06569Y05591D02*
D03*
Y05191D02*
D03*
Y05291D02*
D03*
Y05391D02*
D03*
Y04991D02*
D03*
Y04891D02*
D03*
Y04786D02*
D03*
Y04391D02*
D03*
Y04491D02*
D03*
Y04591D02*
D03*
Y04691D02*
D03*
Y04291D02*
D03*
Y04191D02*
D03*
D41*
X05469Y05491D02*
D03*
Y04796D02*
D03*
X06569Y05491D02*
D03*
Y05096D02*
D03*
D42*
X06827Y03939D02*
D03*
X07005Y0394D02*
D03*
X07004Y0419D02*
D03*
X06827Y04189D02*
D03*
X07132Y03939D02*
D03*
X0731Y0394D02*
D03*
X07309Y0419D02*
D03*
X07132Y04189D02*
D03*
D43*
X07265Y050105D02*
D03*
X07745Y045305D02*
D03*
X07165Y047705D02*
D03*
X07745Y050105D02*
D03*
X07265Y045305D02*
D03*
X0727Y058056D02*
D03*
X0775Y053256D02*
D03*
X0717Y055656D02*
D03*
X0775Y058056D02*
D03*
X0727Y053256D02*
D03*
D44*
X0758Y0401D02*
D03*
X0768D02*
D03*
X08145D02*
D03*
X08045D02*
D03*
D45*
X0778D02*
D03*
X08245D02*
D03*
D46*
X05935Y0558D02*
D03*
X059378Y050228D02*
D03*
X0629Y04245D02*
D03*
X06185Y0445D02*
D03*
Y0395D02*
D03*
X05635Y04545D02*
D03*
X05755Y0453D02*
D03*
D47*
X0717Y055656D02*
X0821D01*
X0775Y058056D02*
X081675D01*
X082075Y057656D01*
X08161Y053256D02*
X08201Y053656D01*
X0775Y053256D02*
X08161D01*
X07745Y050105D02*
X081675D01*
X082075Y049705D01*
X07165Y047705D02*
X0821D01*
X07745Y045305D02*
X08161D01*
X08201Y045705D01*
M02*
