M48
;Layer_Color=9474304
;FILE_FORMAT=2:4
INCH,LZ
;TYPE=PLATED
T1F00S00C0.0280
T2F00S00C0.0350
T3F00S00C0.0354
T4F00S00C0.0380
T5F00S00C0.0394
T6F00S00C0.0450
T7F00S00C0.0591
%
T01
X06185Y0395
Y0445
X05755Y0453
X05635Y04545
X0629Y04245
X059378Y050228
X05935Y0558
T02
X05469Y04191
Y04291
Y04391
Y04486
Y04591
X06569
Y04491
Y04391
Y04291
Y04191
Y04691
Y04786
Y04891
Y04991
Y05096
Y05191
Y05291
Y05391
Y05491
Y05591
X05469
Y05491
Y05391
Y05291
Y05191
Y05091
Y04991
Y04891
Y04796
Y04691
T03
X0758Y0401
X0768
X0778
X08045
X08145
X08245
T04
X06827Y03939
X07005Y0394
X07132Y03939
X0731Y0394
X07309Y0419
X07132Y04189
X07004Y0419
X06827Y04189
T05
X0689Y04935
Y05035
X0689Y057
Y058
T06
X07265Y045305
X07745
Y050105
X0775Y053256
Y058056
X0727
X0717Y055656
X0727Y053256
X07265Y050105
X07165Y047705
T07
X0821Y045705
Y047705
Y049705
Y053656
Y055656
Y057656
M30
